<svg width="50" height="90" viewBox="0 0 50 90" fill="none" xmlns="http://www.w3.org/2000/svg">
<path d="M26.895 39.47C15.765 36.58 12.1851 33.58 12.1851 28.92C12.1851 23.57 17.135 19.85 25.425 19.85C32.385 19.85 35.875 22.5 37.145 26.72C37.735 28.68 39.355 30.15 41.415 30.15H42.885C46.125 30.15 48.4251 26.96 47.3051 23.92C45.2451 18.13 40.435 13.32 32.785 11.46V8.07997C32.785 4.00997 29.495 0.719971 25.425 0.719971C21.355 0.719971 18.0651 4.00997 18.0651 8.07997V11.32C8.55506 13.38 0.89502 19.56 0.89502 29.03C0.89502 40.36 10.265 46 23.955 49.29C36.215 52.23 38.665 56.55 38.665 61.11C38.665 64.49 36.265 69.89 25.425 69.89C17.335 69.89 13.165 67 11.545 62.88C10.805 60.97 9.135 59.59 7.125 59.59H5.755C2.465 59.59 0.16501 62.93 1.38501 65.97C4.18501 72.79 10.7051 76.81 18.0651 78.38V81.67C18.0651 85.74 21.355 89.03 25.425 89.03C29.495 89.03 32.785 85.74 32.785 81.67V78.48C42.345 76.67 49.9451 71.12 49.9451 61.07C49.9451 47.14 38.035 42.38 26.895 39.49V39.47Z" fill="#797979"/>
</svg>
