<svg width="115" height="115" viewBox="0 0 115 115" fill="none" xmlns="http://www.w3.org/2000/svg">
<path d="M100.625 67.0833H95.8335V14.3749C95.8335 13.1041 95.3287 11.8853 94.4301 10.9867C93.5314 10.0881 92.3127 9.58328 91.0418 9.58328H23.9585C22.6877 9.58328 21.4689 10.0881 20.5703 10.9867C19.6717 11.8853 19.1668 13.1041 19.1668 14.3749V67.0833H14.3752C13.1043 67.0833 11.8856 67.5881 10.9869 68.4867C10.0883 69.3853 9.5835 70.6041 9.5835 71.8749C9.5835 73.1458 10.0883 74.3646 10.9869 75.2632C11.8856 76.1618 13.1043 76.6666 14.3752 76.6666H52.7085V82.177L30.9064 96.552C30.012 97.1057 29.3246 97.9383 28.9503 98.9214C28.576 99.9045 28.5357 100.983 28.8354 101.992C29.1352 103 29.7584 103.882 30.609 104.501C31.4596 105.12 32.4902 105.442 33.5418 105.417C34.4839 105.427 35.4056 105.142 36.1772 104.602L52.7085 93.677V100.625C52.7085 101.896 53.2133 103.115 54.1119 104.013C55.0106 104.912 56.2293 105.417 57.5002 105.417C58.771 105.417 59.9898 104.912 60.8884 104.013C61.787 103.115 62.2918 101.896 62.2918 100.625V93.677L78.8231 104.602C79.5947 105.142 80.5165 105.427 81.4585 105.417C82.4822 105.409 83.4765 105.073 84.2957 104.459C85.1148 103.845 85.7157 102.985 86.0104 102.004C86.3051 101.024 86.278 99.9748 85.9331 99.0109C85.5882 98.047 84.9437 97.2188 84.0939 96.6479L62.2918 82.2729V76.6666H100.625C101.896 76.6666 103.115 76.1618 104.013 75.2632C104.912 74.3646 105.417 73.1458 105.417 71.8749C105.417 70.6041 104.912 69.3853 104.013 68.4867C103.115 67.5881 101.896 67.0833 100.625 67.0833ZM86.2502 67.0833H28.7502V19.1666H86.2502V67.0833ZM43.1252 57.4999C43.9144 57.4959 44.6904 57.2969 45.3842 56.9207C46.078 56.5446 46.6682 56.0028 47.1022 55.3437L53.4752 45.7604L58.8897 51.2229C59.3925 51.7287 60.0018 52.116 60.6733 52.3564C61.3448 52.5968 62.0614 52.6843 62.771 52.6124C63.4775 52.5349 64.1578 52.3012 64.7628 51.9283C65.3678 51.5554 65.8823 51.0525 66.2689 50.4562L75.8522 36.0812C76.4166 35.0291 76.5679 33.8042 76.2764 32.6464C75.9849 31.4887 75.2718 30.4814 74.2765 29.8219C73.2813 29.1624 72.0757 28.8982 70.8959 29.0811C69.7161 29.2639 68.647 29.8806 67.8981 30.8104L61.5252 40.3937L56.1106 34.9312C55.6078 34.4253 54.9985 34.0381 54.327 33.7977C53.6556 33.5573 52.9389 33.4698 52.2293 33.5416C51.5229 33.6191 50.8425 33.8528 50.2375 34.2258C49.6325 34.5987 49.1181 35.1015 48.7314 35.6979L39.1481 50.0729C38.4546 51.1293 38.2065 52.4168 38.4577 53.6553C38.709 54.8937 39.4394 55.9828 40.4897 56.6854C41.2614 57.2258 42.1831 57.5107 43.1252 57.4999Z" fill="#5F259F"/>
</svg>
