<svg width="34" height="34" viewBox="0 0 34 34" fill="none" xmlns="http://www.w3.org/2000/svg">
<path d="M30.3522 13.6536C30.2665 13.4056 30.1108 13.1877 29.9037 13.0264C29.6967 12.8651 29.4474 12.7674 29.1859 12.745L21.4695 11.6194L18.0114 4.60827C17.9004 4.37898 17.727 4.18562 17.5111 4.05032C17.2953 3.91502 17.0457 3.84326 16.7909 3.84326C16.5362 3.84326 16.2865 3.91502 16.0707 4.05032C15.8548 4.18562 15.6814 4.37898 15.5704 4.60827L12.1123 11.6059L4.39591 12.745C4.14492 12.7807 3.90896 12.886 3.7148 13.049C3.52064 13.212 3.37605 13.4262 3.29745 13.6672C3.2255 13.9027 3.21904 14.1534 3.27877 14.3923C3.3385 14.6312 3.46216 14.8494 3.63648 15.0233L9.23728 20.4478L7.88116 28.1506C7.83274 28.4049 7.85809 28.6677 7.95421 28.908C8.05033 29.1483 8.21321 29.356 8.42361 29.5068C8.62868 29.6534 8.87055 29.7399 9.12208 29.7567C9.3736 29.7734 9.62483 29.7198 9.84754 29.6017L16.7909 25.9808L23.7072 29.6152C23.8975 29.7226 24.1124 29.7787 24.331 29.778C24.6182 29.779 24.8984 29.6888 25.1311 29.5203C25.3415 29.3696 25.5044 29.1618 25.6005 28.9215C25.6966 28.6812 25.722 28.4184 25.6735 28.1642L24.3174 20.4614L29.9182 15.0369C30.114 14.871 30.2587 14.653 30.3355 14.4081C30.4124 14.1633 30.4181 13.9016 30.3522 13.6536ZM22.012 19.0781C21.853 19.232 21.734 19.4224 21.6654 19.6328C21.5969 19.8431 21.5808 20.0671 21.6187 20.2851L22.5951 25.9673L17.4961 23.255C17.2999 23.1505 17.081 23.0959 16.8587 23.0959C16.6364 23.0959 16.4175 23.1505 16.2213 23.255L11.1223 25.9673L12.0987 20.2851C12.1366 20.0671 12.1206 19.8431 12.052 19.6328C11.9835 19.4224 11.8645 19.232 11.7054 19.0781L7.63705 15.0098L13.3463 14.1825C13.566 14.152 13.7749 14.068 13.9546 13.9379C14.1343 13.8079 14.2793 13.6358 14.377 13.4367L16.7909 8.26981L19.3404 13.4502C19.4381 13.6493 19.5832 13.8215 19.7629 13.9515C19.9426 14.0815 20.1514 14.1655 20.3711 14.1961L26.0804 15.0233L22.012 19.0781Z" fill="#9F66DB"/>
</svg>
