<svg width="30" height="24" viewBox="0 0 30 24" fill="none" xmlns="http://www.w3.org/2000/svg">
<path d="M15.8874 14.8299L21.1874 10.5899C21.3045 10.497 21.3975 10.3864 21.461 10.2645C21.5245 10.1427 21.5571 10.012 21.5571 9.87994C21.5571 9.74793 21.5245 9.61723 21.461 9.49537C21.3975 9.37351 21.3045 9.26291 21.1874 9.16994C20.9532 8.98369 20.6364 8.87915 20.3061 8.87915C19.9759 8.87915 19.6591 8.98369 19.4249 9.16994L14.9999 12.7099L10.5749 9.16994C10.3407 8.98369 10.0239 8.87915 9.69363 8.87915C9.3634 8.87915 9.04658 8.98369 8.81238 9.16994C8.69653 9.26338 8.60487 9.3742 8.54267 9.49604C8.48046 9.61787 8.44893 9.74834 8.44988 9.87994C8.44893 10.0115 8.48046 10.142 8.54267 10.2638C8.60487 10.3857 8.69653 10.4965 8.81238 10.5899L14.1124 14.8299C14.2286 14.9237 14.3668 14.9981 14.5192 15.0488C14.6715 15.0996 14.8349 15.1257 14.9999 15.1257C15.1649 15.1257 15.3283 15.0996 15.4806 15.0488C15.6329 14.9981 15.7712 14.9237 15.8874 14.8299Z" fill="white"/>
</svg>
