<svg width="24" height="31" viewBox="0 0 24 31" fill="none" xmlns="http://www.w3.org/2000/svg">
<path d="M14.8302 14.6126L10.5902 9.31262C10.4972 9.19546 10.3866 9.10247 10.2648 9.039C10.1429 8.97554 10.0122 8.94287 9.88019 8.94287C9.74818 8.94287 9.61747 8.97554 9.49561 9.039C9.37375 9.10247 9.26315 9.19546 9.17019 9.31262C8.98394 9.54682 8.87939 9.86364 8.87939 10.1939C8.87939 10.5241 8.98394 10.8409 9.17019 11.0751L12.7102 15.5001L9.17019 19.9251C8.98394 20.1593 8.87939 20.4761 8.87939 20.8064C8.87939 21.1366 8.98394 21.4534 9.17019 21.6876C9.26363 21.8035 9.37444 21.8951 9.49628 21.9573C9.61812 22.0195 9.74858 22.0511 9.88019 22.0501C10.0118 22.0511 10.1423 22.0195 10.2641 21.9573C10.3859 21.8951 10.4967 21.8035 10.5902 21.6876L14.8302 16.3876C14.9239 16.2714 14.9983 16.1332 15.0491 15.9808C15.0998 15.8285 15.126 15.6651 15.126 15.5001C15.126 15.3351 15.0998 15.1717 15.0491 15.0194C14.9983 14.8671 14.9239 14.7288 14.8302 14.6126Z" fill="white"/>
</svg>
