<svg width="28" height="27" viewBox="0 0 28 27" fill="none" xmlns="http://www.w3.org/2000/svg">
<path d="M25.8593 13.6357H23.2198C21.762 13.6357 20.5803 14.8175 20.5803 16.2753V18.9148C20.5803 20.3726 21.762 21.5543 23.2198 21.5543C24.6776 21.5543 25.8593 20.3726 25.8593 18.9148V13.6357ZM25.8593 13.6357C25.8593 7.07573 20.5414 1.75781 13.9814 1.75781C7.42144 1.75781 2.10352 7.07573 2.10352 13.6357M2.10352 13.6357V18.9148C2.10352 20.3726 3.28528 21.5543 4.74305 21.5543C6.20083 21.5543 7.38259 20.3726 7.38259 18.9148V16.2753C7.38259 14.8175 6.20083 13.6357 4.74305 13.6357H2.10352Z" stroke="#FF8833" stroke-width="2.63953" stroke-linecap="round" stroke-linejoin="round"/>
<path d="M25.8595 16.2734V21.5525C25.8595 24.192 24.9796 25.5118 23.2199 25.5118C21.4602 25.5118 19.2606 25.5118 16.6211 25.5118" stroke="#FF8833" stroke-width="2.63953" stroke-linecap="round" stroke-linejoin="round"/>
</svg>
