<svg width="86" height="77" viewBox="0 0 86 77" fill="none" xmlns="http://www.w3.org/2000/svg">
<path d="M81.0951 39.35C81.0951 15.92 62.9152 0 42.6852 0C22.4552 0 4.28516 15.58 4.28516 39.6C1.72516 41.05 0.0151367 43.78 0.0151367 46.94V55.47C0.0151367 60.16 3.85517 64 8.54517 64C10.8952 64 12.8152 62.08 12.8152 59.73V39.2C12.8152 22.86 25.4051 8.56 41.7551 8.09C45.7551 7.97 49.7351 8.65 53.4651 10.1C57.1951 11.55 60.6051 13.73 63.4751 16.51C66.3451 19.3 68.6352 22.63 70.1952 26.31C71.7552 29.99 72.5552 33.96 72.5652 37.96V68.26H42.6852C40.3452 68.26 38.4252 70.18 38.4252 72.53C38.4252 74.88 40.3452 76.8 42.6852 76.8H72.5652C77.2552 76.8 81.0951 72.96 81.0951 68.26V63.05C83.6151 61.73 85.3651 59.12 85.3651 56.05V46.23C85.3651 43.24 83.6151 40.64 81.0951 39.32V39.35Z" fill="#797979"/>
<path d="M29.8853 46.94C32.2453 46.94 34.1553 45.03 34.1553 42.67C34.1553 40.31 32.2453 38.4 29.8853 38.4C27.5253 38.4 25.6152 40.31 25.6152 42.67C25.6152 45.03 27.5353 46.94 29.8853 46.94Z" fill="#797979"/>
<path d="M55.4951 46.94C57.8451 46.94 59.7551 45.03 59.7551 42.67C59.7551 40.31 57.8451 38.4 55.4951 38.4C53.1451 38.4 51.2251 40.31 51.2251 42.67C51.2251 45.03 53.1351 46.94 55.4951 46.94Z" fill="#797979"/>
<path d="M68.2951 34.2701C67.2751 28.2701 64.1651 22.8201 59.5251 18.9001C54.8751 14.9701 48.9851 12.8101 42.9051 12.8101C29.9751 12.8101 16.0651 23.5201 17.1751 40.3301C22.4351 38.1801 27.0852 34.7501 30.6952 30.3701C34.3152 25.9801 36.7951 20.7701 37.9051 15.2001C43.5051 26.4201 54.9751 34.1501 68.2951 34.2801V34.2701Z" fill="#797979"/>
</svg>
