<svg width="40" height="40" viewBox="0 0 40 40" fill="none" xmlns="http://www.w3.org/2000/svg">
<path d="M31.3172 11.9922H26.4482V10.3516C26.4482 9.04622 25.9352 7.79431 25.0221 6.87128C24.109 5.94824 22.8706 5.42969 21.5792 5.42969H18.3333C17.0419 5.42969 15.8035 5.94824 14.8904 6.87128C13.9773 7.79431 13.4643 9.04622 13.4643 10.3516V11.9922H8.5953C7.30396 11.9922 6.06552 12.5108 5.15241 13.4338C4.2393 14.3569 3.72632 15.6088 3.72632 16.9141V30.0392C3.72632 31.3446 4.2393 32.5965 5.15241 33.5195C6.06552 34.4425 7.30396 34.9611 8.5953 34.9611H31.3172C32.6085 34.9611 33.847 34.4425 34.7601 33.5195C35.6732 32.5965 36.1862 31.3446 36.1862 30.0392V16.9141C36.1862 15.6088 35.6732 14.3569 34.7601 13.4338C33.847 12.5108 32.6085 11.9922 31.3172 11.9922ZM16.7103 10.3516C16.7103 9.91647 16.8813 9.49916 17.1856 9.19149C17.49 8.88381 17.9028 8.71096 18.3333 8.71096H21.5792C22.0097 8.71096 22.4225 8.88381 22.7269 9.19149C23.0312 9.49916 23.2022 9.91647 23.2022 10.3516V11.9922H16.7103V10.3516ZM6.9723 16.9141C6.9723 16.479 7.1433 16.0617 7.44767 15.754C7.75204 15.4463 8.16485 15.2735 8.5953 15.2735H10.2183C10.2183 16.1437 9.8763 16.9783 9.26756 17.5937C8.65882 18.2091 7.83319 18.5548 6.9723 18.5548V16.9141ZM8.5953 31.6798C8.16485 31.6798 7.75204 31.507 7.44767 31.1993C7.1433 30.8916 6.9723 30.4743 6.9723 30.0392V28.3986C7.83319 28.3986 8.65882 28.7443 9.26756 29.3596C9.8763 29.975 10.2183 30.8096 10.2183 31.6798H8.5953ZM32.9402 30.0392C32.9402 30.4743 32.7692 30.8916 32.4648 31.1993C32.1605 31.507 31.7476 31.6798 31.3172 31.6798H29.6942C29.6942 30.8096 30.0362 29.975 30.6449 29.3596C31.2537 28.7443 32.0793 28.3986 32.9402 28.3986V30.0392ZM32.9402 25.1173C31.2184 25.1173 29.5672 25.8087 28.3497 27.0394C27.1322 28.2701 26.4482 29.9393 26.4482 31.6798H13.4643C13.4643 29.9393 12.7803 28.2701 11.5628 27.0394C10.3453 25.8087 8.69408 25.1173 6.9723 25.1173V21.836C8.69408 21.836 10.3453 21.1446 11.5628 19.9139C12.7803 18.6832 13.4643 17.014 13.4643 15.2735H26.4482C26.4482 17.014 27.1322 18.6832 28.3497 19.9139C29.5672 21.1446 31.2184 21.836 32.9402 21.836V25.1173ZM32.9402 18.5548C32.0793 18.5548 31.2537 18.2091 30.6449 17.5937C30.0362 16.9783 29.6942 16.1437 29.6942 15.2735H31.3172C31.7476 15.2735 32.1605 15.4463 32.4648 15.754C32.7692 16.0617 32.9402 16.479 32.9402 16.9141V18.5548ZM19.9562 18.5548C18.9933 18.5548 18.0519 18.8434 17.2512 19.3842C16.4505 19.9251 15.8264 20.6938 15.4579 21.5931C15.0894 22.4925 14.993 23.4821 15.1808 24.4369C15.3687 25.3916 15.8324 26.2686 16.5134 26.957C17.1943 27.6453 18.0619 28.1141 19.0064 28.304C19.9508 28.4939 20.9298 28.3964 21.8195 28.0239C22.7092 27.6514 23.4696 27.0205 24.0047 26.2111C24.5397 25.4017 24.8252 24.4501 24.8252 23.4767C24.8252 22.1713 24.3122 20.9194 23.3991 19.9964C22.486 19.0733 21.2476 18.5548 19.9562 18.5548V18.5548ZM19.9562 25.1173C19.6352 25.1173 19.3215 25.0211 19.0546 24.8408C18.7877 24.6605 18.5796 24.4043 18.4568 24.1045C18.334 23.8047 18.3018 23.4748 18.3644 23.1566C18.4271 22.8383 18.5816 22.546 18.8086 22.3166C19.0356 22.0871 19.3248 21.9309 19.6396 21.8676C19.9544 21.8042 20.2808 21.8367 20.5773 21.9609C20.8739 22.0851 21.1274 22.2954 21.3057 22.5652C21.4841 22.835 21.5792 23.1522 21.5792 23.4767C21.5792 23.9118 21.4082 24.3291 21.1039 24.6368C20.7995 24.9444 20.3867 25.1173 19.9562 25.1173Z" fill="#FF8833"/>
</svg>
