<svg width="272" height="325" viewBox="0 0 272 325" fill="none" xmlns="http://www.w3.org/2000/svg">
<path d="M124.937 403.53C44.0021 464.523 -71.0535 448.357 -132.046 367.421C-193.039 286.486 -176.873 171.431 -95.9378 110.438C-15.0026 49.4446 100.053 65.611 161.046 146.546C222.039 227.481 205.873 342.537 124.937 403.53ZM-25.17 204.344C-54.2424 226.253 -60.0494 267.581 -38.1404 296.654C-16.2314 325.726 25.0972 331.533 54.1695 309.624C83.2419 287.715 89.049 246.386 67.1399 217.314C45.2309 188.242 3.90237 182.435 -25.17 204.344Z" fill="#BF99E7"/>
<path d="M-28.8457 187.534C-12.9927 184.066 3.53264 185.377 18.6406 191.301C33.7486 197.225 46.7606 207.496 56.0312 220.816C65.3019 234.135 70.4147 249.904 70.7232 266.129C71.0317 282.354 66.5221 298.306 57.7645 311.968C49.0069 325.63 36.3948 336.388 21.523 342.882C6.65112 349.376 -9.81245 351.314 -25.7858 348.451C-41.7592 345.589 -56.525 338.054 -68.2159 326.799C-79.9068 315.544 -87.9979 301.076 -91.4658 285.223L-51.6808 276.52C-49.9342 284.504 -45.8592 291.791 -39.9711 297.459C-34.0831 303.128 -26.6464 306.923 -18.6015 308.364C-10.5565 309.806 -2.26477 308.83 5.22535 305.559C12.7155 302.289 19.0675 296.87 23.4782 289.99C27.8889 283.109 30.1602 275.075 30.0048 266.903C29.8494 258.731 27.2743 250.789 22.6052 244.081C17.9361 237.373 11.3827 232.2 3.77367 229.217C-3.83537 226.233 -12.1583 225.573 -20.1425 227.319L-28.8457 187.534Z" fill="#FFA666"/>
<path d="M7.70117 187.872C20.772 190.986 32.8782 197.262 42.9561 206.149C53.034 215.036 60.7751 226.262 65.4993 238.84C70.2236 251.419 71.7864 264.965 70.0504 278.289C68.3144 291.613 63.3327 304.307 55.5431 315.255L22.3594 291.645C26.2826 286.131 28.7916 279.738 29.6659 273.028C30.5402 266.317 29.7531 259.495 27.3738 253.159C24.9945 246.824 21.0957 241.17 16.02 236.694C10.9444 232.219 4.84715 229.058 -1.73592 227.49L7.70117 187.872Z" fill="#FF8833"/>
</svg>
