<svg width="160" height="272" viewBox="0 0 160 272" fill="none" xmlns="http://www.w3.org/2000/svg">
<path d="M68.4127 85.7912C106.196 58.8444 158.67 67.6291 185.617 105.412C212.563 143.196 203.779 195.67 165.996 222.616C128.212 249.563 75.7383 240.778 48.7916 202.995C21.8448 165.212 30.6295 112.738 68.4127 85.7912ZM138.536 184.114C155.055 172.333 158.896 149.391 147.115 132.872C135.333 116.353 112.391 112.512 95.8722 124.293C79.3531 136.075 75.5124 159.017 87.2937 175.536C99.075 192.055 122.017 195.896 138.536 184.114Z" fill="#FFA666"/>
<path d="M204.686 182.8C171.197 216.779 116.503 217.176 82.5241 183.687C48.5451 150.198 48.148 95.5039 81.6371 61.5249C115.126 27.5459 169.82 27.1488 203.799 60.6378C237.778 94.1269 238.175 148.821 204.686 182.8ZM117.681 97.0491C103.811 111.122 103.976 133.773 118.048 147.643C132.121 161.512 154.772 161.348 168.642 147.275C182.512 133.203 182.347 110.551 168.275 96.6817C154.202 82.8121 131.551 82.9766 117.681 97.0491Z" fill="#00B1BB"/>
<path d="M204.686 182.8C171.197 216.779 116.503 217.176 82.5241 183.687C48.5451 150.198 48.148 95.5039 81.6371 61.5249C115.126 27.5459 169.82 27.1488 203.799 60.6378C237.778 94.1269 238.175 148.821 204.686 182.8ZM92.8136 72.5403C65.4082 100.347 65.7332 145.105 93.5395 172.51C121.346 199.916 166.104 199.591 193.509 171.784C220.915 143.978 220.59 99.2198 192.783 71.8144C164.977 44.4089 120.219 44.7339 92.8136 72.5403Z" fill="#1ACBD5"/>
</svg>
