<svg width="86" height="91" viewBox="0 0 86 91" fill="none" xmlns="http://www.w3.org/2000/svg">
<path d="M66.2653 40.02V37.37C66.2653 22.81 54.5153 11 40.0153 11C25.5153 11 13.7653 22.81 13.7653 37.37V40.02C13.7653 43.2 12.8353 46.32 11.0753 48.96L6.76526 55.45C2.83526 61.38 5.8353 69.44 12.6753 71.31C30.5753 76.21 49.4552 76.21 67.3552 71.31C74.1952 69.43 77.1953 61.38 73.2653 55.45L68.9552 48.96C67.1952 46.31 66.2653 43.2 66.2653 40.02Z" stroke="#797979" stroke-width="9"/>
<path d="M23.0151 75C25.4851 81.41 32.1651 86 40.0151 86C47.8651 86 54.5451 81.41 57.0151 75" stroke="#797979" stroke-width="9" stroke-linecap="round"/>
<path d="M75.9751 19.92C81.4759 19.92 85.9352 15.4608 85.9352 9.96001C85.9352 4.45925 81.4759 0 75.9751 0C70.4743 0 66.0151 4.45925 66.0151 9.96001C66.0151 15.4608 70.4743 19.92 75.9751 19.92Z" fill="#D83F3F"/>
</svg>
