<svg width="80" height="85" viewBox="0 0 80 85" fill="none" xmlns="http://www.w3.org/2000/svg">
<path d="M66.2648 34.02V31.37C66.2648 16.81 54.5148 5 40.0148 5C25.5148 5 13.7648 16.81 13.7648 31.37V34.02C13.7648 37.2 12.8349 40.32 11.0749 42.96L6.7648 49.45C2.8348 55.38 5.83471 63.44 12.6747 65.31C30.5747 70.21 49.4549 70.21 67.3549 65.31C74.1949 63.43 77.1948 55.38 73.2648 49.45L68.9547 42.96C67.1947 40.31 66.2648 37.2 66.2648 34.02Z" stroke="#797979" stroke-width="9"/>
<path d="M23.0151 69C25.4851 75.41 32.1651 80 40.0151 80C47.8651 80 54.5451 75.41 57.0151 69" stroke="#797979" stroke-width="9" stroke-linecap="round"/>
</svg>
