<svg width="90" height="89" viewBox="0 0 90 89" fill="none" xmlns="http://www.w3.org/2000/svg">
<path d="M31.3851 10.8499C32.0251 9.32994 33.1251 8.01994 34.5251 7.09994C35.9351 6.17994 37.6052 5.68994 39.3052 5.68994C41.0052 5.68994 42.6652 6.17994 44.0752 7.09994C45.4852 8.01994 46.5751 9.31994 47.2151 10.8499C53.5251 12.5299 59.0952 16.1599 63.0552 21.1899C67.0252 26.2199 69.1752 32.3699 69.1752 38.6999V58.0799L76.9951 69.4199C77.4251 70.0399 77.6651 70.7599 77.7051 71.5099C77.7451 72.2599 77.5751 72.9999 77.2051 73.6599C76.8451 74.3199 76.2951 74.8699 75.6351 75.2499C74.9751 75.6299 74.2152 75.8399 73.4452 75.8399H54.0851C53.5751 79.2799 51.7951 82.4199 49.0851 84.6899C46.3651 86.9599 42.8952 88.2099 39.3052 88.2099C35.7152 88.2099 32.2351 86.9599 29.5251 84.6899C26.8051 82.4199 25.0251 79.2699 24.5151 75.8399H5.15514C4.38514 75.8399 3.62508 75.6399 2.96508 75.2499C2.30508 74.8699 1.76513 74.3199 1.39513 73.6599C1.03513 72.9999 0.855133 72.2599 0.895133 71.5099C0.935133 70.7599 1.17509 70.0399 1.60509 69.4199L9.42516 58.0799V38.6999C9.42516 25.3999 18.7351 14.1999 31.3851 10.8499ZM33.2651 75.8299C33.7051 77.0399 34.5251 78.0799 35.6051 78.8199C36.6851 79.5599 37.9752 79.9599 39.3052 79.9599C40.6352 79.9599 41.9151 79.5599 43.0051 78.8199C44.0851 78.0799 44.8951 77.0399 45.3451 75.8299H33.2651ZM39.3052 18.0799C33.6452 18.0799 28.2151 20.2499 24.2151 24.1199C20.2151 27.9899 17.9651 33.2299 17.9651 38.6999V59.3299C17.9651 60.1399 17.7151 60.9399 17.2451 61.6199L13.1351 67.5799H65.4651L61.3551 61.6199C60.8851 60.9399 60.6351 60.1499 60.6351 59.3299V38.6999C60.6351 33.2299 58.3951 27.9799 54.3851 24.1199C50.3851 20.2499 44.9652 18.0799 39.3052 18.0799Z" fill="#797979"/>
<path d="M79.1353 19.92C84.636 19.92 89.0952 15.4608 89.0952 9.96C89.0952 4.45924 84.636 0 79.1353 0C73.6345 0 69.1753 4.45924 69.1753 9.96C69.1753 15.4608 73.6345 19.92 79.1353 19.92Z" fill="#D83F3F"/>
</svg>
