<svg width="97" height="89" viewBox="0 0 97 89" fill="none" xmlns="http://www.w3.org/2000/svg">
<path d="M38.6349 7.23997C39.3049 5.64997 40.4648 4.27997 41.9548 3.31997C43.4448 2.35997 45.2048 1.84998 46.9948 1.84998C48.7848 1.84998 50.5549 2.35997 52.0449 3.31997C53.5349 4.27997 54.6848 5.63997 55.3648 7.23997C62.0348 8.98997 67.9148 12.79 72.1148 18.06C76.3048 23.32 78.5749 29.75 78.5749 36.37V56.63L86.8448 68.48C87.2948 69.13 87.5548 69.88 87.5948 70.66C87.6348 71.44 87.4549 72.22 87.0649 72.9C86.6849 73.59 86.1049 74.16 85.4049 74.57C84.7049 74.97 83.9048 75.18 83.0848 75.18H62.6349C62.0849 78.77 60.2048 82.06 57.3348 84.44C54.4648 86.82 50.7948 88.12 46.9948 88.12C43.1948 88.12 39.5349 86.81 36.6649 84.44C33.7849 82.06 31.9148 78.78 31.3648 75.18H10.9049C10.0949 75.18 9.29481 74.97 8.58481 74.57C7.88481 74.17 7.3149 73.59 6.9349 72.9C6.5449 72.21 6.36488 71.44 6.40488 70.66C6.44488 69.88 6.70488 69.12 7.15488 68.48L15.4249 56.63V36.37C15.4249 22.46 25.2549 10.75 38.6349 7.24998V7.23997ZM40.6248 75.19C41.0848 76.45 41.9448 77.55 43.0948 78.32C44.2348 79.09 45.6049 79.51 47.0049 79.51C48.4049 79.51 49.7649 79.09 50.9049 78.32C52.0549 77.55 52.9149 76.45 53.3849 75.19H40.6248ZM46.9948 14.8C41.0148 14.8 35.2749 17.07 31.0449 21.12C26.8149 25.16 24.4449 30.65 24.4449 36.37V57.94C24.4449 58.79 24.1749 59.63 23.6849 60.33L19.3448 66.56H74.6549L70.3049 60.33C69.8149 59.62 69.5549 58.79 69.5549 57.94V36.37C69.5549 30.65 67.1749 25.16 62.9449 21.12C58.7149 17.08 52.9848 14.8 46.9948 14.8Z" fill="#797979"/>
<path d="M72.375 1.83997C79.985 3.52997 95.215 11.99 95.215 32.29" stroke="#797979" stroke-width="2" stroke-linecap="round"/>
<path d="M24.1652 1.83997C16.5452 3.52997 1.3252 11.99 1.3252 32.29" stroke="#797979" stroke-width="2" stroke-linecap="round"/>
</svg>
