<svg width="96" height="91" viewBox="0 0 96 91" fill="none" xmlns="http://www.w3.org/2000/svg">
<path d="M72.0649 1C79.6849 2.69 94.9049 11.15 94.9049 31.45" stroke="#797979" stroke-width="2" stroke-linecap="round"/>
<path d="M23.8551 1C16.2451 2.69 1.01514 11.15 1.01514 31.45" stroke="#797979" stroke-width="2" stroke-linecap="round"/>
<path d="M74.2653 40.02V37.37C74.2653 22.81 62.5153 11 48.0153 11C33.5153 11 21.7653 22.81 21.7653 37.37V40.02C21.7653 43.2 20.8353 46.32 19.0753 48.96L14.7653 55.45C10.8353 61.38 13.8353 69.44 20.6753 71.31C38.5753 76.21 57.4552 76.21 75.3552 71.31C82.1952 69.43 85.1953 61.38 81.2653 55.45L76.9552 48.96C75.1952 46.31 74.2653 43.2 74.2653 40.02Z" stroke="#797979" stroke-width="9"/>
<path d="M31.0151 75C33.4851 81.41 40.1651 86 48.0151 86C55.8651 86 62.5451 81.41 65.0151 75" stroke="#797979" stroke-width="9" stroke-linecap="round"/>
</svg>
