<svg width="34" height="34" viewBox="0 0 34 34" fill="none" xmlns="http://www.w3.org/2000/svg">
<path d="M23.7804 15.7982H22.4242C22.0646 15.7982 21.7196 15.9411 21.4653 16.1954C21.211 16.4498 21.0681 16.7947 21.0681 17.1544C21.0681 17.514 21.211 17.859 21.4653 18.1133C21.7196 18.3676 22.0646 18.5105 22.4242 18.5105H23.7804C24.14 18.5105 24.485 18.3676 24.7393 18.1133C24.9936 17.859 25.1365 17.514 25.1365 17.1544C25.1365 16.7947 24.9936 16.4498 24.7393 16.1954C24.485 15.9411 24.14 15.7982 23.7804 15.7982ZM23.7804 21.2227H22.4242C22.0646 21.2227 21.7196 21.3656 21.4653 21.6199C21.211 21.8743 21.0681 22.2192 21.0681 22.5789C21.0681 22.9385 21.211 23.2835 21.4653 23.5378C21.7196 23.7921 22.0646 23.935 22.4242 23.935H23.7804C24.14 23.935 24.485 23.7921 24.7393 23.5378C24.9936 23.2835 25.1365 22.9385 25.1365 22.5789C25.1365 22.2192 24.9936 21.8743 24.7393 21.6199C24.485 21.3656 24.14 21.2227 23.7804 21.2227ZM15.6436 13.086H23.7804C24.14 13.086 24.485 12.9431 24.7393 12.6888C24.9936 12.4345 25.1365 12.0895 25.1365 11.7299C25.1365 11.3702 24.9936 11.0252 24.7393 10.7709C24.485 10.5166 24.14 10.3737 23.7804 10.3737H15.6436C15.2839 10.3737 14.939 10.5166 14.6847 10.7709C14.4304 11.0252 14.2875 11.3702 14.2875 11.7299C14.2875 12.0895 14.4304 12.4345 14.6847 12.6888C14.939 12.9431 15.2839 13.086 15.6436 13.086V13.086ZM29.2049 4.94922H10.2191C9.85944 4.94922 9.51451 5.0921 9.26018 5.34642C9.00586 5.60074 8.86298 5.94568 8.86298 6.30535V10.3737H4.7946C4.43494 10.3737 4.09 10.5166 3.83568 10.7709C3.58135 11.0252 3.43848 11.3702 3.43848 11.7299V25.2911C3.43848 26.3701 3.86711 27.4049 4.63008 28.1679C5.39305 28.9309 6.42785 29.3595 7.50686 29.3595H25.1365C26.5752 29.3595 27.9549 28.788 28.9722 27.7707C29.9895 26.7534 30.561 25.3737 30.561 23.935V6.30535C30.561 5.94568 30.4181 5.60074 30.1638 5.34642C29.9095 5.0921 29.5645 4.94922 29.2049 4.94922V4.94922ZM8.86298 25.2911C8.86298 25.6508 8.72011 25.9957 8.46578 26.25C8.21146 26.5044 7.86652 26.6472 7.50686 26.6472C7.14719 26.6472 6.80225 26.5044 6.54793 26.25C6.29361 25.9957 6.15073 25.6508 6.15073 25.2911V13.086H8.86298V25.2911ZM27.8488 23.935C27.8488 24.6543 27.563 25.3442 27.0544 25.8528C26.5457 26.3615 25.8558 26.6472 25.1365 26.6472H11.3311C11.489 26.2124 11.5716 25.7538 11.5752 25.2911V7.66147H27.8488V23.935ZM15.6436 18.5105H16.9997C17.3594 18.5105 17.7043 18.3676 17.9587 18.1133C18.213 17.859 18.3559 17.514 18.3559 17.1544C18.3559 16.7947 18.213 16.4498 17.9587 16.1954C17.7043 15.9411 17.3594 15.7982 16.9997 15.7982H15.6436C15.2839 15.7982 14.939 15.9411 14.6847 16.1954C14.4304 16.4498 14.2875 16.7947 14.2875 17.1544C14.2875 17.514 14.4304 17.859 14.6847 18.1133C14.939 18.3676 15.2839 18.5105 15.6436 18.5105V18.5105ZM15.6436 23.935H16.9997C17.3594 23.935 17.7043 23.7921 17.9587 23.5378C18.213 23.2835 18.3559 22.9385 18.3559 22.5789C18.3559 22.2192 18.213 21.8743 17.9587 21.6199C17.7043 21.3656 17.3594 21.2227 16.9997 21.2227H15.6436C15.2839 21.2227 14.939 21.3656 14.6847 21.6199C14.4304 21.8743 14.2875 22.2192 14.2875 22.5789C14.2875 22.9385 14.4304 23.2835 14.6847 23.5378C14.939 23.7921 15.2839 23.935 15.6436 23.935V23.935Z" fill="#9F66DB"/>
</svg>
