<svg width="90" height="85" viewBox="0 0 90 85" fill="none" xmlns="http://www.w3.org/2000/svg">
<path d="M89.1353 2.23999C89.1353 1.13999 88.2453 0.23999 87.1353 0.23999H2.84521C1.73521 0.23999 0.845215 1.13999 0.845215 2.23999V24.73C0.845215 25.83 1.73521 26.73 2.84521 26.73H3.25525C4.36525 26.73 5.25525 27.63 5.25525 28.73V75.29C5.25525 80.17 9.2052 84.12 14.0852 84.12H75.8953C80.7653 84.12 84.7252 80.17 84.7252 75.29V28.73C84.7252 27.63 85.6152 26.73 86.7252 26.73H87.1353C88.2453 26.73 89.1353 25.83 89.1353 24.73V2.23999ZM9.67529 11.07C9.67529 9.96999 10.5653 9.06999 11.6753 9.06999H78.3053C79.4153 9.06999 80.3053 9.96999 80.3053 11.07V15.9C80.3053 17 79.4153 17.9 78.3053 17.9H11.6753C10.5653 17.9 9.67529 17 9.67529 15.9V11.07ZM75.8953 73.29C75.8953 74.39 74.9953 75.29 73.8953 75.29H16.0852C14.9852 75.29 14.0852 74.39 14.0852 73.29V28.73C14.0852 27.63 14.9852 26.73 16.0852 26.73H73.8953C74.9953 26.73 75.8953 27.63 75.8953 28.73V73.29ZM31.9652 37.54C31.7252 36.46 32.6452 35.56 33.7452 35.56H56.2352C57.3352 35.56 58.2553 36.47 58.0153 37.54C57.1153 41.46 53.6053 44.39 49.4053 44.39H40.5753C36.3753 44.39 32.8652 41.47 31.9652 37.54Z" fill="#797979"/>
</svg>
