<svg width="26" height="26" viewBox="0 0 26 26" fill="none" xmlns="http://www.w3.org/2000/svg">
<path d="M17.7663 6.5772C17.0468 6.57768 16.3496 6.82744 15.7935 7.28399C15.2374 7.74053 14.8566 8.37567 14.7159 9.08132C14.5753 9.78698 14.6835 10.5196 15.0221 11.1544C15.3607 11.7893 15.9088 12.2873 16.5732 12.5636C16.4152 12.9422 16.1486 13.2655 15.807 13.4926C15.4654 13.7198 15.0641 13.8406 14.6538 13.8397H10.5038C9.77242 13.8428 9.05546 14.0435 8.42882 14.4207V8.46545C9.12105 8.22071 9.70448 7.73913 10.076 7.10583C10.4475 6.47253 10.5831 5.72828 10.459 5.00463C10.3348 4.28098 9.95885 3.62451 9.39749 3.15127C8.83613 2.67802 8.12554 2.41846 7.39132 2.41846C6.65709 2.41846 5.9465 2.67802 5.38514 3.15127C4.82378 3.62451 4.4478 4.28098 4.32364 5.00463C4.19948 5.72828 4.33514 6.47253 4.70665 7.10583C5.07815 7.73913 5.66158 8.22071 6.35382 8.46545V17.1389C5.67009 17.3848 5.09394 17.8622 4.7252 18.4883C4.35646 19.1143 4.21838 19.8497 4.33489 20.5669C4.4514 21.2841 4.81515 21.9379 5.3631 22.4151C5.91106 22.8922 6.60869 23.1627 7.33509 23.1795C8.06149 23.1963 8.77088 22.9584 9.34033 22.5071C9.90978 22.0558 10.3034 21.4195 10.453 20.7085C10.6025 19.9975 10.4986 19.2565 10.1593 18.614C9.81988 17.9716 9.26643 17.4681 8.59481 17.1908C8.75208 16.8138 9.01711 16.4916 9.35671 16.2646C9.6963 16.0376 10.0953 15.9159 10.5038 15.9147H14.6538C15.603 15.9145 16.5233 15.589 17.2615 14.9924C17.9997 14.3958 18.5111 13.5642 18.7104 12.6362C19.4041 12.4005 19.9924 11.9277 20.3717 11.301C20.7511 10.6743 20.8973 9.93382 20.7845 9.20996C20.6717 8.4861 20.3072 7.82522 19.7551 7.34365C19.203 6.86207 18.4988 6.59067 17.7663 6.5772V6.5772ZM7.39132 4.5022C7.59651 4.5022 7.7971 4.56305 7.96772 4.67705C8.13834 4.79105 8.27131 4.95309 8.34984 5.14267C8.42837 5.33224 8.44891 5.54085 8.40888 5.74211C8.36885 5.94336 8.27004 6.12823 8.12494 6.27332C7.97984 6.41842 7.79498 6.51723 7.59372 6.55726C7.39247 6.5973 7.18386 6.57675 6.99428 6.49822C6.8047 6.4197 6.64267 6.28672 6.52867 6.1161C6.41466 5.94549 6.35382 5.7449 6.35382 5.5397C6.35382 5.26454 6.46312 5.00065 6.65769 4.80608C6.85226 4.61151 7.11615 4.5022 7.39132 4.5022ZM7.39132 21.1022C7.18612 21.1022 6.98553 21.0414 6.81491 20.9273C6.6443 20.8133 6.51132 20.6513 6.43279 20.4617C6.35426 20.2722 6.33372 20.0635 6.37375 19.8623C6.41378 19.661 6.5126 19.4762 6.65769 19.3311C6.80279 19.186 6.98765 19.0872 7.18891 19.0471C7.39016 19.0071 7.59877 19.0276 7.78835 19.1062C7.97793 19.1847 8.13996 19.3177 8.25396 19.4883C8.36797 19.6589 8.42882 19.8595 8.42882 20.0647C8.42882 20.3399 8.31951 20.6038 8.12494 20.7983C7.93037 20.9929 7.66648 21.1022 7.39132 21.1022ZM17.7663 10.7272C17.5611 10.7272 17.3605 10.6664 17.1899 10.5523C17.0193 10.4383 16.8863 10.2763 16.8078 10.0867C16.7293 9.89716 16.7087 9.68855 16.7488 9.48729C16.7888 9.28604 16.8876 9.10117 17.0327 8.95608C17.1778 8.81098 17.3627 8.71217 17.5639 8.67214C17.7652 8.6321 17.9738 8.65265 18.1633 8.73117C18.3529 8.8097 18.515 8.94268 18.629 9.1133C18.743 9.28391 18.8038 9.4845 18.8038 9.6897C18.8038 9.96486 18.6945 10.2288 18.4999 10.4233C18.3054 10.6179 18.0415 10.7272 17.7663 10.7272Z" fill="white"/>
</svg>
