<svg width="33" height="34" viewBox="0 0 33 34" fill="none" xmlns="http://www.w3.org/2000/svg">
<path d="M19.225 15.4348H17.8687V10.0098H20.5812C20.9409 10.0098 21.2859 10.1527 21.5403 10.407C21.7946 10.6613 21.9375 11.0063 21.9375 11.366C21.9375 11.7257 22.0804 12.0707 22.3347 12.325C22.5891 12.5794 22.934 12.7223 23.2937 12.7223C23.6534 12.7223 23.9984 12.5794 24.2528 12.325C24.5071 12.0707 24.65 11.7257 24.65 11.366C24.65 10.2869 24.2213 9.25201 23.4583 8.48898C22.6953 7.72594 21.6603 7.29727 20.5812 7.29727H17.8687V4.58477C17.8687 4.22507 17.7259 3.8801 17.4715 3.62575C17.2172 3.37141 16.8722 3.22852 16.5125 3.22852C16.1528 3.22852 15.8078 3.37141 15.5535 3.62575C15.2991 3.8801 15.1562 4.22507 15.1562 4.58477V7.29727H13.8C12.3612 7.29727 10.9813 7.86883 9.96395 8.88621C8.94656 9.9036 8.375 11.2835 8.375 12.7223C8.375 14.1611 8.94656 15.5409 9.96395 16.5583C10.9813 17.5757 12.3612 18.1473 13.8 18.1473H15.1562V23.5723H12.4437C12.084 23.5723 11.7391 23.4294 11.4847 23.175C11.2304 22.9207 11.0875 22.5757 11.0875 22.216C11.0875 21.8563 10.9446 21.5113 10.6903 21.257C10.4359 21.0027 10.0909 20.8598 9.73125 20.8598C9.37155 20.8598 9.02658 21.0027 8.77224 21.257C8.51789 21.5113 8.375 21.8563 8.375 22.216C8.375 23.2951 8.80367 24.33 9.56671 25.0931C10.3297 25.8561 11.3647 26.2848 12.4437 26.2848H15.1562V28.9973C15.1562 29.357 15.2991 29.7019 15.5535 29.9563C15.8078 30.2106 16.1528 30.3535 16.5125 30.3535C16.8722 30.3535 17.2172 30.2106 17.4715 29.9563C17.7259 29.7019 17.8687 29.357 17.8687 28.9973V26.2848H19.225C20.6638 26.2848 22.0437 25.7132 23.0611 24.6958C24.0784 23.6784 24.65 22.2986 24.65 20.8598C24.65 19.421 24.0784 18.0411 23.0611 17.0237C22.0437 16.0063 20.6638 15.4348 19.225 15.4348ZM15.1562 15.4348H13.8C13.0806 15.4348 12.3907 15.149 11.882 14.6403C11.3733 14.1316 11.0875 13.4417 11.0875 12.7223C11.0875 12.0029 11.3733 11.3129 11.882 10.8042C12.3907 10.2955 13.0806 10.0098 13.8 10.0098H15.1562V15.4348ZM19.225 23.5723H17.8687V18.1473H19.225C19.9444 18.1473 20.6343 18.433 21.143 18.9417C21.6517 19.4504 21.9375 20.1404 21.9375 20.8598C21.9375 21.5792 21.6517 22.2691 21.143 22.7778C20.6343 23.2865 19.9444 23.5723 19.225 23.5723Z" fill="#FFA666"/>
</svg>
