<svg width="33" height="33" viewBox="0 0 33 33" fill="none" xmlns="http://www.w3.org/2000/svg">
<g clip-path="url(#clip0_3590_60235)">
<path d="M31.2133 28.5325V25.82C31.2124 24.618 30.8123 23.4503 30.0759 22.5003C29.3395 21.5503 28.3084 20.8718 27.1445 20.5713" stroke="#FFA666" stroke-width="2" stroke-linecap="round" stroke-linejoin="round"/>
<path d="M23.075 28.532V25.8195C23.075 24.3807 22.5034 23.0009 21.4861 21.9835C20.4687 20.9661 19.0888 20.3945 17.65 20.3945H6.8C5.3612 20.3945 3.98133 20.9661 2.96395 21.9835C1.94656 23.0009 1.375 24.3807 1.375 25.8195V28.532" stroke="#FFA666" stroke-width="2" stroke-linecap="round" stroke-linejoin="round"/>
<path d="M21.7188 4.2959C22.8857 4.59468 23.92 5.27335 24.6586 6.22491C25.3972 7.17646 25.7981 8.34679 25.7981 9.55137C25.7981 10.7559 25.3972 11.9263 24.6586 12.8778C23.92 13.8294 22.8857 14.5081 21.7188 14.8068" stroke="#FFA666" stroke-width="2" stroke-linecap="round" stroke-linejoin="round"/>
<path d="M12.2258 14.9691C15.2219 14.9691 17.6508 12.5403 17.6508 9.54414C17.6508 6.548 15.2219 4.11914 12.2258 4.11914C9.22964 4.11914 6.80078 6.548 6.80078 9.54414C6.80078 12.5403 9.22964 14.9691 12.2258 14.9691Z" stroke="#FFA666" stroke-width="2" stroke-linecap="round" stroke-linejoin="round"/>
</g>
<defs>
<clipPath id="clip0_3590_60235">
<rect width="32.55" height="32.55" fill="white" transform="translate(0.0195312 0.0507812)"/>
</clipPath>
</defs>
</svg>
