<svg width="33" height="33" viewBox="0 0 33 33" fill="none" xmlns="http://www.w3.org/2000/svg">
<path d="M29.9656 23.2967H2.84062C2.48093 23.2967 2.13596 23.4396 1.88161 23.6939C1.62727 23.9483 1.48438 24.2932 1.48438 24.6529C1.48438 25.0126 1.62727 25.3576 1.88161 25.6119C2.13596 25.8663 2.48093 26.0092 2.84062 26.0092H29.9656C30.3253 26.0092 30.6703 25.8663 30.9246 25.6119C31.179 25.3576 31.3219 25.0126 31.3219 24.6529C31.3219 24.2932 31.179 23.9483 30.9246 23.6939C30.6703 23.4396 30.3253 23.2967 29.9656 23.2967ZM29.9656 28.7217H2.84062C2.48093 28.7217 2.13596 28.8646 1.88161 29.1189C1.62727 29.3733 1.48438 29.7182 1.48438 30.0779C1.48438 30.4376 1.62727 30.7826 1.88161 31.0369C2.13596 31.2913 2.48093 31.4342 2.84062 31.4342H29.9656C30.3253 31.4342 30.6703 31.2913 30.9246 31.0369C31.179 30.7826 31.3219 30.4376 31.3219 30.0779C31.3219 29.7182 31.179 29.3733 30.9246 29.1189C30.6703 28.8646 30.3253 28.7217 29.9656 28.7217ZM8.26562 9.73418C7.99738 9.73418 7.73517 9.81372 7.51213 9.96275C7.2891 10.1118 7.11526 10.3236 7.01261 10.5714C6.90996 10.8192 6.8831 11.0919 6.93543 11.355C6.98777 11.6181 7.11694 11.8598 7.30661 12.0494C7.49629 12.2391 7.73795 12.3683 8.00103 12.4206C8.26412 12.473 8.53682 12.4461 8.78464 12.3434C9.03246 12.2408 9.24428 12.067 9.39331 11.8439C9.54233 11.6209 9.62187 11.3587 9.62187 11.0904C9.62187 10.7307 9.47898 10.3858 9.22464 10.1314C8.97029 9.87707 8.62532 9.73418 8.26562 9.73418ZM27.2531 1.59668H5.55312C4.47403 1.59668 3.43912 2.02535 2.67608 2.78839C1.91305 3.55143 1.48438 4.58633 1.48438 5.66543V16.5154C1.48438 17.5945 1.91305 18.6294 2.67608 19.3925C3.43912 20.1555 4.47403 20.5842 5.55312 20.5842H27.2531C28.3322 20.5842 29.3671 20.1555 30.1302 19.3925C30.8932 18.6294 31.3219 17.5945 31.3219 16.5154V5.66543C31.3219 4.58633 30.8932 3.55143 30.1302 2.78839C29.3671 2.02535 28.3322 1.59668 27.2531 1.59668ZM28.6094 16.5154C28.6094 16.8751 28.4665 17.2201 28.2121 17.4744C27.9578 17.7288 27.6128 17.8717 27.2531 17.8717H5.55312C5.19342 17.8717 4.84846 17.7288 4.59411 17.4744C4.33977 17.2201 4.19687 16.8751 4.19687 16.5154V5.66543C4.19687 5.30573 4.33977 4.96076 4.59411 4.70642C4.84846 4.45207 5.19342 4.30918 5.55312 4.30918H27.2531C27.6128 4.30918 27.9578 4.45207 28.2121 4.70642C28.4665 4.96076 28.6094 5.30573 28.6094 5.66543V16.5154ZM16.4031 7.02168C15.5984 7.02168 14.8118 7.26031 14.1426 7.70739C13.4735 8.15447 12.952 8.78992 12.6441 9.53339C12.3361 10.2769 12.2556 11.0949 12.4126 11.8842C12.5695 12.6735 12.9571 13.3984 13.5261 13.9675C14.0951 14.5365 14.8201 14.924 15.6094 15.081C16.3986 15.238 17.2167 15.1574 17.9602 14.8495C18.7036 14.5415 19.3391 14.02 19.7862 13.3509C20.2332 12.6818 20.4719 11.8952 20.4719 11.0904C20.4719 10.0113 20.0432 8.97643 19.2802 8.21339C18.5171 7.45035 17.4822 7.02168 16.4031 7.02168ZM16.4031 12.4467C16.1349 12.4467 15.8727 12.3671 15.6496 12.2181C15.4266 12.0691 15.2528 11.8573 15.1501 11.6094C15.0475 11.3616 15.0206 11.0889 15.0729 10.8258C15.1253 10.5628 15.2544 10.3211 15.4441 10.1314C15.6338 9.94174 15.8754 9.81257 16.1385 9.76024C16.4016 9.70791 16.6743 9.73477 16.9221 9.83742C17.17 9.94007 17.3818 10.1139 17.5308 10.3369C17.6798 10.56 17.7594 10.8222 17.7594 11.0904C17.7594 11.4501 17.6165 11.7951 17.3621 12.0494C17.1078 12.3038 16.7628 12.4467 16.4031 12.4467ZM24.5406 9.73418C24.2724 9.73418 24.0102 9.81372 23.7871 9.96275C23.5641 10.1118 23.3903 10.3236 23.2876 10.5714C23.185 10.8192 23.1581 11.0919 23.2104 11.355C23.2628 11.6181 23.3919 11.8598 23.5816 12.0494C23.7713 12.2391 24.0129 12.3683 24.276 12.4206C24.5391 12.473 24.8118 12.4461 25.0596 12.3434C25.3075 12.2408 25.5193 12.067 25.6683 11.8439C25.8173 11.6209 25.8969 11.3587 25.8969 11.0904C25.8969 10.7307 25.754 10.3858 25.4996 10.1314C25.2453 9.87707 24.9003 9.73418 24.5406 9.73418Z" fill="#FFA666"/>
</svg>
