<svg width="33" height="34" viewBox="0 0 33 34" fill="none" xmlns="http://www.w3.org/2000/svg">
<path d="M30.2272 13.7684C30.1415 13.5203 29.9858 13.3024 29.7787 13.1412C29.5717 12.9799 29.3224 12.8821 29.0609 12.8598L21.3445 11.7342L17.8864 4.72301C17.7754 4.49373 17.602 4.30036 17.3861 4.16507C17.1703 4.02977 16.9207 3.95801 16.6659 3.95801C16.4112 3.95801 16.1615 4.02977 15.9457 4.16507C15.7298 4.30036 15.5564 4.49373 15.4454 4.72301L11.9873 11.7206L4.27091 12.8598C4.01992 12.8954 3.78396 13.0008 3.5898 13.1638C3.39564 13.3268 3.25105 13.5409 3.17245 13.7819C3.1005 14.0175 3.09404 14.2681 3.15377 14.507C3.2135 14.746 3.33716 14.9641 3.51148 15.1381L9.11228 20.5626L7.75616 28.2654C7.70774 28.5196 7.73309 28.7824 7.82921 29.0227C7.92533 29.263 8.08821 29.4708 8.29861 29.6215C8.50368 29.7681 8.74555 29.8546 8.99708 29.8714C9.2486 29.8882 9.49983 29.8345 9.72254 29.7164L16.6659 26.0956L23.5822 29.73C23.7725 29.8374 23.9874 29.8934 24.206 29.8927C24.4932 29.8937 24.7734 29.8035 25.0061 29.6351C25.2165 29.4843 25.3794 29.2766 25.4755 29.0363C25.5716 28.796 25.597 28.5332 25.5485 28.2789L24.1924 20.5761L29.7932 15.1516C29.989 14.9857 30.1337 14.7677 30.2105 14.5229C30.2874 14.278 30.2931 14.0164 30.2272 13.7684ZM21.887 19.1929C21.728 19.3467 21.609 19.5371 21.5404 19.7475C21.4719 19.9579 21.4558 20.1818 21.4937 20.3998L22.4701 26.082L17.3711 23.3698C17.1749 23.2653 16.956 23.2106 16.7337 23.2106C16.5114 23.2106 16.2925 23.2653 16.0963 23.3698L10.9973 26.082L11.9737 20.3998C12.0116 20.1818 11.9956 19.9579 11.927 19.7475C11.8585 19.5371 11.7395 19.3467 11.5804 19.1929L7.51205 15.1245L13.2213 14.2973C13.441 14.2667 13.6499 14.1827 13.8296 14.0527C14.0093 13.9227 14.1543 13.7505 14.252 13.5514L16.6659 8.38455L19.2154 13.565C19.3131 13.7641 19.4582 13.9362 19.6379 14.0663C19.8176 14.1963 20.0264 14.2803 20.2461 14.3108L25.9554 15.1381L21.887 19.1929Z" fill="#FFA666"/>
</svg>
