<svg width="34" height="34" viewBox="0 0 34 34" fill="none" xmlns="http://www.w3.org/2000/svg">
<path d="M17.9629 23.9644C17.8962 23.903 17.8235 23.8485 17.7459 23.8016C17.6767 23.7479 17.5987 23.7066 17.5154 23.6796C17.4346 23.6383 17.3475 23.6108 17.2577 23.5982C16.9979 23.5433 16.7274 23.5717 16.4847 23.6796C16.3164 23.7405 16.1636 23.8376 16.0371 23.9642C15.9105 24.0907 15.8133 24.2436 15.7524 24.4119C15.6765 24.5728 15.6394 24.7493 15.6439 24.9272C15.6418 25.1035 15.674 25.2786 15.7389 25.4425C15.8175 25.6046 15.9179 25.7551 16.0372 25.89C16.1639 26.0157 16.3142 26.1152 16.4794 26.1827C16.6447 26.2502 16.8216 26.2844 17.0001 26.2833C17.178 26.2879 17.3544 26.2508 17.5154 26.1748C17.6797 26.1062 17.8311 26.0098 17.9629 25.89C18.0886 25.7633 18.188 25.6131 18.2555 25.4478C18.323 25.2826 18.3572 25.1057 18.3562 24.9272C18.354 24.75 18.3172 24.5749 18.2477 24.4119C18.1832 24.2454 18.0864 24.0933 17.9629 23.9644V23.9644ZM12.3214 18.3771C12.2522 18.3234 12.1742 18.2821 12.0909 18.2551C12.0119 18.2043 11.9247 18.1676 11.8332 18.1466C11.6592 18.1061 11.4783 18.1061 11.3043 18.1466L11.0602 18.2279L10.8161 18.35L10.6127 18.5127C10.3585 18.7794 10.2175 19.1342 10.2194 19.5027C10.2184 19.6812 10.2526 19.8581 10.3201 20.0233C10.3876 20.1885 10.487 20.3388 10.6127 20.4655C10.7445 20.5853 10.8959 20.6817 11.0602 20.7503C11.2657 20.8347 11.4887 20.8674 11.7097 20.8454C11.9308 20.8234 12.143 20.7475 12.3278 20.6243C12.5126 20.5011 12.6643 20.3344 12.7696 20.1388C12.8749 19.9432 12.9306 19.7248 12.9317 19.5027C12.9267 19.1436 12.7862 18.7997 12.5384 18.5398L12.3214 18.3771ZM12.5384 23.9644C12.4094 23.8409 12.2573 23.7441 12.0909 23.6796C11.8454 23.5657 11.5715 23.528 11.3043 23.5711L11.0602 23.6524C10.9738 23.6821 10.8917 23.7232 10.8161 23.7745C10.7451 23.8246 10.6771 23.8789 10.6127 23.9372C10.4892 24.0662 10.3925 24.2183 10.3279 24.3848C10.2562 24.5471 10.2191 24.7226 10.2191 24.9001C10.2191 25.0776 10.2562 25.2531 10.3279 25.4154C10.3966 25.5797 10.4929 25.7311 10.6127 25.8629C10.7372 25.9935 10.8864 26.098 11.0518 26.1702C11.2171 26.2423 11.3952 26.2808 11.5756 26.2833C11.7534 26.2879 11.9299 26.2508 12.0909 26.1748C12.2552 26.1062 12.4066 26.0098 12.5384 25.89C12.6582 25.7582 12.7545 25.6069 12.8232 25.4425C12.8949 25.2802 12.932 25.1047 12.932 24.9272C12.932 24.7497 12.8949 24.5742 12.8232 24.4119C12.7586 24.2454 12.6619 24.0933 12.5384 23.9644V23.9644ZM16.4847 18.2551C16.3183 18.3196 16.1662 18.4164 16.0372 18.5398C15.7894 18.7997 15.6489 19.1436 15.6439 19.5027C15.645 19.7248 15.7007 19.9432 15.806 20.1388C15.9113 20.3344 16.063 20.5011 16.2478 20.6243C16.4326 20.7475 16.6449 20.8234 16.8659 20.8454C17.0869 20.8674 17.3099 20.8347 17.5154 20.7503C17.6797 20.6817 17.8311 20.5853 17.9629 20.4655C18.0886 20.3388 18.188 20.1885 18.2555 20.0233C18.323 19.8581 18.3572 19.6812 18.3562 19.5027C18.3512 19.1436 18.2107 18.7997 17.9629 18.5398C17.7722 18.3517 17.53 18.2242 17.267 18.1735C17.0039 18.1228 16.7317 18.1512 16.4847 18.2551V18.2551ZM23.3874 23.9644C23.2556 23.8446 23.1042 23.7482 22.9399 23.6796C22.6929 23.5757 22.4207 23.5473 22.1577 23.598C21.8946 23.6487 21.6524 23.7762 21.4617 23.9644C21.3383 24.0933 21.2415 24.2454 21.1769 24.4119C21.1052 24.5742 21.0681 24.7497 21.0681 24.9272C21.0681 25.1047 21.1052 25.2802 21.1769 25.4425C21.2456 25.6069 21.3419 25.7582 21.4617 25.89C21.5884 26.0157 21.7387 26.1152 21.9039 26.1827C22.0692 26.2502 22.2461 26.2844 22.4246 26.2833C22.6025 26.2879 22.7789 26.2508 22.9399 26.1748C23.1042 26.1062 23.2556 26.0098 23.3874 25.89C23.5756 25.6993 23.7031 25.4572 23.7537 25.1941C23.8044 24.931 23.7761 24.6588 23.6722 24.4119C23.6077 24.2454 23.5109 24.0933 23.3874 23.9644ZM22.4246 7.29755H11.5756C11.2159 7.29755 10.871 7.44043 10.6166 7.69475C10.3623 7.94908 10.2194 8.29401 10.2194 8.65368V14.0782C10.2194 14.4379 10.3623 14.7828 10.6166 15.0371C10.871 15.2914 11.2159 15.4343 11.5756 15.4343H22.4246C22.7842 15.4343 23.1292 15.2914 23.3835 15.0371C23.6378 14.7828 23.7807 14.4379 23.7807 14.0782V8.65368C23.7807 8.29401 23.6378 7.94908 23.3835 7.69475C23.1292 7.44043 22.7842 7.29755 22.4246 7.29755ZM21.0684 12.7221H12.9317V10.0098H21.0684V12.7221ZM25.1368 1.87305H8.8633C7.7843 1.87305 6.74949 2.30168 5.98652 3.06465C5.22355 3.82762 4.79492 4.86243 4.79492 5.94143V27.6395C4.79492 28.7185 5.22355 29.7533 5.98652 30.5162C6.74949 31.2792 7.7843 31.7078 8.8633 31.7078H25.1368C26.2158 31.7078 27.2506 31.2792 28.0136 30.5162C28.7766 29.7533 29.2052 28.7185 29.2052 27.6395V5.94143C29.2052 4.86243 28.7766 3.82762 28.0136 3.06465C27.2506 2.30168 26.2158 1.87305 25.1368 1.87305V1.87305ZM26.4929 27.6395C26.4929 27.9991 26.3501 28.3441 26.0957 28.5984C25.8414 28.8527 25.4965 28.9956 25.1368 28.9956H8.8633C8.50363 28.9956 8.1587 28.8527 7.90438 28.5984C7.65005 28.3441 7.50717 27.9991 7.50717 27.6395V5.94143C7.50717 5.58176 7.65005 5.23682 7.90438 4.9825C8.1587 4.72818 8.50363 4.5853 8.8633 4.5853H25.1368C25.4965 4.5853 25.8414 4.72818 26.0957 4.9825C26.3501 5.23682 26.4929 5.58176 26.4929 5.94143V27.6395ZM23.1704 18.3771C23.1012 18.3234 23.0232 18.2821 22.9399 18.2551C22.8591 18.2138 22.7721 18.1863 22.6822 18.1737C22.5083 18.1332 22.3273 18.1332 22.1533 18.1737L21.9092 18.2551L21.6651 18.3771L21.4617 18.5398C21.2139 18.7997 21.0734 19.1436 21.0684 19.5027C21.0695 19.7248 21.1252 19.9432 21.2305 20.1388C21.3358 20.3344 21.4875 20.5011 21.6723 20.6243C21.8571 20.7475 22.0694 20.8234 22.2904 20.8454C22.5114 20.8674 22.7344 20.8347 22.9399 20.7503C23.1042 20.6817 23.2556 20.5853 23.3874 20.4655C23.5131 20.3388 23.6125 20.1885 23.68 20.0233C23.7475 19.8581 23.7817 19.6812 23.7807 19.5027C23.7757 19.1436 23.6352 18.7997 23.3874 18.5398L23.1704 18.3771Z" fill="#9F66DB"/>
</svg>
