<svg width="40" height="40" viewBox="0 0 40 40" fill="none" xmlns="http://www.w3.org/2000/svg">
<path d="M19.9562 31.6974C20.2772 31.6974 20.591 31.6012 20.8579 31.4209C21.1248 31.2407 21.3329 30.9844 21.4557 30.6846C21.5785 30.3849 21.6107 30.055 21.5481 29.7367C21.4854 29.4185 21.3309 29.1261 21.1039 28.8967C20.8769 28.6672 20.5877 28.511 20.2729 28.4477C19.958 28.3844 19.6317 28.4169 19.3352 28.541C19.0386 28.6652 18.7851 28.8755 18.6068 29.1453C18.4284 29.4151 18.3333 29.7323 18.3333 30.0568C18.3333 30.4919 18.5042 30.9092 18.8086 31.2169C19.113 31.5246 19.5258 31.6974 19.9562 31.6974ZM28.0712 31.6974C28.3922 31.6974 28.706 31.6012 28.9729 31.4209C29.2398 31.2407 29.4478 30.9844 29.5707 30.6846C29.6935 30.3849 29.7256 30.055 29.663 29.7367C29.6004 29.4185 29.4458 29.1261 29.2188 28.8967C28.9919 28.6672 28.7027 28.511 28.3878 28.4477C28.073 28.3844 27.7467 28.4169 27.4501 28.541C27.1536 28.6652 26.9001 28.8755 26.7217 29.1453C26.5434 29.4151 26.4482 29.7323 26.4482 30.0568C26.4482 30.4919 26.6192 30.9092 26.9236 31.2169C27.228 31.5246 27.6408 31.6974 28.0712 31.6974ZM28.0712 25.1349C28.3922 25.1349 28.706 25.0387 28.9729 24.8584C29.2398 24.6781 29.4478 24.4219 29.5707 24.1221C29.6935 23.8223 29.7256 23.4924 29.663 23.1742C29.6004 22.8559 29.4458 22.5636 29.2188 22.3342C28.9919 22.1047 28.7027 21.9485 28.3878 21.8851C28.073 21.8218 27.7467 21.8543 27.4501 21.9785C27.1536 22.1027 26.9001 22.313 26.7217 22.5828C26.5434 22.8526 26.4482 23.1698 26.4482 23.4943C26.4482 23.9294 26.6192 24.3467 26.9236 24.6544C27.228 24.962 27.6408 25.1349 28.0712 25.1349ZM19.9562 25.1349C20.2772 25.1349 20.591 25.0387 20.8579 24.8584C21.1248 24.6781 21.3329 24.4219 21.4557 24.1221C21.5785 23.8223 21.6107 23.4924 21.5481 23.1742C21.4854 22.8559 21.3309 22.5636 21.1039 22.3342C20.8769 22.1047 20.5877 21.9485 20.2729 21.8851C19.958 21.8218 19.6317 21.8543 19.3352 21.9785C19.0386 22.1027 18.7851 22.313 18.6068 22.5828C18.4284 22.8526 18.3333 23.1698 18.3333 23.4943C18.3333 23.9294 18.5042 24.3467 18.8086 24.6544C19.113 24.962 19.5258 25.1349 19.9562 25.1349ZM31.3172 5.44728H29.6942V3.80665C29.6942 3.37153 29.5232 2.95422 29.2188 2.64655C28.9145 2.33887 28.5017 2.16602 28.0712 2.16602C27.6408 2.16602 27.228 2.33887 26.9236 2.64655C26.6192 2.95422 26.4482 3.37153 26.4482 3.80665V5.44728H13.4643V3.80665C13.4643 3.37153 13.2933 2.95422 12.9889 2.64655C12.6845 2.33887 12.2717 2.16602 11.8413 2.16602C11.4108 2.16602 10.998 2.33887 10.6937 2.64655C10.3893 2.95422 10.2183 3.37153 10.2183 3.80665V5.44728H8.5953C7.30396 5.44728 6.06552 5.96584 5.15241 6.88888C4.2393 7.81191 3.72632 9.06382 3.72632 10.3692V33.3381C3.72632 34.6434 4.2393 35.8953 5.15241 36.8184C6.06552 37.7414 7.30396 38.26 8.5953 38.26H31.3172C32.6085 38.26 33.847 37.7414 34.7601 36.8184C35.6732 35.8953 36.1862 34.6434 36.1862 33.3381V10.3692C36.1862 9.06382 35.6732 7.81191 34.7601 6.88888C33.847 5.96584 32.6085 5.44728 31.3172 5.44728ZM32.9402 33.3381C32.9402 33.7732 32.7692 34.1905 32.4648 34.4982C32.1605 34.8058 31.7476 34.9787 31.3172 34.9787H8.5953C8.16485 34.9787 7.75204 34.8058 7.44767 34.4982C7.1433 34.1905 6.9723 33.7732 6.9723 33.3381V18.5724H32.9402V33.3381ZM32.9402 15.2911H6.9723V10.3692C6.9723 9.93406 7.1433 9.51676 7.44767 9.20908C7.75204 8.9014 8.16485 8.72855 8.5953 8.72855H10.2183V10.3692C10.2183 10.8043 10.3893 11.2216 10.6937 11.5293C10.998 11.837 11.4108 12.0098 11.8413 12.0098C12.2717 12.0098 12.6845 11.837 12.9889 11.5293C13.2933 11.2216 13.4643 10.8043 13.4643 10.3692V8.72855H26.4482V10.3692C26.4482 10.8043 26.6192 11.2216 26.9236 11.5293C27.228 11.837 27.6408 12.0098 28.0712 12.0098C28.5017 12.0098 28.9145 11.837 29.2188 11.5293C29.5232 11.2216 29.6942 10.8043 29.6942 10.3692V8.72855H31.3172C31.7476 8.72855 32.1605 8.9014 32.4648 9.20908C32.7692 9.51676 32.9402 9.93406 32.9402 10.3692V15.2911ZM11.8413 25.1349C12.1623 25.1349 12.4761 25.0387 12.743 24.8584C13.0099 24.6781 13.2179 24.4219 13.3407 24.1221C13.4636 23.8223 13.4957 23.4924 13.4331 23.1742C13.3705 22.8559 13.2159 22.5636 12.9889 22.3342C12.7619 22.1047 12.4727 21.9485 12.1579 21.8851C11.8431 21.8218 11.5168 21.8543 11.2202 21.9785C10.9236 22.1027 10.6702 22.313 10.4918 22.5828C10.3135 22.8526 10.2183 23.1698 10.2183 23.4943C10.2183 23.9294 10.3893 24.3467 10.6937 24.6544C10.998 24.962 11.4108 25.1349 11.8413 25.1349ZM11.8413 31.6974C12.1623 31.6974 12.4761 31.6012 12.743 31.4209C13.0099 31.2407 13.2179 30.9844 13.3407 30.6846C13.4636 30.3849 13.4957 30.055 13.4331 29.7367C13.3705 29.4185 13.2159 29.1261 12.9889 28.8967C12.7619 28.6672 12.4727 28.511 12.1579 28.4477C11.8431 28.3844 11.5168 28.4169 11.2202 28.541C10.9236 28.6652 10.6702 28.8755 10.4918 29.1453C10.3135 29.4151 10.2183 29.7323 10.2183 30.0568C10.2183 30.4919 10.3893 30.9092 10.6937 31.2169C10.998 31.5246 11.4108 31.6974 11.8413 31.6974Z" fill="#FF8833"/>
</svg>
