<svg width="115" height="115" viewBox="0 0 115 115" fill="none" xmlns="http://www.w3.org/2000/svg">
<path d="M95.833 33.543H19.1663C13.8736 33.543 9.58301 37.8336 9.58301 43.1263V91.043C9.58301 96.3357 13.8736 100.626 19.1663 100.626H95.833C101.126 100.626 105.416 96.3357 105.416 91.043V43.1263C105.416 37.8336 101.126 33.543 95.833 33.543Z" stroke="white" stroke-width="9.16667" stroke-linecap="round" stroke-linejoin="round"/>
<path d="M76.6654 100.627V23.9603C76.6654 21.4186 75.6557 18.9811 73.8585 17.1838C72.0612 15.3866 69.6237 14.377 67.082 14.377H47.9154C45.3737 14.377 42.9361 15.3866 41.1389 17.1838C39.3417 18.9811 38.332 21.4186 38.332 23.9603V100.627" stroke="white" stroke-width="9.16667" stroke-linecap="round" stroke-linejoin="round"/>
</svg>
