<svg width="115" height="115" viewBox="0 0 115 115" fill="none" xmlns="http://www.w3.org/2000/svg">
<path d="M102.734 52.9485L58.6984 96.984C53.3037 102.379 45.987 105.409 38.3578 105.409C30.7286 105.409 23.4118 102.379 18.0172 96.984C12.6225 91.5893 9.5918 84.2726 9.5918 76.6433C9.5918 69.0141 12.6225 61.6974 18.0172 56.3027L62.0526 12.2673C65.649 8.67085 70.5269 6.65039 75.613 6.65039C80.6991 6.65039 85.577 8.67085 89.1734 12.2673C92.7699 15.8637 94.7903 20.7416 94.7903 25.8277C94.7903 30.9139 92.7699 35.7917 89.1734 39.3881L45.0901 83.4235C43.2919 85.2218 40.8529 86.232 38.3099 86.232C35.7668 86.232 33.3279 85.2218 31.5297 83.4235C29.7314 81.6253 28.7212 79.1864 28.7212 76.6433C28.7212 74.1003 29.7314 71.6614 31.5297 69.8631L72.2109 29.2298" stroke="white" stroke-width="9.16667" stroke-linecap="round" stroke-linejoin="round"/>
</svg>
