<svg width="115" height="115" viewBox="0 0 115 115" fill="none" xmlns="http://www.w3.org/2000/svg">
<path d="M93.1518 62.2936C92.0976 62.2936 90.9955 61.9582 89.9413 61.7186C87.8066 61.2482 85.7087 60.6236 83.6643 59.8498C81.4413 59.0411 78.9979 59.0831 76.8041 59.9677C74.6103 60.8523 72.8211 62.517 71.7809 64.6415L70.7268 66.7977C66.0597 64.2015 61.7711 60.977 57.9809 57.2144C54.2184 53.4243 50.9938 49.1357 48.3976 44.4686L50.4101 43.1269C52.5346 42.0867 54.1993 40.2976 55.0839 38.1038C55.9685 35.91 56.0105 33.4665 55.2018 31.2436C54.441 29.1948 53.8167 27.0978 53.333 24.9665C53.0934 23.9123 52.9018 22.8102 52.758 21.7082C52.1761 18.333 50.4083 15.2765 47.7729 13.0891C45.1374 10.9017 41.8076 9.72712 38.383 9.77691H24.008C21.943 9.75752 19.898 10.1833 18.0122 11.0253C16.1265 11.8673 14.4444 13.1057 13.0803 14.6562C11.7162 16.2067 10.7022 18.0329 10.1073 20.0105C9.51246 21.9882 9.35069 24.0707 9.63301 26.1165C12.1857 46.1906 21.3536 64.8422 35.6884 79.125C50.0233 93.4078 68.7081 102.508 88.7914 104.987H90.6122C94.1456 104.993 97.5572 103.696 100.196 101.346C101.711 99.9898 102.922 98.3278 103.748 96.4693C104.574 94.6108 104.997 92.5982 104.987 90.5644V76.1894C104.928 72.8611 103.716 69.6562 101.558 67.122C99.3995 64.5877 96.4284 62.8812 93.1518 62.2936ZM95.5476 91.0436C95.5467 91.7239 95.401 92.3963 95.1201 93.0159C94.8392 93.6356 94.4296 94.1883 93.9184 94.6373C93.3846 95.1022 92.7587 95.4491 92.0817 95.6555C91.4046 95.862 90.6916 95.9232 89.9893 95.8353C72.044 93.5343 55.3754 85.3247 42.6127 72.5012C29.85 59.6778 21.7196 42.9704 19.5038 25.0144C19.4276 24.3125 19.4944 23.6025 19.7003 22.9271C19.9062 22.2518 20.2469 21.6252 20.7018 21.0852C21.1508 20.5741 21.7035 20.1645 22.3232 19.8836C22.9428 19.6027 23.6152 19.4569 24.2955 19.4561H38.6705C39.7848 19.4313 40.8729 19.7957 41.7475 20.4866C42.622 21.1775 43.2284 22.1517 43.4622 23.2415C43.6538 24.5512 43.8934 25.845 44.1809 27.1227C44.7345 29.6486 45.4711 32.1309 46.3851 34.5498L39.6768 37.6644C39.1032 37.9276 38.5872 38.3014 38.1586 38.7646C37.7299 39.2277 37.3969 39.7709 37.1787 40.3631C36.9606 40.9552 36.8615 41.5846 36.8873 42.2152C36.913 42.8457 37.0631 43.4649 37.3288 44.0373C44.225 58.8089 56.099 70.6828 70.8705 77.579C72.0371 78.0583 73.3456 78.0583 74.5122 77.579C75.1098 77.3653 75.6589 77.0349 76.1278 76.6072C76.5967 76.1795 76.9759 75.6628 77.2434 75.0873L80.2143 68.379C82.6914 69.2649 85.2196 70.0009 87.7851 70.5832C89.0629 70.8707 90.3566 71.1102 91.6663 71.3019C92.7561 71.5357 93.7303 72.1421 94.4212 73.0166C95.1121 73.8912 95.4766 74.9793 95.4518 76.0936L95.5476 91.0436Z" fill="white"/>
</svg>
