<svg width="89" height="92" viewBox="0 0 89 92" fill="none" xmlns="http://www.w3.org/2000/svg">
<path d="M0 10.5C0 4.97715 4.47715 0.5 10 0.5H79C84.5228 0.5 89 4.97715 89 10.5V81.5C89 87.0228 84.5228 91.5 79 91.5H10C4.47715 91.5 0 87.0228 0 81.5V10.5Z" fill="#FF8833"/>
<path d="M63.0804 55.1345V61.0095C63.0826 61.5549 62.9709 62.0948 62.7524 62.5945C62.5339 63.0942 62.2134 63.5428 61.8115 63.9115C61.4096 64.2802 60.9352 64.5609 60.4185 64.7357C59.9019 64.9104 59.3544 64.9753 58.8112 64.9262C52.7851 64.2714 46.9966 62.2122 41.9108 58.9141C37.1791 55.9074 33.1675 51.8958 30.1608 47.1641C26.8512 42.0552 24.7915 36.2386 24.1487 30.1854C24.0998 29.6438 24.1641 29.098 24.3377 28.5827C24.5112 28.0674 24.7902 27.5939 25.1568 27.1923C25.5234 26.7907 25.9696 26.4698 26.467 26.2501C26.9644 26.0304 27.502 25.9167 28.0458 25.9162H33.9208C34.8712 25.9069 35.7926 26.2434 36.5132 26.8631C37.2338 27.4828 37.7044 28.3435 37.8375 29.2845C38.0854 31.1647 38.5453 33.0107 39.2083 34.7875C39.4718 35.4884 39.5288 36.2502 39.3726 36.9825C39.2164 37.7149 38.8536 38.3871 38.327 38.9195L35.84 41.4066C38.6278 46.3094 42.6872 50.3688 47.59 53.1566L50.077 50.6695C50.6095 50.143 51.2817 49.7802 52.0141 49.624C52.7464 49.4678 53.5082 49.5248 54.2091 49.7883C55.9859 50.4513 57.8319 50.9112 59.712 51.1591C60.6633 51.2933 61.5321 51.7725 62.1532 52.5055C62.7742 53.2384 63.1042 54.1741 63.0804 55.1345Z" stroke="white" stroke-width="3.06667" stroke-linecap="round" stroke-linejoin="round"/>
</svg>
