<svg width="35" height="35" viewBox="0 0 35 35" fill="none" xmlns="http://www.w3.org/2000/svg">
<path d="M29.9553 27.6361C30.8514 26.435 31.4662 25.0481 31.7546 23.5776C32.043 22.1072 31.9975 20.5907 31.6215 19.1402C31.2455 17.6897 30.5486 16.3421 29.5821 15.1969C28.6157 14.0517 27.4045 13.1382 26.0378 12.5236C25.7401 10.8109 25.056 9.18863 24.0374 7.77997C23.0187 6.37131 21.6924 5.21337 20.1592 4.39413C18.626 3.57488 16.9262 3.11589 15.189 3.05203C13.4518 2.98817 11.7229 3.32112 10.1336 4.02558C8.54441 4.73004 7.13666 5.78748 6.01734 7.11754C4.89803 8.44761 4.09662 10.0153 3.67399 11.7015C3.25136 13.3877 3.21864 15.1481 3.57831 16.8489C3.93799 18.5496 4.68059 20.146 5.7497 21.5167L3.76235 23.4898C3.56397 23.6909 3.42957 23.9462 3.37614 24.2235C3.3227 24.5009 3.35262 24.7879 3.46211 25.0482C3.56937 25.3093 3.75151 25.5328 3.98559 25.6906C4.21967 25.8483 4.49521 25.9333 4.77747 25.9347H12.9127C13.7229 27.6427 15.0002 29.0863 16.5968 30.0984C18.1935 31.1105 20.0441 31.6497 21.9345 31.6537H30.5129C30.7952 31.6523 31.0707 31.5673 31.3048 31.4096C31.5389 31.2518 31.721 31.0283 31.8283 30.7672C31.9378 30.5068 31.9677 30.2199 31.9143 29.9425C31.8608 29.6652 31.7264 29.4099 31.5281 29.2088L29.9553 27.6361ZM11.9262 21.6454C11.9282 22.1242 11.9664 22.6022 12.0406 23.0752H8.22317L8.72358 22.5891C8.85759 22.4561 8.96395 22.298 9.03654 22.1238C9.10913 21.9496 9.1465 21.7627 9.1465 21.5739C9.1465 21.3852 9.10913 21.1983 9.03654 21.0241C8.96395 20.8499 8.85759 20.6917 8.72358 20.5588C7.92229 19.7663 7.28704 18.822 6.85498 17.7811C6.42291 16.7403 6.2027 15.6237 6.20722 14.4967C6.20722 12.2215 7.11103 10.0396 8.7198 8.43078C10.3286 6.822 12.5106 5.9182 14.7857 5.9182C16.561 5.90753 18.295 6.45347 19.744 7.47929C21.1929 8.5051 22.284 9.9592 22.8638 11.6372C22.5492 11.6372 22.249 11.6372 21.9345 11.6372C19.2801 11.6372 16.7345 12.6916 14.8576 14.5685C12.9807 16.4454 11.9262 18.9911 11.9262 21.6454ZM26.9958 28.7942L27.0672 28.8657H21.9345C20.2807 28.8627 18.6792 28.2865 17.4026 27.2352C16.1261 26.1838 15.2535 24.7225 14.9335 23.1C14.6136 21.4775 14.8661 19.7942 15.648 18.337C16.4298 16.8798 17.6928 15.7387 19.2216 15.1082C20.7504 14.4777 22.4505 14.3967 24.0324 14.879C25.6142 15.3614 26.9799 16.3773 27.8967 17.7536C28.8136 19.1299 29.2249 20.7815 29.0606 22.4271C28.8963 24.0726 28.1666 25.6103 26.9958 26.7782C26.7264 27.0422 26.5722 27.4019 26.5668 27.779C26.5676 27.9682 26.6059 28.1553 26.6796 28.3296C26.7532 28.5038 26.8607 28.6618 26.9958 28.7942Z" fill="#FF8833"/>
</svg>
