<svg width="14" height="14" viewBox="0 0 14 14" fill="none" xmlns="http://www.w3.org/2000/svg">
<rect x="0.935547" y="0.93457" width="12.1308" height="12.1308" rx="6.06542" fill="#9F66DB"/>
<path d="M9.83961 4.9733C9.80027 4.93365 9.75347 4.90217 9.70191 4.88069C9.65035 4.8592 9.59505 4.84814 9.53919 4.84814C9.48333 4.84814 9.42803 4.8592 9.37647 4.88069C9.3249 4.90217 9.27811 4.93365 9.23877 4.9733L6.0865 8.12981L4.76212 6.8012C4.72127 6.76175 4.67306 6.73073 4.62023 6.70991C4.56741 6.68909 4.51099 6.67888 4.45422 6.67986C4.39744 6.68084 4.34142 6.693 4.28934 6.71563C4.23726 6.73827 4.19015 6.77094 4.1507 6.81178C4.11125 6.85262 4.08023 6.90083 4.05941 6.95366C4.03859 7.00649 4.02838 7.0629 4.02936 7.11968C4.03034 7.17645 4.0425 7.23248 4.06513 7.28456C4.08777 7.33663 4.12044 7.38374 4.16128 7.42319L5.78608 9.04799C5.82541 9.08765 5.87221 9.11913 5.92377 9.14061C5.97533 9.16209 6.03064 9.17315 6.0865 9.17315C6.14235 9.17315 6.19766 9.16209 6.24922 9.14061C6.30078 9.11913 6.34758 9.08765 6.38691 9.04799L9.83961 5.5953C9.88256 5.55567 9.91683 5.50759 9.94028 5.45406C9.96372 5.40054 9.97583 5.34273 9.97583 5.2843C9.97583 5.22587 9.96372 5.16807 9.94028 5.11454C9.91683 5.06102 9.88256 5.01293 9.83961 4.9733V4.9733Z" fill="white"/>
</svg>
