<svg width="26" height="26" viewBox="0 0 26 26" fill="none" xmlns="http://www.w3.org/2000/svg">
<path d="M19.5408 8.15772C19.4444 8.06048 19.3296 7.98329 19.2032 7.93062C19.0768 7.87795 18.9412 7.85083 18.8042 7.85083C18.6672 7.85083 18.5316 7.87795 18.4052 7.93062C18.2788 7.98329 18.164 8.06048 18.0676 8.15772L10.3382 15.8975L7.09081 12.6397C6.99067 12.543 6.87246 12.4669 6.74292 12.4159C6.61339 12.3648 6.47506 12.3398 6.33585 12.3422C6.19664 12.3446 6.05926 12.3744 5.93157 12.4299C5.80387 12.4854 5.68836 12.5655 5.59163 12.6657C5.49489 12.7658 5.41883 12.884 5.36778 13.0136C5.31673 13.1431 5.2917 13.2814 5.2941 13.4206C5.29651 13.5598 5.32632 13.6972 5.38182 13.8249C5.43732 13.9526 5.51742 14.0681 5.61756 14.1648L9.60157 18.1488C9.69801 18.2461 9.81276 18.3233 9.93919 18.3759C10.0656 18.4286 10.2012 18.4557 10.3382 18.4557C10.4752 18.4557 10.6108 18.4286 10.7372 18.3759C10.8636 18.3233 10.9784 18.2461 11.0748 18.1488L19.5408 9.68285C19.6461 9.58569 19.7302 9.46778 19.7877 9.33654C19.8451 9.20529 19.8748 9.06356 19.8748 8.92028C19.8748 8.777 19.8451 8.63528 19.7877 8.50403C19.7302 8.37279 19.6461 8.25487 19.5408 8.15772V8.15772Z" fill="white"/>
</svg>
