<svg width="26" height="26" viewBox="0 0 26 26" fill="none" xmlns="http://www.w3.org/2000/svg">
<path d="M15.6906 12.3158H13.6156V8.16577C13.6156 7.89061 13.5063 7.62672 13.3118 7.43215C13.1172 7.23758 12.8533 7.12827 12.5781 7.12827C12.303 7.12827 12.0391 7.23758 11.8445 7.43215C11.6499 7.62672 11.5406 7.89061 11.5406 8.16577V13.3533C11.5406 13.6284 11.6499 13.8923 11.8445 14.0869C12.0391 14.2815 12.303 14.3908 12.5781 14.3908H15.6906C15.9658 14.3908 16.2297 14.2815 16.4243 14.0869C16.6188 13.8923 16.7281 13.6284 16.7281 13.3533C16.7281 13.0781 16.6188 12.8142 16.4243 12.6196C16.2297 12.4251 15.9658 12.3158 15.6906 12.3158ZM12.5781 2.97827C10.5261 2.97827 8.52025 3.58675 6.81409 4.72677C5.10793 5.86679 3.77814 7.48715 2.99288 9.38293C2.20762 11.2787 2.00216 13.3648 2.40248 15.3773C2.8028 17.3899 3.79093 19.2385 5.2419 20.6895C6.69287 22.1405 8.54152 23.1286 10.5541 23.5289C12.5666 23.9292 14.6527 23.7238 16.5485 22.9385C18.4443 22.1533 20.0646 20.8235 21.2046 19.1173C22.3446 17.4112 22.9531 15.4053 22.9531 13.3533C22.9531 11.9908 22.6848 10.6417 22.1634 9.38293C21.642 8.12418 20.8778 6.98045 19.9144 6.01704C18.951 5.05363 17.8072 4.28941 16.5485 3.76802C15.2897 3.24663 13.9406 2.97827 12.5781 2.97827ZM12.5781 21.6533C10.9365 21.6533 9.33183 21.1665 7.9669 20.2545C6.60197 19.3425 5.53814 18.0462 4.90993 16.5295C4.28172 15.0129 4.11736 13.3441 4.43761 11.734C4.75787 10.124 5.54837 8.64506 6.70914 7.48429C7.86992 6.32351 9.34884 5.53301 10.9589 5.21275C12.5689 4.8925 14.2378 5.05686 15.7544 5.68507C17.271 6.31328 18.5673 7.37711 19.4793 8.74204C20.3913 10.107 20.8781 11.7117 20.8781 13.3533C20.8781 15.5546 20.0037 17.6657 18.4471 19.2223C16.8906 20.7788 14.7794 21.6533 12.5781 21.6533Z" fill="white"/>
</svg>
