<svg width="115" height="115" viewBox="0 0 115 115" fill="none" xmlns="http://www.w3.org/2000/svg">
<path d="M91.0382 31.1458H76.6632V26.3541C76.6632 22.5416 75.1487 18.8853 72.4528 16.1894C69.757 13.4936 66.1007 11.9791 62.2882 11.9791H52.7048C48.8923 11.9791 45.236 13.4936 42.5402 16.1894C39.8443 18.8853 38.3298 22.5416 38.3298 26.3541V31.1458H23.9548C20.1423 31.1458 16.486 32.6603 13.7902 35.3561C11.0943 38.0519 9.57983 41.7083 9.57983 45.5208V88.6458C9.57983 92.4582 11.0943 96.1146 13.7902 98.8104C16.486 101.506 20.1423 103.021 23.9548 103.021H91.0382C94.8507 103.021 98.507 101.506 101.203 98.8104C103.899 96.1146 105.413 92.4582 105.413 88.6458V45.5208C105.413 41.7083 103.899 38.0519 101.203 35.3561C98.507 32.6603 94.8507 31.1458 91.0382 31.1458ZM47.9132 26.3541C47.9132 25.0833 48.418 23.8645 49.3166 22.9659C50.2152 22.0673 51.434 21.5624 52.7048 21.5624H62.2882C63.559 21.5624 64.7778 22.0673 65.6764 22.9659C66.575 23.8645 67.0798 25.0833 67.0798 26.3541V31.1458H47.9132V26.3541ZM95.8298 88.6458C95.8298 89.9166 95.325 91.1354 94.4264 92.034C93.5278 92.9326 92.309 93.4374 91.0382 93.4374H23.9548C22.684 93.4374 21.4652 92.9326 20.5666 92.034C19.668 91.1354 19.1632 89.9166 19.1632 88.6458V62.2916C23.8372 64.1455 28.642 65.651 33.5382 66.7958V69.6228C33.5382 70.8937 34.043 72.1124 34.9416 73.0111C35.8402 73.9097 37.059 74.4145 38.3298 74.4145C39.6007 74.4145 40.8194 73.9097 41.7181 73.0111C42.6167 72.1124 43.1215 70.8937 43.1215 69.6228V68.6166C47.8861 69.2652 52.688 69.6014 57.4965 69.6228C62.305 69.6014 67.1069 69.2652 71.8715 68.6166V69.6228C71.8715 70.8937 72.3763 72.1124 73.2749 73.0111C74.1736 73.9097 75.3923 74.4145 76.6632 74.4145C77.934 74.4145 79.1528 73.9097 80.0514 73.0111C80.95 72.1124 81.4548 70.8937 81.4548 69.6228V66.7958C86.351 65.651 91.1558 64.1455 95.8298 62.2916V88.6458ZM95.8298 51.7978C91.1694 53.7648 86.3633 55.3668 81.4548 56.5895V55.1041C81.4548 53.8333 80.95 52.6145 80.0514 51.7159C79.1528 50.8173 77.934 50.3124 76.6632 50.3124C75.3923 50.3124 74.1736 50.8173 73.2749 51.7159C72.3763 52.6145 71.8715 53.8333 71.8715 55.1041V58.6499C62.3421 60.0876 52.6509 60.0876 43.1215 58.6499V55.1041C43.1215 53.8333 42.6167 52.6145 41.7181 51.7159C40.8194 50.8173 39.6007 50.3124 38.3298 50.3124C37.059 50.3124 35.8402 50.8173 34.9416 51.7159C34.043 52.6145 33.5382 53.8333 33.5382 55.1041V56.6853C28.6297 55.4627 23.8236 53.8606 19.1632 51.8937V45.5208C19.1632 44.2499 19.668 43.0312 20.5666 42.1325C21.4652 41.2339 22.684 40.7291 23.9548 40.7291H91.0382C92.309 40.7291 93.5278 41.2339 94.4264 42.1325C95.325 43.0312 95.8298 44.2499 95.8298 45.5208V51.7978Z" fill="#5F259F"/>
</svg>
