<svg width="40" height="40" viewBox="0 0 40 40" fill="none" xmlns="http://www.w3.org/2000/svg">
<path d="M19.8001 18.5567C19.3696 18.5567 18.9568 18.7296 18.6525 19.0373C18.3481 19.3449 18.1771 19.7622 18.1771 20.1974V25.1193C18.1771 25.5544 18.3481 25.9717 18.6525 26.2794C18.9568 26.587 19.3696 26.7599 19.8001 26.7599C20.2305 26.7599 20.6433 26.587 20.9477 26.2794C21.2521 25.9717 21.4231 25.5544 21.4231 25.1193V20.1974C21.4231 19.7622 21.2521 19.3449 20.9477 19.0373C20.6433 18.7296 20.2305 18.5567 19.8001 18.5567ZM19.8001 13.6348C19.4791 13.6348 19.1653 13.731 18.8984 13.9113C18.6315 14.0916 18.4235 14.3478 18.3006 14.6476C18.1778 14.9474 18.1457 15.2773 18.2083 15.5955C18.2709 15.9138 18.4255 16.2061 18.6525 16.4356C18.8794 16.665 19.1686 16.8213 19.4835 16.8846C19.7983 16.9479 20.1246 16.9154 20.4212 16.7912C20.7177 16.667 20.9712 16.4567 21.1496 16.1869C21.3279 15.9171 21.4231 15.5999 21.4231 15.2755C21.4231 14.8403 21.2521 14.423 20.9477 14.1154C20.6433 13.8077 20.2305 13.6348 19.8001 13.6348ZM19.8001 3.79102C17.6687 3.79102 15.5583 4.21538 13.5892 5.03987C11.6201 5.86437 9.83088 7.07285 8.3238 8.59632C5.28009 11.6731 3.57016 15.8461 3.57016 20.1974C3.55597 23.9858 4.85361 27.6598 7.23812 30.5826L3.99214 33.8638C3.76694 34.0946 3.61438 34.3875 3.55372 34.7058C3.49306 35.0241 3.52702 35.3534 3.65131 35.6521C3.78611 35.9473 4.00464 36.1954 4.27916 36.3648C4.55368 36.5342 4.8718 36.6174 5.19315 36.6037H19.8001C24.1045 36.6037 28.2327 34.8752 31.2764 31.7984C34.3201 28.7216 36.03 24.5486 36.03 20.1974C36.03 15.8461 34.3201 11.6731 31.2764 8.59632C28.2327 5.51954 24.1045 3.79102 19.8001 3.79102V3.79102ZM19.8001 33.3224H9.10457L10.6139 31.7966C10.7673 31.6447 10.8893 31.4635 10.9729 31.2635C11.0565 31.0636 11.1 30.8489 11.1008 30.6318C11.0947 30.199 10.9197 29.7863 10.6139 29.4833C8.48878 27.3375 7.16537 24.5131 6.8692 21.4915C6.57303 18.4698 7.32243 15.4379 8.9897 12.9122C10.657 10.3864 13.139 8.52319 16.0129 7.6399C18.8867 6.75661 21.9747 6.9079 24.7506 8.06801C27.5265 9.22811 29.8186 11.3253 31.2364 14.0021C32.6542 16.679 33.11 19.77 32.5262 22.7486C31.9423 25.7271 30.3549 28.4088 28.0344 30.3369C25.7139 32.2649 22.8039 33.32 19.8001 33.3224V33.3224Z" fill="#FF8833"/>
</svg>
