<svg width="34" height="34" viewBox="0 0 34 34" fill="none" xmlns="http://www.w3.org/2000/svg">
<path d="M29.2054 27.6407H6.15122V26.9084L12.9319 20.1278L18.0851 25.2811C18.3392 25.5337 18.6829 25.6754 19.0412 25.6754C19.3995 25.6754 19.7432 25.5337 19.9973 25.2811L30.1682 15.1101C30.2953 14.9841 30.3962 14.8341 30.4651 14.6688C30.5339 14.5036 30.5694 14.3263 30.5694 14.1473C30.5694 13.9683 30.5339 13.791 30.4651 13.6258C30.3962 13.4605 30.2953 13.3105 30.1682 13.1844C29.9141 12.9319 29.5704 12.7901 29.2122 12.7901C28.8539 12.7901 28.5102 12.9319 28.2561 13.1844L19.0344 22.4061L13.8947 17.2528C13.6406 17.0002 13.2969 16.8585 12.9386 16.8585C12.5804 16.8585 12.2367 17.0002 11.9826 17.2528L6.15122 23.0706V16.0594L12.9319 9.27879L16.729 13.0759C16.9831 13.3285 17.3268 13.4703 17.6851 13.4703C18.0433 13.4703 18.3871 13.3285 18.6411 13.0759L25.137 6.5801L28.1069 9.55002C28.3623 9.80358 28.7079 9.94532 29.0678 9.94405C29.4276 9.94278 29.7723 9.7986 30.0258 9.54324C30.2794 9.28787 30.4211 8.94224 30.4199 8.58237C30.4186 8.22251 30.2744 7.87788 30.019 7.62432L26.0727 3.70511C25.8186 3.45253 25.4749 3.31076 25.1167 3.31076C24.7584 3.31076 24.4147 3.45253 24.1606 3.70511L17.6512 10.2145L13.8676 6.41737C13.6135 6.16479 13.2698 6.02301 12.9115 6.02301C12.5532 6.02301 12.2095 6.16479 11.9554 6.41737L6.15122 12.2216V4.5866C6.15122 4.22693 6.00834 3.88199 5.75402 3.62767C5.49969 3.37335 5.15476 3.23047 4.79509 3.23047C4.43542 3.23047 4.09049 3.37335 3.83617 3.62767C3.58184 3.88199 3.43896 4.22693 3.43896 4.5866V28.9969C3.43896 29.3565 3.58184 29.7015 3.83617 29.9558C4.09049 30.2101 4.43542 30.353 4.79509 30.353H29.2054C29.565 30.353 29.91 30.2101 30.1643 29.9558C30.4186 29.7015 30.5615 29.3565 30.5615 28.9969C30.5615 28.6372 30.4186 28.2923 30.1643 28.0379C29.91 27.7836 29.565 27.6407 29.2054 27.6407Z" fill="#9F66DB"/>
</svg>
