<svg width="26" height="26" viewBox="0 0 26 26" fill="none" xmlns="http://www.w3.org/2000/svg">
<path d="M9.46563 9.88555C9.26043 9.88555 9.05984 9.9464 8.88923 10.0604C8.71861 10.1744 8.58563 10.3364 8.50711 10.526C8.42858 10.7156 8.40803 10.9242 8.44807 11.1255C8.4881 11.3267 8.58691 11.5116 8.73201 11.6567C8.8771 11.8018 9.06197 11.9006 9.26322 11.9406C9.46448 11.9806 9.67309 11.9601 9.86266 11.8816C10.0522 11.803 10.2143 11.6701 10.3283 11.4995C10.4423 11.3288 10.5031 11.1282 10.5031 10.923C10.5031 10.6479 10.3938 10.384 10.1993 10.1894C10.0047 9.99485 9.74079 9.88555 9.46563 9.88555ZM15.3379 14.6165L10.9908 16.1728C10.7623 16.2557 10.5702 16.4161 10.4479 16.6262C10.3256 16.8362 10.281 17.0825 10.3217 17.3221C10.3625 17.5617 10.4861 17.7794 10.6709 17.9372C10.8557 18.095 11.0901 18.1829 11.3331 18.1855C11.4534 18.1854 11.5728 18.1643 11.6859 18.1233L16.0434 16.567C16.1751 16.5236 16.2968 16.4541 16.4012 16.3628C16.5056 16.2715 16.5907 16.1602 16.6513 16.0354C16.712 15.9107 16.747 15.775 16.7543 15.6365C16.7616 15.498 16.7411 15.3594 16.6939 15.2289C16.6467 15.0985 16.5738 14.9788 16.4796 14.877C16.3854 14.7752 16.2717 14.6934 16.1452 14.6363C16.0188 14.5792 15.8822 14.548 15.7436 14.5446C15.6049 14.5412 15.4669 14.5657 15.3379 14.6165V14.6165ZM15.6906 9.88555C15.4854 9.88555 15.2848 9.9464 15.1142 10.0604C14.9436 10.1744 14.8106 10.3364 14.7321 10.526C14.6536 10.7156 14.633 10.9242 14.6731 11.1255C14.7131 11.3267 14.8119 11.5116 14.957 11.6567C15.1021 11.8018 15.287 11.9006 15.4882 11.9406C15.6895 11.9806 15.8981 11.9601 16.0877 11.8816C16.2772 11.803 16.4393 11.6701 16.5533 11.4995C16.6673 11.3288 16.7281 11.1282 16.7281 10.923C16.7281 10.6479 16.6188 10.384 16.4243 10.1894C16.2297 9.99485 15.9658 9.88555 15.6906 9.88555ZM12.5781 2.62305C10.5261 2.62305 8.52025 3.23153 6.81409 4.37155C5.10793 5.51157 3.77814 7.13192 2.99288 9.02771C2.20762 10.9235 2.00216 13.0096 2.40248 15.0221C2.8028 17.0347 3.79093 18.8833 5.2419 20.3343C6.69287 21.7852 8.54152 22.7734 10.5541 23.1737C12.5666 23.574 14.6527 23.3686 16.5485 22.5833C18.4443 21.798 20.0646 20.4682 21.2046 18.7621C22.3446 17.0559 22.9531 15.05 22.9531 12.998C22.9531 11.6356 22.6848 10.2865 22.1634 9.02771C21.642 7.76895 20.8778 6.62522 19.9144 5.66181C18.951 4.69841 17.8072 3.93419 16.5485 3.4128C15.2897 2.8914 13.9406 2.62305 12.5781 2.62305V2.62305ZM12.5781 21.298C10.9365 21.298 9.33183 20.8113 7.9669 19.8992C6.60197 18.9872 5.53814 17.6909 4.90993 16.1743C4.28172 14.6577 4.11736 12.9888 4.43761 11.3788C4.75787 9.76876 5.54837 8.28984 6.70914 7.12906C7.86992 5.96828 9.34884 5.17779 10.9589 4.85753C12.5689 4.53727 14.2378 4.70164 15.7544 5.32985C17.271 5.95805 18.5673 7.02189 19.4793 8.38681C20.3913 9.75174 20.8781 11.3565 20.8781 12.998C20.8781 15.1993 20.0037 17.3105 18.4471 18.867C16.8906 20.4236 14.7794 21.298 12.5781 21.298V21.298Z" fill="white"/>
</svg>
