<svg width="39" height="39" viewBox="0 0 39 39" fill="none" xmlns="http://www.w3.org/2000/svg">
<path d="M20.3508 0C20.8421 0.25118 21.0089 0.633533 20.9996 1.13868C20.978 2.44203 20.9996 3.74538 20.9873 5.04872C20.9842 5.54829 20.6011 5.93902 20.0913 5.99484C19.6649 6.04228 19.1922 5.75761 19.0624 5.35293C19.0161 5.2106 19.013 5.05431 19.013 4.9036C19.0099 3.6477 19.0284 2.389 19.0006 1.1331C18.9883 0.62516 19.1582 0.248389 19.6525 0H20.3477L20.3508 0Z" fill="#00B1BB"/>
<path d="M8.00001 19.4937C7.99375 13.3046 12.9478 7.99688 19.5 8C26.0365 8 30.9718 13.2577 30.9999 19.4594C31.0249 25.808 25.8426 31 19.4968 31C13.1604 31 8.01564 25.8517 8.00001 19.4937ZM19.2247 19.5438C19.2247 17.9402 19.2247 16.3366 19.2247 14.7331C19.2247 13.2983 19.2185 11.8636 19.2279 10.4319C19.2279 10.1256 19.1278 10.0162 18.8182 10.0287C18.3334 10.0506 17.858 10.1256 17.3889 10.2319C12.6444 11.2978 9.31357 15.7927 10.0079 20.8222C10.6084 25.1922 14.3364 28.6619 18.7525 28.9463C19.1434 28.9713 19.2341 28.8807 19.231 28.4993C19.2154 25.5141 19.2216 22.5289 19.2216 19.5438H19.2247Z" fill="#00B1BB"/>
<path d="M20.9986 35.5156C20.9986 36.2969 21.0017 37.0781 20.9986 37.8594C20.9955 38.5562 20.596 39.0031 19.9906 39C19.3915 38.9969 19.0014 38.5469 19.0014 37.8469C19.0014 36.2844 18.9983 34.7219 19.0014 33.1594C19.0014 32.4781 19.4258 31.9969 20.0062 32C20.5836 32.0031 20.9955 32.4844 20.9986 33.1719C21.0017 33.9531 20.9986 34.7344 20.9986 35.5156Z" fill="#00B1BB"/>
<path d="M29.9116 10.993C29.5768 10.965 29.271 10.8004 29.1108 10.3943C28.9361 9.94973 28.9594 9.50161 29.2419 9.13051C29.568 8.6999 29.9204 8.2973 30.264 7.88419C30.9424 7.06847 31.6209 6.25626 32.2965 5.44055C32.4916 5.20599 32.7071 5.02394 32.9895 5.00294C33.371 4.97493 33.6797 5.14647 33.8777 5.55258C34.0728 5.95518 34.0349 6.50133 33.7612 6.85842C33.4321 7.28903 33.0827 7.69164 32.7391 8.10475C32.0606 8.92046 31.3821 9.73267 30.7066 10.5519C30.494 10.811 30.2523 10.986 29.9145 11L29.9116 10.993Z" fill="#00B1BB"/>
<path d="M6.12487 5.00003C6.46454 5.00003 6.74818 5.14706 6.9828 5.38161C8.1909 6.58585 9.40601 7.78659 10.6001 9.00133C11.1149 9.52293 11.1254 10.2476 10.6737 10.6817C10.2009 11.1403 9.53208 11.1017 8.99981 10.5766C7.7882 9.3724 6.5836 8.16816 5.38249 6.95692C4.9903 6.56134 4.90275 6.08175 5.10586 5.63366C5.27394 5.25909 5.69415 4.99653 6.12837 5.00003H6.12487Z" fill="#00B1BB"/>
<path d="M10.9999 29.9262C11.0034 30.2092 10.8703 30.4455 10.632 30.6438C9.40544 31.6677 8.18242 32.6945 6.94538 33.7096C6.47929 34.0918 5.75389 34.0918 5.32986 33.7388C4.89181 33.3771 4.8813 32.7937 5.35089 32.3941C6.58793 31.3468 7.83899 30.3084 9.09706 29.2757C9.46502 28.9753 9.92059 28.9228 10.3902 29.1065C10.7967 29.267 10.9964 29.5499 10.9999 29.9262Z" fill="#00B1BB"/>
<path d="M33.0174 33.9942C32.8016 34.0058 32.5682 33.8978 32.3699 33.6965C31.349 32.672 30.3223 31.6535 29.3072 30.6261C28.9134 30.2292 28.9018 29.6455 29.2518 29.2836C29.6047 28.9187 30.1998 28.8925 30.5965 29.2836C31.6494 30.3109 32.6849 31.3558 33.7175 32.4006C34.0208 32.7071 34.0763 33.0894 33.9012 33.4805C33.7496 33.822 33.4666 33.9942 33.0204 34L33.0174 33.9942Z" fill="#00B1BB"/>
<path d="M3.51122 19.0028C4.29581 19.0028 5.07716 18.9997 5.86176 19.0028C6.52963 19.0059 6.98677 19.3952 6.99974 19.9652C7.01271 20.5445 6.54584 20.9899 5.87472 20.993C4.29582 21.0023 2.71691 21.0023 1.13476 20.993C0.496059 20.993 0.00325812 20.5476 1.60082e-05 20.0026C-0.0032261 19.4357 0.486333 19.009 1.16069 19.0028C1.94528 18.9965 2.72663 19.0028 3.51122 19.0028Z" fill="#00B1BB"/>
<path d="M35.5128 20.9953C34.6896 20.9953 33.8665 21.0078 33.0433 20.9922C32.5378 20.9828 32.1067 20.624 32.0192 20.1933C31.9285 19.7471 32.1651 19.3041 32.5993 19.095C32.7484 19.0232 32.9072 19.0014 33.0692 19.0014C34.6767 19.0014 36.2808 18.9983 37.8883 19.0014C38.5267 19.0014 39.0096 19.4538 38.9999 20.0061C38.9934 20.5397 38.5105 20.9828 37.9012 20.9922C37.104 21.0046 36.31 20.9922 35.5128 20.9922V20.9953Z" fill="#00B1BB"/>
</svg>
