<svg width="28" height="23" viewBox="0 0 28 23" fill="none" xmlns="http://www.w3.org/2000/svg">
<path d="M4.44844 5.53122C4.44844 4.93322 4.93322 4.44844 5.53122 4.44844H11.0623C11.6603 4.44844 12.1451 4.93322 12.1451 5.53122C12.1451 6.12921 11.6603 6.61399 11.0623 6.61399H5.53122C4.93322 6.61399 4.44844 6.12921 4.44844 5.53122Z" fill="white" stroke="#FF8833" stroke-width="0.6"/>
<path d="M24.89 8.59667H25.19V8.29667V5.53111C25.19 3.83805 23.8176 2.46556 22.1244 2.46556H5.53111C3.83805 2.46556 2.46556 3.83805 2.46556 5.53111V8.29667V8.59667H2.76556H24.89ZM25.19 11.0622V10.7622H24.89H2.76556H2.46556V11.0622V16.5933C2.46556 18.2864 3.83805 19.6589 5.53111 19.6589H22.1244C23.8175 19.6589 25.19 18.2864 25.19 16.5933V11.0622ZM0.3 5.53111C0.3 2.64205 2.64205 0.3 5.53111 0.3H22.1244C25.0135 0.3 27.3556 2.64205 27.3556 5.53111V16.5933C27.3556 19.4823 25.0135 21.8244 22.1244 21.8244H5.53111C2.64205 21.8244 0.3 19.4823 0.3 16.5933V5.53111Z" fill="white" stroke="#FF8833" stroke-width="0.6"/>
</svg>
