<svg width="34" height="34" viewBox="0 0 34 34" fill="none" xmlns="http://www.w3.org/2000/svg">
<path d="M16.9999 16.7917C16.1953 16.7917 15.4087 17.0303 14.7396 17.4774C14.0706 17.9244 13.5491 18.5598 13.2412 19.3032C12.9333 20.0466 12.8527 20.8646 13.0097 21.6538C13.1667 22.443 13.5542 23.1679 14.1231 23.7369C14.6921 24.3059 15.417 24.6933 16.2062 24.8503C16.9954 25.0073 17.8134 24.9267 18.5568 24.6188C19.3002 24.3109 19.9356 23.7894 20.3826 23.1204C20.8297 22.4513 21.0683 21.6648 21.0683 20.8601C21.0683 19.7811 20.6397 18.7463 19.8767 17.9833C19.1137 17.2204 18.0789 16.7917 16.9999 16.7917ZM16.9999 22.2162C16.7317 22.2162 16.4695 22.1367 16.2465 21.9877C16.0235 21.8387 15.8497 21.6269 15.747 21.3791C15.6444 21.1313 15.6175 20.8586 15.6698 20.5955C15.7222 20.3325 15.8513 20.0908 16.041 19.9012C16.2306 19.7115 16.4723 19.5824 16.7353 19.53C16.9984 19.4777 17.2711 19.5046 17.5189 19.6072C17.7667 19.7099 17.9785 19.8837 18.1275 20.1067C18.2765 20.3297 18.356 20.5919 18.356 20.8601C18.356 21.2198 18.2132 21.5647 17.9588 21.819C17.7045 22.0734 17.3596 22.2162 16.9999 22.2162ZM16.0371 13.6862C16.166 13.8097 16.3181 13.9064 16.4846 13.971C16.6469 14.0427 16.8224 14.0798 16.9999 14.0798C17.1774 14.0798 17.3529 14.0427 17.5152 13.971C17.6817 13.9064 17.8338 13.8097 17.9628 13.6862L21.0683 10.6349C21.3308 10.3724 21.4784 10.0163 21.4784 9.64495C21.4784 9.27364 21.3308 8.91753 21.0683 8.65497C20.8057 8.39242 20.4496 8.24492 20.0783 8.24492C19.707 8.24492 19.3509 8.39242 19.0883 8.65497L18.356 9.45509V4.5866C18.356 4.22693 18.2132 3.88199 17.9588 3.62767C17.7045 3.37335 17.3596 3.23047 16.9999 3.23047C16.6402 3.23047 16.2953 3.37335 16.041 3.62767C15.7867 3.88199 15.6438 4.22693 15.6438 4.5866V9.45509L14.9115 8.65497C14.6489 8.39242 14.2928 8.24492 13.9215 8.24492C13.5502 8.24492 13.1941 8.39242 12.9315 8.65497C12.669 8.91753 12.5215 9.27364 12.5215 9.64495C12.5215 10.0163 12.669 10.3724 12.9315 10.6349L16.0371 13.6862ZM26.4928 20.8601C26.4928 20.5919 26.4133 20.3297 26.2643 20.1067C26.1152 19.8837 25.9034 19.7099 25.6556 19.6072C25.4078 19.5046 25.1352 19.4777 24.8721 19.53C24.609 19.5824 24.3674 19.7115 24.1777 19.9012C23.9881 20.0908 23.8589 20.3325 23.8066 20.5955C23.7543 20.8586 23.7811 21.1313 23.8838 21.3791C23.9864 21.6269 24.1602 21.8387 24.3832 21.9877C24.6063 22.1367 24.8685 22.2162 25.1367 22.2162C25.4963 22.2162 25.8413 22.0734 26.0956 21.819C26.3499 21.5647 26.4928 21.2198 26.4928 20.8601ZM27.8489 11.3672H23.7805C23.4209 11.3672 23.0759 11.5101 22.8216 11.7644C22.5673 12.0188 22.4244 12.3637 22.4244 12.7234C22.4244 13.083 22.5673 13.428 22.8216 13.6823C23.0759 13.9366 23.4209 14.0795 23.7805 14.0795H27.8489C28.2086 14.0795 28.5535 14.2224 28.8079 14.4767C29.0622 14.731 29.2051 15.0759 29.2051 15.4356V26.2846C29.2051 26.6443 29.0622 26.9892 28.8079 27.2435C28.5535 27.4979 28.2086 27.6407 27.8489 27.6407H6.1509C5.79123 27.6407 5.4463 27.4979 5.19197 27.2435C4.93765 26.9892 4.79477 26.6443 4.79477 26.2846V15.4356C4.79477 15.0759 4.93765 14.731 5.19197 14.4767C5.4463 14.2224 5.79123 14.0795 6.1509 14.0795H10.2193C10.5789 14.0795 10.9239 13.9366 11.1782 13.6823C11.4325 13.428 11.5754 13.083 11.5754 12.7234C11.5754 12.3637 11.4325 12.0188 11.1782 11.7644C10.9239 11.5101 10.5789 11.3672 10.2193 11.3672H6.1509C5.0719 11.3672 4.03709 11.7959 3.27412 12.5588C2.51115 13.3218 2.08252 14.3566 2.08252 15.4356V26.2846C2.08252 27.3636 2.51115 28.3984 3.27412 29.1614C4.03709 29.9244 5.0719 30.353 6.1509 30.353H27.8489C28.9279 30.353 29.9627 29.9244 30.7257 29.1614C31.4887 28.3984 31.9173 27.3636 31.9173 26.2846V15.4356C31.9173 14.3566 31.4887 13.3218 30.7257 12.5588C29.9627 11.7959 28.9279 11.3672 27.8489 11.3672ZM7.50703 20.8601C7.50703 21.1283 7.58656 21.3905 7.73557 21.6135C7.88459 21.8366 8.09639 22.0104 8.34419 22.113C8.59199 22.2157 8.86466 22.2425 9.12772 22.1902C9.39078 22.1379 9.63242 22.0087 9.82208 21.819C10.0117 21.6294 10.1409 21.3877 10.1932 21.1247C10.2455 20.8616 10.2187 20.5889 10.1161 20.3411C10.0134 20.0933 9.83959 19.8815 9.61658 19.7325C9.39356 19.5835 9.13137 19.504 8.86315 19.504C8.50349 19.504 8.15855 19.6469 7.90423 19.9012C7.6499 20.1555 7.50703 20.5004 7.50703 20.8601Z" fill="#9F66DB"/>
</svg>
