<svg width="78" height="80" viewBox="0 0 78 80" fill="none" xmlns="http://www.w3.org/2000/svg">
<path d="M49.225 0.129997C48.635 0.149997 48.055 0.259998 47.455 0.419998L6.89503 10.48C2.09503 11.68 -0.904969 16.61 0.275031 21.49L5.95496 45.13C6.30496 46.54 6.97505 47.84 7.91505 48.93C8.85505 50.02 10.045 50.86 11.365 51.39V45.69C11.365 37.31 18.065 30.5 26.285 30.5H63.865L58.275 7.05C57.775 5.01 56.605 3.21 54.955 1.95C53.315 0.689999 51.285 0.0399985 49.225 0.119999V0.129997ZM52.865 13.23L55.285 23.58L45.215 26.05L42.6951 15.8L52.865 13.24V13.23ZM26.285 36.58C21.345 36.58 17.335 40.66 17.335 45.69V70C17.335 75.03 21.345 79.11 26.285 79.11H68.0651C73.0051 79.11 77.015 75.03 77.015 70V45.69C77.015 40.66 73.0051 36.58 68.0651 36.58H26.285ZM26.285 41.42H68.0651C70.3651 41.42 72.255 43.35 72.255 45.69V48.73H22.095V45.69C22.095 43.35 23.985 41.42 26.285 41.42ZM22.095 57.84H72.255V69.99C72.255 72.33 70.3651 74.26 68.0651 74.26H26.285C25.175 74.26 24.1151 73.8 23.3251 73C22.5451 72.2 22.095 71.12 22.095 69.99V57.84Z" fill="#797979"/>
</svg>
