<svg width="106" height="80" viewBox="0 0 106 80" fill="none" xmlns="http://www.w3.org/2000/svg">
<path d="M39.745 30.06C39.745 35.55 35.295 39.99 29.815 39.99C24.335 39.99 19.885 35.54 19.885 30.06C19.885 24.58 24.335 20.13 29.815 20.13C35.295 20.13 39.745 24.58 39.745 30.06Z" fill="#797979"/>
<path d="M13.255 51.24C13.255 47.77 16.065 44.96 19.535 44.96H40.075C43.545 44.96 46.355 47.77 46.355 51.24C46.355 56.85 42.535 61.74 37.095 63.1L36.705 63.2C32.175 64.33 27.435 64.33 22.895 63.2L22.505 63.1C17.065 61.74 13.245 56.85 13.245 51.24H13.255Z" fill="#797979"/>
<path d="M62.925 26.75C61.095 26.75 59.615 28.23 59.615 30.06C59.615 31.89 61.095 33.37 62.925 33.37H82.785C84.615 33.37 86.095 31.89 86.095 30.06C86.095 28.23 84.615 26.75 82.785 26.75H62.925Z" fill="#797979"/>
<path d="M62.925 46.61C61.095 46.61 59.615 48.09 59.615 49.92C59.615 51.75 61.095 53.23 62.925 53.23H82.785C84.615 53.23 86.095 51.75 86.095 49.92C86.095 48.09 84.615 46.61 82.785 46.61H62.925Z" fill="#797979"/>
<path d="M0.0150146 11.85C0.0150146 5.45001 5.20504 0.26001 11.605 0.26001H94.375C100.775 0.26001 105.965 5.45001 105.965 11.85V68.14C105.965 74.54 100.775 79.73 94.375 79.73H11.605C5.20504 79.73 0.0150146 74.54 0.0150146 68.14V11.85ZM11.605 6.88001C8.86504 6.88001 6.63501 9.10001 6.63501 11.85V68.14C6.63501 70.88 8.85504 73.11 11.605 73.11H94.375C97.115 73.11 99.345 70.89 99.345 68.14V11.85C99.345 9.11001 97.125 6.88001 94.375 6.88001H11.605Z" fill="#797979"/>
</svg>
