<svg width="32" height="33" viewBox="0 0 32 33" fill="none" xmlns="http://www.w3.org/2000/svg">
<path d="M16.8477 32.9908C8.77493 33.076 1.77718 27.3727 0.332961 19.6712C-0.822413 13.53 1.04167 8.28795 5.72868 4.08315C8.27169 1.80297 11.3179 0.527718 14.7245 0.0928394C15.1295 0.0399487 15.5404 0.0164418 15.9484 0.00174991C16.6035 -0.0188187 16.7166 0.136915 16.4963 0.736342C16.0675 1.90288 15.7489 3.09879 15.6089 4.33291C15.2635 7.31535 15.6268 10.2096 16.9042 12.9482C19.1703 17.8053 22.9134 20.9611 28.1751 22.3216C29.2352 22.5949 30.3221 22.7007 31.4119 22.7771C32.0253 22.8211 32.1266 23.0209 31.8645 23.5616C30.739 25.8888 29.1488 27.8575 27.0971 29.456C24.6196 31.3865 21.8056 32.5236 18.676 32.8997C18.0358 32.9761 17.3896 33.0202 16.8477 32.9908Z" fill="#00B1BB"/>
</svg>
