<svg width="43" height="43" viewBox="0 0 43 43" fill="none" xmlns="http://www.w3.org/2000/svg">
<path d="M25.1489 19.2873H23.3955V12.2738H26.9023C27.3673 12.2738 27.8133 12.4585 28.1421 12.7873C28.471 13.1161 28.6557 13.5621 28.6557 14.0271C28.6557 14.4922 28.8404 14.9382 29.1692 15.267C29.4981 15.5958 29.944 15.7805 30.4091 15.7805C30.8741 15.7805 31.3201 15.5958 31.6489 15.267C31.9777 14.9382 32.1625 14.4922 32.1625 14.0271C32.1625 12.6321 31.6083 11.2941 30.6218 10.3077C29.6353 9.32119 28.2974 8.76699 26.9023 8.76699H23.3955V5.26022C23.3955 4.79519 23.2108 4.34921 22.882 4.02039C22.5531 3.69157 22.1072 3.50684 21.6421 3.50684C21.1771 3.50684 20.7311 3.69157 20.4023 4.02039C20.0735 4.34921 19.8888 4.79519 19.8888 5.26022V8.76699H18.1354C16.2753 8.76699 14.4913 9.50592 13.176 10.8212C11.8608 12.1365 11.1218 13.9204 11.1218 15.7805C11.1218 17.6406 11.8608 19.4246 13.176 20.7399C14.4913 22.0552 16.2753 22.7941 18.1354 22.7941H19.8888V29.8076H16.382C15.917 29.8076 15.471 29.6229 15.1422 29.2941C14.8133 28.9652 14.6286 28.5193 14.6286 28.0542C14.6286 27.5892 14.4439 27.1432 14.115 26.8144C13.7862 26.4856 13.3402 26.3008 12.8752 26.3008C12.4102 26.3008 11.9642 26.4856 11.6354 26.8144C11.3066 27.1432 11.1218 27.5892 11.1218 28.0542C11.1218 29.4493 11.676 30.7873 12.6625 31.7737C13.649 32.7602 14.9869 33.3144 16.382 33.3144H19.8888V36.8212C19.8888 37.2862 20.0735 37.7322 20.4023 38.061C20.7311 38.3898 21.1771 38.5745 21.6421 38.5745C22.1072 38.5745 22.5531 38.3898 22.882 38.061C23.2108 37.7322 23.3955 37.2862 23.3955 36.8212V33.3144H25.1489C27.009 33.3144 28.7929 32.5755 30.1082 31.2602C31.4235 29.9449 32.1625 28.161 32.1625 26.3008C32.1625 24.4407 31.4235 22.6568 30.1082 21.3415C28.7929 20.0262 27.009 19.2873 25.1489 19.2873V19.2873ZM19.8888 19.2873H18.1354C17.2053 19.2873 16.3134 18.9178 15.6557 18.2602C14.9981 17.6025 14.6286 16.7106 14.6286 15.7805C14.6286 14.8505 14.9981 13.9585 15.6557 13.3009C16.3134 12.6432 17.2053 12.2738 18.1354 12.2738H19.8888V19.2873ZM25.1489 29.8076H23.3955V22.7941H25.1489C26.079 22.7941 26.9709 23.1635 27.6286 23.8212C28.2862 24.4788 28.6557 25.3708 28.6557 26.3008C28.6557 27.2309 28.2862 28.1229 27.6286 28.7805C26.9709 29.4382 26.079 29.8076 25.1489 29.8076Z" fill="#FFA666"/>
</svg>
