<svg width="26" height="23" viewBox="0 0 26 23" fill="none" xmlns="http://www.w3.org/2000/svg">
<path d="M25.5851 21.5742C25.3559 21.5742 25.1702 21.76 25.1702 21.9891V22.1274H0.829766V21.9891C0.829766 21.76 0.644059 21.5742 0.414883 21.5742C0.185707 21.5742 0 21.76 0 21.9891V22.5423C0 22.7714 0.185707 22.9572 0.414883 22.9572H25.5851C25.8143 22.9572 26 22.7714 26 22.5423V21.9891C26 21.76 25.8143 21.5742 25.5851 21.5742Z" fill="white"/>
<path d="M25.5851 21.5742C25.3559 21.5742 25.1702 21.76 25.1702 21.9891V22.1274H0.829766V21.9891C0.829766 21.76 0.644059 21.5742 0.414883 21.5742C0.185707 21.5742 0 21.76 0 21.9891V22.5423C0 22.7714 0.185707 22.9572 0.414883 22.9572H25.5851C25.8143 22.9572 26 22.7714 26 22.5423V21.9891C26 21.76 25.8143 21.5742 25.5851 21.5742Z" stroke="white"/>
<path d="M25.5851 19.3613C25.3559 19.3613 25.1702 19.5471 25.1702 19.7762V19.9145H0.829766V19.7762C0.829766 19.5471 0.644059 19.3613 0.414883 19.3613C0.185707 19.3613 0 19.5471 0 19.7762V20.3294C0 20.5585 0.185707 20.7443 0.414883 20.7443H25.5851C25.8143 20.7443 26 20.5585 26 20.3294V19.7762C26 19.5471 25.8143 19.3613 25.5851 19.3613Z" fill="white"/>
<path d="M25.5851 19.3613C25.3559 19.3613 25.1702 19.5471 25.1702 19.7762V19.9145H0.829766V19.7762C0.829766 19.5471 0.644059 19.3613 0.414883 19.3613C0.185707 19.3613 0 19.5471 0 19.7762V20.3294C0 20.5585 0.185707 20.7443 0.414883 20.7443H25.5851C25.8143 20.7443 26 20.5585 26 20.3294V19.7762C26 19.5471 25.8143 19.3613 25.5851 19.3613Z" stroke="white"/>
<path d="M25.5851 17.1484C25.3559 17.1484 25.1702 17.3342 25.1702 17.5633V17.7016H0.829766V17.5633C0.829766 17.3342 0.644059 17.1484 0.414883 17.1484C0.185707 17.1484 0 17.3342 0 17.5633V18.1165C0 18.3457 0.185707 18.5314 0.414883 18.5314H25.5851C25.8143 18.5314 26 18.3457 26 18.1165V17.5633C26 17.3342 25.8143 17.1484 25.5851 17.1484Z" fill="white"/>
<path d="M25.5851 17.1484C25.3559 17.1484 25.1702 17.3342 25.1702 17.5633V17.7016H0.829766V17.5633C0.829766 17.3342 0.644059 17.1484 0.414883 17.1484C0.185707 17.1484 0 17.3342 0 17.5633V18.1165C0 18.3457 0.185707 18.5314 0.414883 18.5314H25.5851C25.8143 18.5314 26 18.3457 26 18.1165V17.5633C26 17.3342 25.8143 17.1484 25.5851 17.1484Z" stroke="white"/>
<path d="M25.5851 0H0.414883C0.185707 0 0 0.185758 0 0.414883V15.9042C0 16.1334 0.185707 16.3191 0.414883 16.3191H25.5851C25.8143 16.3191 26 16.1334 26 15.9042V0.414933C26 0.185808 25.8143 0 25.5851 0ZM25.1702 15.4894H0.829766V0.829816H25.1702V15.4894Z" fill="white"/>
<path d="M25.5851 0H0.414883C0.185707 0 0 0.185758 0 0.414883V15.9042C0 16.1334 0.185707 16.3191 0.414883 16.3191H25.5851C25.8143 16.3191 26 16.1334 26 15.9042V0.414933C26 0.185808 25.8143 0 25.5851 0ZM25.1702 15.4894H0.829766V0.829816H25.1702V15.4894Z" stroke="white"/>
<path d="M13.0001 3.87207C10.6362 3.87207 8.71289 5.79531 8.71289 8.15933C8.71289 10.5233 10.6362 12.4466 13.0001 12.4466C15.3641 12.4466 17.2874 10.5233 17.2874 8.15933C17.2874 5.79531 15.3641 3.87207 13.0001 3.87207ZM16.4318 7.7444H14.6983C14.662 6.69368 14.4871 5.64378 14.16 4.90257C15.3723 5.33569 16.2735 6.42718 16.4318 7.7444ZM9.5685 8.57421H11.3019C11.3382 9.62467 11.5129 10.6747 11.8398 11.4158C10.6277 10.9826 9.72679 9.89122 9.5685 8.57421ZM11.3018 7.7444H9.56845C9.72679 6.42738 10.6277 5.33594 11.8397 4.90278C11.5128 5.64388 11.3381 6.69393 11.3018 7.7444ZM13.5192 10.7663C13.2861 11.4654 13.0468 11.6168 13 11.6168C12.9533 11.6168 12.714 11.4654 12.4809 10.7663C12.2833 10.1735 12.1622 9.40667 12.1319 8.57421H13.8682C13.8379 9.40662 13.7169 10.1735 13.5192 10.7663ZM12.1321 7.7444C12.1624 6.91194 12.2834 6.14514 12.4811 5.55232C12.7141 4.85321 12.9534 4.70184 13.0001 4.70184C13.0469 4.70184 13.2862 4.85316 13.5193 5.55232C13.7169 6.14514 13.838 6.91194 13.8683 7.7444H12.1321ZM14.16 11.416C14.4871 10.6748 14.6621 9.62498 14.6984 8.57416H16.4318C16.2735 9.89143 15.3722 10.983 14.16 11.416Z" fill="white"/>
<path d="M13.0001 3.87207C10.6362 3.87207 8.71289 5.79531 8.71289 8.15933C8.71289 10.5233 10.6362 12.4466 13.0001 12.4466C15.3641 12.4466 17.2874 10.5233 17.2874 8.15933C17.2874 5.79531 15.3641 3.87207 13.0001 3.87207ZM16.4318 7.7444H14.6983C14.662 6.69368 14.4871 5.64378 14.16 4.90257C15.3723 5.33569 16.2735 6.42718 16.4318 7.7444ZM9.5685 8.57421H11.3019C11.3382 9.62467 11.5129 10.6747 11.8398 11.4158C10.6277 10.9826 9.72679 9.89122 9.5685 8.57421ZM11.3018 7.7444H9.56845C9.72679 6.42738 10.6277 5.33594 11.8397 4.90278C11.5128 5.64388 11.3381 6.69393 11.3018 7.7444ZM13.5192 10.7663C13.2861 11.4654 13.0468 11.6168 13 11.6168C12.9533 11.6168 12.714 11.4654 12.4809 10.7663C12.2833 10.1735 12.1622 9.40667 12.1319 8.57421H13.8682C13.8379 9.40662 13.7169 10.1735 13.5192 10.7663ZM12.1321 7.7444C12.1624 6.91194 12.2834 6.14514 12.4811 5.55232C12.7141 4.85321 12.9534 4.70184 13.0001 4.70184C13.0469 4.70184 13.2862 4.85316 13.5193 5.55232C13.7169 6.14514 13.838 6.91194 13.8683 7.7444H12.1321ZM14.16 11.416C14.4871 10.6748 14.6621 9.62498 14.6984 8.57416H16.4318C16.2735 9.89143 15.3722 10.983 14.16 11.416Z" stroke="white"/>
<path d="M5.60114 6.91504C4.91484 6.91504 4.35645 7.47338 4.35645 8.15974C4.35645 8.8461 4.91484 9.40444 5.60114 9.40444C6.28745 9.40444 6.84584 8.8461 6.84584 8.15974C6.84584 7.47338 6.28745 6.91504 5.60114 6.91504ZM5.60114 8.57462C5.37232 8.57462 5.18626 8.38851 5.18626 8.15974C5.18626 7.93097 5.37237 7.74485 5.60114 7.74485C5.82996 7.74485 6.01603 7.93097 6.01603 8.15974C6.01603 8.38851 5.82991 8.57462 5.60114 8.57462Z" fill="white"/>
<path d="M5.60114 6.91504C4.91484 6.91504 4.35645 7.47338 4.35645 8.15974C4.35645 8.8461 4.91484 9.40444 5.60114 9.40444C6.28745 9.40444 6.84584 8.8461 6.84584 8.15974C6.84584 7.47338 6.28745 6.91504 5.60114 6.91504ZM5.60114 8.57462C5.37232 8.57462 5.18626 8.38851 5.18626 8.15974C5.18626 7.93097 5.37237 7.74485 5.60114 7.74485C5.82996 7.74485 6.01603 7.93097 6.01603 8.15974C6.01603 8.38851 5.82991 8.57462 5.60114 8.57462Z" stroke="white"/>
<path d="M20.399 6.91504C19.7127 6.91504 19.1543 7.47338 19.1543 8.15974C19.1543 8.8461 19.7127 9.40444 20.399 9.40444C21.0853 9.40444 21.6437 8.8461 21.6437 8.15974C21.6437 7.47338 21.0853 6.91504 20.399 6.91504ZM20.399 8.57462C20.1702 8.57462 19.9841 8.38851 19.9841 8.15974C19.9841 7.93097 20.1702 7.74485 20.399 7.74485C20.6278 7.74485 20.8139 7.93097 20.8139 8.15974C20.8139 8.38851 20.6278 8.57462 20.399 8.57462Z" fill="white"/>
<path d="M20.399 6.91504C19.7127 6.91504 19.1543 7.47338 19.1543 8.15974C19.1543 8.8461 19.7127 9.40444 20.399 9.40444C21.0853 9.40444 21.6437 8.8461 21.6437 8.15974C21.6437 7.47338 21.0853 6.91504 20.399 6.91504ZM20.399 8.57462C20.1702 8.57462 19.9841 8.38851 19.9841 8.15974C19.9841 7.93097 20.1702 7.74485 20.399 7.74485C20.6278 7.74485 20.8139 7.93097 20.8139 8.15974C20.8139 8.38851 20.6278 8.57462 20.399 8.57462Z" stroke="white"/>
<path d="M23.9251 3.31876C23.2388 3.31876 22.6804 2.76042 22.6804 2.07406C22.6804 1.84494 22.4947 1.65918 22.2656 1.65918H3.73364C3.50447 1.65918 3.31876 1.84494 3.31876 2.07406C3.31876 2.76042 2.76037 3.31876 2.07406 3.31876C1.84489 3.31876 1.65918 3.50452 1.65918 3.73364V12.5847C1.65918 12.8138 1.84489 12.9996 2.07406 12.9996C2.76037 12.9996 3.31876 13.5579 3.31876 14.2443C3.31876 14.4734 3.50447 14.6592 3.73364 14.6592H22.2656C22.4947 14.6592 22.6804 14.4734 22.6804 14.2443C22.6804 13.5579 23.2388 12.9996 23.9251 12.9996C24.1543 12.9996 24.34 12.8138 24.34 12.5847V3.73364C24.34 3.50452 24.1543 3.31876 23.9251 3.31876ZM23.5103 12.2115C22.6987 12.3769 22.0578 13.0179 21.8923 13.8295H4.10689C3.94144 13.0178 3.30053 12.377 2.48895 12.2115V4.10689C3.30053 3.94149 3.94139 3.30053 4.10689 2.48895H21.8923C22.0578 3.30053 22.6987 3.94139 23.5103 4.10689V12.2115Z" fill="white"/>
<path d="M23.9251 3.31876C23.2388 3.31876 22.6804 2.76042 22.6804 2.07406C22.6804 1.84494 22.4947 1.65918 22.2656 1.65918H3.73364C3.50447 1.65918 3.31876 1.84494 3.31876 2.07406C3.31876 2.76042 2.76037 3.31876 2.07406 3.31876C1.84489 3.31876 1.65918 3.50452 1.65918 3.73364V12.5847C1.65918 12.8138 1.84489 12.9996 2.07406 12.9996C2.76037 12.9996 3.31876 13.5579 3.31876 14.2443C3.31876 14.4734 3.50447 14.6592 3.73364 14.6592H22.2656C22.4947 14.6592 22.6804 14.4734 22.6804 14.2443C22.6804 13.5579 23.2388 12.9996 23.9251 12.9996C24.1543 12.9996 24.34 12.8138 24.34 12.5847V3.73364C24.34 3.50452 24.1543 3.31876 23.9251 3.31876ZM23.5103 12.2115C22.6987 12.3769 22.0578 13.0179 21.8923 13.8295H4.10689C3.94144 13.0178 3.30053 12.377 2.48895 12.2115V4.10689C3.30053 3.94149 3.94139 3.30053 4.10689 2.48895H21.8923C22.0578 3.30053 22.6987 3.94139 23.5103 4.10689V12.2115Z" stroke="white"/>
</svg>
