<svg width="45" height="45" viewBox="0 0 45 45" fill="none" xmlns="http://www.w3.org/2000/svg">
<path d="M35.625 37.5H9.375C8.87772 37.5 8.40081 37.6975 8.04918 38.0492C7.69754 38.4008 7.5 38.8777 7.5 39.375C7.5 39.8723 7.69754 40.3492 8.04918 40.7008C8.40081 41.0525 8.87772 41.25 9.375 41.25H35.625C36.1223 41.25 36.5992 41.0525 36.9508 40.7008C37.3025 40.3492 37.5 39.8723 37.5 39.375C37.5 38.8777 37.3025 38.4008 36.9508 38.0492C36.5992 37.6975 36.1223 37.5 35.625 37.5ZM21.1687 33.2062C21.3471 33.3769 21.5573 33.5108 21.7875 33.6C22.0119 33.6992 22.2546 33.7504 22.5 33.7504C22.7454 33.7504 22.9881 33.6992 23.2125 33.6C23.4427 33.5108 23.6529 33.3769 23.8312 33.2062L31.3312 25.7062C31.6843 25.3532 31.8827 24.8743 31.8827 24.375C31.8827 23.8757 31.6843 23.3968 31.3312 23.0438C30.9782 22.6907 30.4993 22.4923 30 22.4923C29.5007 22.4923 29.0218 22.6907 28.6688 23.0438L24.375 27.3563V5.625C24.375 5.12772 24.1775 4.65081 23.8258 4.29917C23.4742 3.94754 22.9973 3.75 22.5 3.75C22.0027 3.75 21.5258 3.94754 21.1742 4.29917C20.8225 4.65081 20.625 5.12772 20.625 5.625V27.3563L16.3313 23.0438C16.1564 22.8689 15.9489 22.7303 15.7205 22.6356C15.4921 22.541 15.2472 22.4923 15 22.4923C14.7528 22.4923 14.5079 22.541 14.2795 22.6356C14.0511 22.7303 13.8436 22.8689 13.6687 23.0438C13.4939 23.2186 13.3553 23.4261 13.2606 23.6545C13.166 23.8829 13.1173 24.1278 13.1173 24.375C13.1173 24.6222 13.166 24.8671 13.2606 25.0955C13.3553 25.3239 13.4939 25.5314 13.6687 25.7062L21.1687 33.2062Z" fill="white"/>
</svg>
