<svg width="63" height="63" viewBox="0 0 63 63" fill="none" xmlns="http://www.w3.org/2000/svg">
<circle cx="31.5" cy="31.5" r="31.5" fill="#F0001D"/>
<g clip-path="url(#clip0_2160_3540)">
<path d="M22.5963 38.8621C22.8287 38.6331 23.1446 38.4676 23.4291 38.2914C24.0021 37.9313 24.6004 37.6132 25.2194 37.3396C25.8853 37.0349 26.4149 36.4947 26.7065 35.823C26.9981 35.1513 27.0309 34.3954 26.7987 33.7009L26.5626 32.9964C28.1559 32.5549 29.8022 32.3341 31.4555 32.3403C33.1087 32.3585 34.7516 32.6036 36.3381 33.0686L36.1859 33.8017C35.9434 34.4927 35.9651 35.249 36.2467 35.9249C36.5283 36.6009 37.0499 37.1488 37.7113 37.4633C38.3242 37.7498 38.9175 38.0765 39.4872 38.4414C39.7691 38.6218 40.0508 38.8232 40.322 39.035C41.1836 39.6528 42.2376 39.9427 43.294 39.8525C44.3504 39.7622 45.3399 39.2977 46.0843 38.5426L49.2541 35.4192C49.7137 34.9748 50.0722 34.4366 50.305 33.8412C50.5379 33.2458 50.6398 32.6072 50.6037 31.9689C50.5676 31.3306 50.3944 30.7076 50.0959 30.1422C49.7973 29.5769 49.3805 29.0825 48.8738 28.6927C43.9492 24.8208 37.8749 22.6999 31.6106 22.665C25.3462 22.6301 19.2487 24.6833 14.2813 28.5002L13.8798 28.8958C13.0995 29.6624 12.6289 30.6895 12.5578 31.7811C12.5182 32.4094 12.6123 33.0391 12.8339 33.6284C13.0556 34.2177 13.3998 34.7532 13.8438 35.1996L16.9671 38.3695C17.7033 39.0907 18.6669 39.534 19.6935 39.6239C20.7201 39.7137 21.7461 39.4445 22.5963 38.8621V38.8621ZM15.8212 33.0429C15.6736 32.8927 15.5596 32.7128 15.4869 32.5151C15.4142 32.3174 15.3844 32.1066 15.3996 31.8965C15.4172 31.6782 15.4802 31.466 15.5846 31.2735C15.689 31.081 15.8324 30.9125 16.0057 30.7786C20.4628 27.3869 25.9223 25.5755 31.5229 25.6301C37.1235 25.6848 42.5465 27.6024 46.9366 31.0805C47.1059 31.2187 47.2454 31.3898 47.3468 31.5835C47.4481 31.7771 47.5091 31.9893 47.5261 32.2072C47.5382 32.4175 47.5053 32.6279 47.4297 32.8245C47.3541 33.0211 47.2375 33.1993 47.0877 33.3473L43.9178 36.4707C43.6775 36.7183 43.3583 36.8743 43.0154 36.912C42.6724 36.9497 42.327 36.8666 42.0387 36.6771C41.7118 36.4299 41.3779 36.1967 41.0369 35.9774C40.366 35.5407 39.6642 35.1534 38.9371 34.8186L39.7396 32.6742C39.8089 32.4915 39.8414 32.297 39.8353 32.1017C39.8293 31.9064 39.7846 31.7143 39.7041 31.5363C39.6235 31.3583 39.5086 31.198 39.3659 31.0646C39.2233 30.9311 39.0556 30.8272 38.8726 30.7587C34.1424 28.9998 28.9441 28.9614 24.1884 30.6502C23.827 30.798 23.5385 31.0823 23.3853 31.4415C23.3 31.6185 23.2507 31.8106 23.2402 32.0068C23.2298 32.203 23.2584 32.3993 23.3245 32.5844L24.1269 34.7092C23.3882 35.052 22.6708 35.4391 21.9785 35.8681C21.6343 36.0823 21.297 36.3106 20.9665 36.5529C20.6754 36.7381 20.3288 36.8161 19.9864 36.7734C19.6441 36.7306 19.3273 36.5699 19.0906 36.3188L15.8212 33.0429Z" fill="white"/>
</g>
<defs>
<clipPath id="clip0_2160_3540">
<rect width="35.601" height="35.601" fill="white" transform="translate(56.6709 32.3589) rotate(135.423)"/>
</clipPath>
</defs>
</svg>
