<svg width="39" height="40" viewBox="0 0 39 40" fill="none" xmlns="http://www.w3.org/2000/svg">
<path d="M29.24 31.6974H9.76413C8.4728 31.6974 7.23436 31.1789 6.32125 30.2558C5.40814 29.3328 4.89516 28.0809 4.89516 26.7755V13.6504C4.89516 13.2153 4.72416 12.798 4.41979 12.4903C4.11542 12.1827 3.70261 12.0098 3.27216 12.0098C2.84172 12.0098 2.4289 12.1827 2.12453 12.4903C1.82016 12.798 1.64917 13.2153 1.64917 13.6504V26.7755C1.64917 28.9511 2.50414 31.0376 4.02599 32.576C4.77953 33.3378 5.67412 33.942 6.65867 34.3542C7.64322 34.7665 8.69846 34.9787 9.76413 34.9787H29.24C29.6705 34.9787 30.0833 34.8058 30.3877 34.4981C30.692 34.1905 30.863 33.7732 30.863 33.338C30.863 32.9029 30.692 32.4856 30.3877 32.1779C30.0833 31.8703 29.6705 31.6974 29.24 31.6974ZM22.7481 18.5723H16.2561C15.8257 18.5723 15.4128 18.7452 15.1085 19.0529C14.8041 19.3605 14.6331 19.7778 14.6331 20.213C14.6331 20.6481 14.8041 21.0654 15.1085 21.3731C15.4128 21.6808 15.8257 21.8536 16.2561 21.8536H22.7481C23.1785 21.8536 23.5913 21.6808 23.8957 21.3731C24.2001 21.0654 24.3711 20.6481 24.3711 20.213C24.3711 19.7778 24.2001 19.3605 23.8957 19.0529C23.5913 18.7452 23.1785 18.5723 22.7481 18.5723ZM37.355 16.8333C37.3381 16.6825 37.3055 16.5341 37.2576 16.3903V16.2426C37.1796 16.0739 37.0755 15.9189 36.9493 15.7833V15.7833L27.2113 5.93946C27.0771 5.81184 26.9237 5.70662 26.7569 5.62774H26.6108C26.4459 5.53215 26.2638 5.4708 26.0752 5.44727H13.0101C11.7188 5.44727 10.4803 5.96582 9.56723 6.88886C8.65412 7.81189 8.14114 9.0638 8.14114 10.3692V23.4942C8.14114 24.7996 8.65412 26.0515 9.56723 26.9745C10.4803 27.8976 11.7188 28.4161 13.0101 28.4161H32.486C33.7774 28.4161 35.0158 27.8976 35.9289 26.9745C36.842 26.0515 37.355 24.7996 37.355 23.4942V16.9317C37.355 16.9317 37.355 16.9317 37.355 16.8333ZM27.6171 11.0418L31.8206 15.2911H29.24C28.8096 15.2911 28.3968 15.1182 28.0924 14.8105C27.788 14.5029 27.6171 14.0856 27.6171 13.6504V11.0418ZM34.109 23.4942C34.109 23.9294 33.938 24.3467 33.6337 24.6543C33.3293 24.962 32.9165 25.1349 32.486 25.1349H13.0101C12.5797 25.1349 12.1669 24.962 11.8625 24.6543C11.5581 24.3467 11.3871 23.9294 11.3871 23.4942V10.3692C11.3871 9.93404 11.5581 9.51674 11.8625 9.20906C12.1669 8.90139 12.5797 8.72853 13.0101 8.72853H24.3711V13.6504C24.3711 14.9558 24.884 16.2077 25.7972 17.1307C26.7103 18.0538 27.9487 18.5723 29.24 18.5723H34.109V23.4942ZM16.2561 15.2911H19.5021C19.9325 15.2911 20.3453 15.1182 20.6497 14.8105C20.9541 14.5029 21.1251 14.0856 21.1251 13.6504C21.1251 13.2153 20.9541 12.798 20.6497 12.4903C20.3453 12.1827 19.9325 12.0098 19.5021 12.0098H16.2561C15.8257 12.0098 15.4128 12.1827 15.1085 12.4903C14.8041 12.798 14.6331 13.2153 14.6331 13.6504C14.6331 14.0856 14.8041 14.5029 15.1085 14.8105C15.4128 15.1182 15.8257 15.2911 16.2561 15.2911V15.2911Z" fill="#FF8833"/>
</svg>
