<svg width="14" height="14" viewBox="0 0 14 14" fill="none" xmlns="http://www.w3.org/2000/svg">
<path d="M11.2025 0.263672H2.2214C1.71099 0.263672 1.22148 0.466434 0.860557 0.827353C0.499637 1.18827 0.296875 1.67778 0.296875 2.1882V2.93877C0.296783 3.20367 0.351382 3.46575 0.457253 3.70858V3.74707C0.547885 3.95298 0.676259 4.1401 0.835743 4.29877L4.78744 8.22481V12.4524C4.78722 12.5614 4.81479 12.6687 4.86755 12.7641C4.9203 12.8595 4.9965 12.9399 5.08895 12.9976C5.19104 13.0609 5.30884 13.0942 5.42895 13.0939C5.52937 13.0933 5.62825 13.0691 5.71763 13.0233L8.28367 11.7403C8.38946 11.687 8.47843 11.6054 8.54071 11.5046C8.60298 11.4039 8.63614 11.2878 8.6365 11.1693V8.22481L12.5625 4.29877C12.722 4.1401 12.8504 3.95298 12.941 3.74707V3.70858C13.0557 3.46765 13.1191 3.20549 13.1271 2.93877V2.1882C13.1271 1.67778 12.9243 1.18827 12.5634 0.827353C12.2025 0.466434 11.713 0.263672 11.2025 0.263672ZM7.53952 7.50632C7.48006 7.56626 7.43302 7.63735 7.4011 7.71551C7.36917 7.79367 7.35299 7.87736 7.35348 7.96179V10.7716L6.07046 11.4131V7.96179C6.07095 7.87736 6.05477 7.79367 6.02284 7.71551C5.99092 7.63735 5.94388 7.56626 5.88442 7.50632L2.48442 4.11273H10.9395L7.53952 7.50632ZM11.844 2.82971H1.57989V2.1882C1.57989 2.01806 1.64748 1.85489 1.76779 1.73459C1.88809 1.61428 2.05126 1.54669 2.2214 1.54669H11.2025C11.3727 1.54669 11.5358 1.61428 11.6562 1.73459C11.7765 1.85489 11.844 2.01806 11.844 2.1882V2.82971Z" fill="white"/>
</svg>
