<svg width="62" height="72" viewBox="0 0 62 72" fill="none" xmlns="http://www.w3.org/2000/svg">
<path d="M37.6837 45.1682V3.88821C37.6837 2.16021 36.2437 0.720215 34.5157 0.720215C33.2677 0.720215 32.4997 1.29621 31.9237 2.06421L1.01172 46.2242C0.531723 46.8962 0.339722 47.4722 0.339722 48.1442C0.339722 49.7762 1.68372 51.1202 3.31572 51.1202H31.3477V63.6002C31.3477 65.3282 32.7877 66.7682 34.5157 66.7682C36.2437 66.7682 37.6837 65.3282 37.6837 63.6002V51.1202H43.1557C44.8837 51.1202 46.2277 49.7762 46.2277 48.0482C46.2277 46.4162 44.8837 45.1682 43.1557 45.1682H37.6837ZM8.88372 45.1682L31.3477 12.9122V45.1682H8.88372Z" fill="#9F66DB"/>
<path d="M54.4612 66.7682C57.2452 66.7682 58.9732 65.4242 58.9732 62.2562C58.9732 59.0882 57.2452 57.6482 54.4612 57.6482C51.6772 57.6482 49.9492 59.0882 49.9492 62.2562C49.9492 65.4242 51.6772 66.7682 54.4612 66.7682Z" fill="#9F66DB"/>
<path fill-rule="evenodd" clip-rule="evenodd" d="M33.9237 6.06421C34.4997 5.29621 35.2677 4.72021 36.5157 4.72021C38.2437 4.72021 39.6837 6.16021 39.6837 7.88821V49.1682H45.1557C46.8837 49.1682 48.2277 50.4162 48.2277 52.0482C48.2277 53.7762 46.8837 55.1202 45.1557 55.1202H39.6837V67.6002C39.6837 69.3282 38.2437 70.7682 36.5157 70.7682C34.7877 70.7682 33.3477 69.3282 33.3477 67.6002V55.1202H5.31572C3.68372 55.1202 2.33972 53.7762 2.33972 52.1442C2.33972 51.4722 2.53172 50.8962 3.01172 50.2242L33.9237 6.06421ZM32.3477 56.1202H5.31572C3.13144 56.1202 1.33972 54.3285 1.33972 52.1442C1.33972 51.2342 1.61536 50.46 2.19493 49.6473C2.19595 49.6458 2.19697 49.6444 2.19799 49.643L33.1139 5.47733L33.1237 5.46421C33.8362 4.51423 34.8749 3.72021 36.5157 3.72021C38.796 3.72021 40.6837 5.60793 40.6837 7.88821V48.1682H45.1557C47.3714 48.1682 49.2277 49.8015 49.2277 52.0482C49.2277 54.3285 47.436 56.1202 45.1557 56.1202H40.6837V67.6002C40.6837 69.8805 38.796 71.7682 36.5157 71.7682C34.2354 71.7682 32.3477 69.8805 32.3477 67.6002V56.1202ZM10.8837 49.1682H33.3477V16.9122L10.8837 49.1682ZM12.7988 48.1682H32.3477V20.0979L12.7988 48.1682ZM60.4455 70.4294C59.4137 71.3978 57.9987 71.7682 56.4612 71.7682C54.9238 71.7682 53.5088 71.3978 52.4769 70.4294C51.4333 69.45 50.9492 68.0177 50.9492 66.2562C50.9492 64.495 51.4328 63.0469 52.4653 62.0461C53.4919 61.0511 54.9073 60.6482 56.4612 60.6482C58.0152 60.6482 59.4305 61.0511 60.4572 62.0461C61.4897 63.0469 61.9732 64.495 61.9732 66.2562C61.9732 68.0177 61.4892 69.45 60.4455 70.4294ZM60.9732 66.2562C60.9732 69.4242 59.2452 70.7682 56.4612 70.7682C53.6772 70.7682 51.9492 69.4242 51.9492 66.2562C51.9492 63.0882 53.6772 61.6482 56.4612 61.6482C59.2452 61.6482 60.9732 63.0882 60.9732 66.2562Z" fill="#9F66DB"/>
</svg>
