<svg width="26" height="25" viewBox="0 0 26 25" fill="none" xmlns="http://www.w3.org/2000/svg">
<path d="M1 23.6836H24.3369" stroke="white" stroke-width="1.75026" stroke-miterlimit="10" stroke-linecap="round" stroke-linejoin="round"/>
<path d="M2.1084 23.7194L2.16674 9.68224C2.16674 8.97047 2.50512 8.29376 3.06521 7.85035L11.2332 1.49105C12.0733 0.837619 13.2517 0.837619 14.1035 1.49105L22.2715 7.83868C22.8433 8.28208 23.17 8.9588 23.17 9.68224V23.7194" stroke="white" stroke-width="1.75026" stroke-miterlimit="10" stroke-linejoin="round"/>
<path d="M13.8349 17.8496H11.5012C10.5328 17.8496 9.75098 18.6314 9.75098 19.5999V23.6838H15.5852V19.5999C15.5852 18.6314 14.8034 17.8496 13.8349 17.8496Z" stroke="white" stroke-width="1.75026" stroke-miterlimit="10" stroke-linejoin="round"/>
<path d="M9.7515 14.0927H7.41782C6.77606 14.0927 6.25098 13.5677 6.25098 12.9259V11.1756C6.25098 10.5339 6.77606 10.0088 7.41782 10.0088H9.7515C10.3933 10.0088 10.9183 10.5339 10.9183 11.1756V12.9259C10.9183 13.5677 10.3933 14.0927 9.7515 14.0927Z" stroke="white" stroke-width="1.75026" stroke-miterlimit="10" stroke-linejoin="round"/>
<path d="M17.9195 14.0927H15.5858C14.944 14.0927 14.4189 13.5677 14.4189 12.9259V11.1756C14.4189 10.5339 14.944 10.0088 15.5858 10.0088H17.9195C18.5612 10.0088 19.0863 10.5339 19.0863 11.1756V12.9259C19.0863 13.5677 18.5612 14.0927 17.9195 14.0927Z" stroke="white" stroke-width="1.75026" stroke-miterlimit="10" stroke-linejoin="round"/>
<path d="M20.8371 6.21733L20.8021 2.7168H15.668" stroke="white" stroke-width="1.75026" stroke-miterlimit="10" stroke-linecap="round" stroke-linejoin="round"/>
</svg>
