<svg width="70" height="70" viewBox="0 0 70 70" fill="none" xmlns="http://www.w3.org/2000/svg">
<path d="M20.5091 31.6248L20.5084 31.6251C17.9839 32.7275 15.7461 34.3945 13.9673 36.4979C12.1885 38.6013 10.9162 41.0849 10.2484 43.7574C9.58057 46.4299 9.53505 49.22 10.1153 51.9129C10.6956 54.6057 11.8862 57.1295 13.5955 59.2898C15.3047 61.45 17.4869 63.1892 19.9741 64.3733C22.4613 65.5574 25.1871 66.1548 27.9416 66.1196C30.696 66.0844 33.4057 65.4174 35.8618 64.1701C38.3179 62.9228 40.455 61.1284 42.1084 58.9251L42.1085 58.925C42.6522 58.2001 42.8856 57.2889 42.7575 56.3918C42.6293 55.4948 42.1501 54.6854 41.4251 54.1417C40.7002 53.598 39.789 53.3645 38.8919 53.4927C37.9949 53.6208 37.1855 54.1001 36.6418 54.825C35.2356 56.7 33.2751 58.0849 31.038 58.7838C28.8009 59.4826 26.4007 59.4598 24.1773 58.7187C21.9538 57.9775 20.02 56.5556 18.6496 54.6543C17.2793 52.7531 16.5419 50.469 16.5418 48.1255C16.5452 45.9557 17.1806 43.8339 18.3704 42.0194C19.5601 40.205 21.2527 38.7765 23.2412 37.9086C24.0744 37.5463 24.7297 36.8678 25.0627 36.0224C25.3957 35.177 25.3793 34.2339 25.017 33.4007C24.6547 32.5674 23.9762 31.9122 23.1308 31.5791C22.2854 31.2461 21.3424 31.2625 20.5091 31.6248ZM35.0001 19.4584C36.2527 19.4584 37.4772 19.0869 38.5187 18.391C39.5603 17.6951 40.372 16.706 40.8514 15.5487C41.3307 14.3914 41.4561 13.118 41.2118 11.8895C40.9674 10.6609 40.3642 9.53241 39.4785 8.64668C38.5927 7.76095 37.4643 7.15776 36.2357 6.91338C35.0072 6.66901 33.7337 6.79443 32.5765 7.27379C31.4192 7.75314 30.4301 8.5649 29.7342 9.60641C29.0382 10.6479 28.6668 11.8724 28.6668 13.125C28.6668 14.8047 29.3341 16.4156 30.5218 17.6034C31.7095 18.7911 33.3204 19.4584 35.0001 19.4584ZM56.8751 59.2917H54.4585V45.2084C54.4585 44.3022 54.0985 43.4332 53.4578 42.7924C52.817 42.1517 51.948 41.7917 51.0418 41.7917H36.9585V36.9584H51.0418C51.948 36.9584 52.817 36.5984 53.4578 35.9576C54.0985 35.3169 54.4585 34.4478 54.4585 33.5417C54.4585 32.6355 54.0985 31.7665 53.4578 31.1257C52.817 30.485 51.948 30.125 51.0418 30.125H36.9585V24.7917C36.9585 23.8855 36.5985 23.0165 35.9577 22.3757C35.317 21.735 34.448 21.375 33.5418 21.375C32.6356 21.375 31.7666 21.735 31.1259 22.3757C30.4851 23.0165 30.1251 23.8855 30.1251 24.7917V45.2084C30.1251 46.1145 30.4851 46.9836 31.1259 47.6243C31.7666 48.2651 32.6356 48.625 33.5418 48.625H47.6251V62.7084C47.6251 63.6145 47.9851 64.4836 48.6259 65.1243C49.2666 65.7651 50.1356 66.125 51.0418 66.125H56.8751C57.7813 66.125 58.6503 65.7651 59.2911 65.1243C59.9318 64.4836 60.2918 63.6145 60.2918 62.7084C60.2918 61.8022 59.9318 60.9332 59.2911 60.2924C58.6503 59.6517 57.7813 59.2917 56.8751 59.2917Z" fill="white" stroke="#00B1BB"/>
</svg>
