<svg width="73" height="55" viewBox="0 0 73 55" fill="none" xmlns="http://www.w3.org/2000/svg">
<path d="M68.2401 16.7548L58.6718 25.0793L58.6323 25.9172C58.6025 26.3896 58.4455 27.0591 58.1787 27.7587C58.0313 28.1232 57.8627 28.4878 57.6854 28.8524L46.835 19.5034C46.4112 19.1388 45.8485 18.9713 45.2966 19.0405C45.1974 19.0599 37.2378 20.0555 29.3071 23.3948C28.5173 23.7295 27.9259 23.8287 27.5309 23.8287C27.2063 23.8287 27.0184 23.7691 26.8701 23.7007C26.6533 23.592 26.5051 23.4544 26.3576 23.1688C26.2093 22.8926 26.111 22.4885 26.111 22.0547C26.111 21.4448 26.3278 20.8233 26.5743 20.5183C26.8808 20.124 27.2555 19.5824 27.7679 18.8829C28.5376 17.8486 29.5826 16.5085 30.8263 15.1983C32.0689 13.888 33.509 12.6277 35.0184 11.7408C37.0596 10.5392 38.806 10.2439 40.4531 10.2332C41.4694 10.2332 42.4453 10.3622 43.4028 10.4998C44.3496 10.6374 45.2667 10.8154 46.2628 10.8154C46.8947 10.8154 47.5651 10.7462 48.2654 10.4605H48.275C49.3607 9.99777 50.4251 9.31749 51.5011 8.54903C53.0993 7.38692 54.677 6.01788 55.8802 4.92402C56.1171 4.71723 56.3339 4.5103 56.5314 4.32277L53.8391 1.45679C53.2466 2.00809 52.4769 2.6978 51.6485 3.39733C50.8008 4.12648 49.8828 4.86532 49.0148 5.47626C48.1469 6.09677 47.3184 6.58938 46.756 6.81542C46.7261 6.83561 46.569 6.87506 46.2628 6.87506C45.7897 6.88475 44.9806 6.75672 43.9846 6.60849C42.9887 6.46134 41.794 6.29292 40.4531 6.29292C39.2897 6.28336 37.9968 6.43146 36.6357 6.80572C35.2841 6.43146 33.9924 6.29292 32.8182 6.29292C31.4763 6.29292 30.2933 6.46121 29.2964 6.60849C28.3004 6.75672 27.4913 6.88462 27.0087 6.87506C26.7129 6.87506 26.5549 6.83561 26.525 6.81542C25.923 6.57874 25.0252 6.02757 24.0985 5.35793C22.6882 4.34296 21.1884 3.04231 20.0547 2.00809C19.7483 1.73197 19.4718 1.47618 19.2253 1.25L16.5233 4.11598C17.1051 4.65853 17.8642 5.35793 18.7128 6.09677C19.6597 6.90387 20.7155 7.77074 21.7809 8.54903C22.8558 9.31763 23.9213 9.9979 25.0059 10.4605C25.7063 10.7462 26.3872 10.8154 27.0085 10.8154C28.0045 10.8154 28.9322 10.648 29.879 10.4998C29.9475 10.4902 30.0071 10.4902 30.066 10.4796C28.754 11.6032 27.6096 12.8251 26.6434 13.9573C25.8247 14.9127 25.1435 15.8093 24.5917 16.5481C24.0589 17.2773 23.6447 17.868 23.4569 18.1047C22.5591 19.2678 22.1748 20.6666 22.1651 22.0547C22.1748 23.3554 22.5205 24.7147 23.4174 25.8577C23.8614 26.4195 24.4539 26.9215 25.1638 27.2565C25.8738 27.5912 26.6926 27.7693 27.5306 27.7693C28.5864 27.7693 29.6816 27.5124 30.8452 27.02C34.4951 25.4836 38.2634 24.4494 41.0936 23.8183C42.5144 23.5037 43.6983 23.2863 44.5266 23.1487C44.6846 23.1188 44.8128 23.0997 44.9409 23.0795L57.3403 33.7484V33.7591H57.3499C57.3499 33.7984 57.3297 33.9062 57.2411 34.0736C57.0937 34.3497 56.7681 34.7143 56.3539 34.9702C55.9396 35.226 55.4561 35.3742 55.0023 35.3742C54.8348 35.3742 54.6768 35.4041 54.5188 35.4329C54.2423 35.3742 53.9562 35.2953 53.6807 35.177C52.8224 34.8423 52.0229 34.3102 51.4613 33.8474C51.1753 33.6204 50.9478 33.4136 50.8005 33.2663L50.6329 33.1085L50.5934 33.0692V33.0595C50.2967 32.744 49.8931 32.5862 49.4983 32.5862C49.1428 32.5862 48.7883 32.7142 48.5022 32.9701C47.9002 33.5224 47.8607 34.4583 48.4137 35.0588C48.4627 35.1185 49.2025 35.9255 50.4249 36.7636C51.0271 37.1772 51.7669 37.6006 52.6059 37.9352C52.7928 38.0044 52.9998 38.0833 53.2069 38.142C53.2667 38.2701 53.3351 38.3989 53.4236 38.5163H53.4139L53.4236 38.5268C53.4534 38.5855 53.5131 38.8222 53.5026 39.1079C53.5133 39.6495 53.3158 40.3586 53.0296 40.7529C52.8909 40.9597 52.7533 41.0782 52.6154 41.1569C52.4671 41.2358 52.3293 41.2849 52.0625 41.2945H51.9643C51.9152 41.2848 51.8553 41.2945 51.8063 41.3042C51.7966 41.3042 51.7966 41.3042 51.7966 41.3042C50.5145 41.3042 49.321 40.7529 48.4425 40.1516C47.9985 39.8563 47.6439 39.5515 47.407 39.3339C47.2883 39.2262 47.1998 39.1376 47.1507 39.078L47.091 39.0193L47.0814 39.0088V38.9991C46.7952 38.6643 46.3811 38.4969 45.9669 38.4969C45.622 38.4969 45.2761 38.6153 44.9998 38.8616C44.3785 39.3935 44.3101 40.3296 44.8524 40.9406C44.9015 41.009 45.5922 41.7872 46.7761 42.5953C47.5552 43.1272 48.5812 43.6785 49.7941 43.9941C49.7746 44.024 49.7641 44.0633 49.7544 44.0922C49.5966 44.4472 49.3798 44.8023 48.7681 45.1563C48.3635 45.393 48.0679 45.5113 47.8607 45.5807C47.6537 45.6394 47.5447 45.6489 47.3974 45.6489C47.1999 45.6489 46.9139 45.6095 46.4408 45.5113C46.3512 45.4911 46.2626 45.4911 46.1741 45.4815C46.1441 45.4718 46.1153 45.4622 46.0756 45.442C45.5921 45.2053 44.9901 44.7916 44.546 44.4375C44.3293 44.2702 44.1424 44.1029 44.0133 43.9941L43.866 43.8566L43.836 43.8267H43.8265C43.2349 43.2552 42.2978 43.2851 41.7351 43.8662C41.1725 44.4569 41.1927 45.3929 41.7842 45.9548C41.814 45.9836 42.4353 46.5849 43.3129 47.2054C43.4611 47.3237 43.6384 47.4325 43.8061 47.5401C43.5701 47.925 43.3129 48.1905 43.0663 48.3578C42.6721 48.6339 42.2485 48.762 41.6955 48.762C41.2024 48.762 40.6206 48.6436 40.0386 48.3974C39.8411 48.3185 39.6534 48.2001 39.4664 48.102C39.5742 47.6787 39.6341 47.2545 39.6341 46.8216C39.6341 45.9346 39.3971 45.0283 38.8943 44.2203C38.0456 42.8609 36.6258 42.0538 35.1354 41.9258C35.1354 41.8757 35.1461 41.8171 35.1461 41.768C35.1461 40.7925 34.8792 39.7977 34.337 38.9108C33.3207 37.2753 31.5549 36.3594 29.7604 36.3594H29.7305C29.6515 36.3594 29.5821 36.3691 29.5137 36.3691C29.4252 35.6004 29.1785 34.8424 28.744 34.1526C27.9059 32.8028 26.5642 31.9562 25.1143 31.6898C25.1038 30.7345 24.8379 29.759 24.3052 28.8921C23.2794 27.2471 21.504 26.3409 19.6988 26.3409C18.7221 26.3409 17.726 26.6064 16.8379 27.1586L14.9441 28.3304C14.895 28.2323 14.8362 28.1236 14.7967 28.0255C14.4605 27.2376 14.2535 26.4487 14.2342 25.9176L14.1946 25.0797L4.62623 16.7552L1.92383 19.6217L10.3978 27.0004C10.5452 27.8874 10.8216 28.734 11.1473 29.5219C11.3544 30.0347 11.5914 30.5176 11.8274 30.9708C11.3149 31.8173 11.0288 32.7928 11.0288 33.7684C11.0288 34.7439 11.2947 35.7386 11.8476 36.6248C12.6857 37.9649 14.0275 38.8125 15.4773 39.078C15.4871 40.0333 15.7538 41.0088 16.2864 41.8756C17.3124 43.5207 19.0876 44.4375 20.8929 44.4375C20.9622 44.4375 21.0307 44.427 21.1 44.4174C21.1983 45.1861 21.4448 45.944 21.8793 46.6436C22.9051 48.2897 24.6805 49.1959 26.4856 49.1959C26.6629 49.1959 26.8411 49.1757 27.0184 49.1564C27.1071 49.8452 27.3344 50.535 27.7187 51.1555C28.656 52.6534 30.2732 53.4904 31.9109 53.4807C32.799 53.4807 33.7065 53.244 34.5147 52.7418L36.9807 51.2152C37.4644 51.5307 37.9671 51.8058 38.5105 52.0232C39.4968 52.4465 40.5816 52.7024 41.696 52.7024C42.9194 52.712 44.2218 52.3771 45.3363 51.5893C46.0558 51.0871 46.6676 50.3973 47.1704 49.5796C47.2494 49.5796 47.3187 49.5892 47.3978 49.5892C47.9102 49.5892 48.4631 49.521 49.0247 49.343C49.5776 49.1757 50.1296 48.9197 50.722 48.5849C52.1324 47.7864 52.9809 46.6146 53.3952 45.6199C53.4838 45.3927 53.5532 45.1859 53.612 44.9887C53.9471 44.881 54.2825 44.752 54.5792 44.5751C55.6638 43.9546 56.3737 42.9993 56.8178 42.043C57.2522 41.0782 57.4487 40.0727 57.4487 39.1079C57.4487 39.0088 57.4392 38.9202 57.4294 38.822C58.149 38.5364 58.7906 38.1228 59.3329 37.6494C59.8954 37.1568 60.3684 36.5853 60.7142 35.936C61.059 35.2953 61.296 34.5469 61.296 33.7389C61.296 33.2068 61.1872 32.6556 60.9512 32.1332C60.8819 31.9658 60.773 31.8176 60.6651 31.6598C61.089 30.9114 61.5128 30.0744 61.8585 29.1681C62.1245 28.4783 62.3411 27.7588 62.4703 27.0103L70.9431 19.6217L68.2401 16.7548ZM17.322 34.9604L17.2333 35.0191C16.9867 35.1673 16.72 35.2365 16.4541 35.2365C15.9609 35.2365 15.4773 34.9998 15.2009 34.5466C15.0438 34.3003 14.9745 34.0338 14.9745 33.7682C14.9841 33.2756 15.2211 32.8024 15.6747 32.5166L18.9201 30.4973C19.1762 30.3501 19.4325 30.2808 19.6994 30.2808C20.2022 30.2808 20.6762 30.527 20.9516 30.9706L22.6287 29.9355L20.9516 30.9803C21.1096 31.2266 21.179 31.4825 21.179 31.7489C21.1693 32.0933 21.0509 32.4283 20.8236 32.6947L18.032 34.4283C17.7756 34.5861 17.5493 34.7631 17.322 34.9604ZM21.6721 40.2698C21.4254 40.4276 21.1586 40.4968 20.8928 40.4968C20.3995 40.4968 19.916 40.2505 19.6395 39.7974C19.4825 39.5512 19.4132 39.2942 19.4132 39.0287C19.4228 38.6843 19.5413 38.3486 19.7685 38.0829L22.5592 36.3495C22.8164 36.1917 23.0429 36.0041 23.2605 35.8174L23.3587 35.7578C23.6149 35.6 23.8713 35.5317 24.138 35.5317C24.6409 35.5413 25.1148 35.778 25.3902 36.231C25.5482 36.4774 25.6176 36.7331 25.6176 36.9997C25.6079 37.5019 25.3711 37.9743 24.9173 38.26L21.6721 40.2698ZM30.5102 43.0184L27.2552 45.0377C27.0085 45.1858 26.7513 45.2551 26.4855 45.2551C25.9827 45.2551 25.5087 45.0089 25.2333 44.5653C25.0753 44.3094 25.0059 44.0526 25.0059 43.7872C25.0059 43.285 25.2526 42.8116 25.7063 42.5355L28.9516 40.5162C29.1982 40.3689 29.464 40.2997 29.7309 40.2997C30.224 40.2997 30.697 40.5364 30.9832 40.9896C31.1315 41.2359 31.2009 41.5014 31.2009 41.768C31.2009 42.2603 30.9639 42.7327 30.5102 43.0184ZM35.2255 47.6583L32.434 49.3917C32.2663 49.5005 32.0987 49.5398 31.9109 49.5398C31.5852 49.5398 31.2597 49.3822 31.0729 49.0771C30.9736 48.9098 30.9246 48.7423 30.9246 48.5548C30.9246 48.2201 31.0921 47.9045 31.3879 47.7275V47.7178L34.1795 45.9832C34.3577 45.8849 34.5254 45.8359 34.7026 45.8359C35.0377 45.8456 35.3537 46.0034 35.5406 46.3083C35.6494 46.4758 35.6889 46.6432 35.6889 46.821C35.6888 47.1561 35.5308 47.4717 35.2255 47.6583Z" fill="white" stroke="#FF8833" stroke-width="1.67143"/>
</svg>
