<svg width="33" height="34" viewBox="0 0 33 34" fill="none" xmlns="http://www.w3.org/2000/svg">
<path d="M29.963 24.0432H2.8405C2.48083 24.0432 2.1359 24.1861 1.88158 24.4404C1.62725 24.6948 1.48438 25.0397 1.48438 25.3994C1.48438 25.759 1.62725 26.104 1.88158 26.3583C2.1359 26.6126 2.48083 26.7555 2.8405 26.7555H29.963C30.3227 26.7555 30.6676 26.6126 30.922 26.3583C31.1763 26.104 31.3192 25.759 31.3192 25.3994C31.3192 25.0397 31.1763 24.6948 30.922 24.4404C30.6676 24.1861 30.3227 24.0432 29.963 24.0432ZM29.963 29.4677H2.8405C2.48083 29.4677 2.1359 29.6106 1.88158 29.8649C1.62725 30.1193 1.48438 30.4642 1.48438 30.8239C1.48438 31.1835 1.62725 31.5285 1.88158 31.7828C2.1359 32.0371 2.48083 32.18 2.8405 32.18H29.963C30.3227 32.18 30.6676 32.0371 30.922 31.7828C31.1763 31.5285 31.3192 31.1835 31.3192 30.8239C31.3192 30.4642 31.1763 30.1193 30.922 29.8649C30.6676 29.6106 30.3227 29.4677 29.963 29.4677ZM8.26501 10.482C7.99679 10.482 7.7346 10.5615 7.51158 10.7105C7.28857 10.8595 7.11475 11.0713 7.01211 11.3191C6.90947 11.5669 6.88261 11.8396 6.93494 12.1027C6.98727 12.3657 7.11642 12.6074 7.30608 12.797C7.49574 12.9867 7.73738 13.1158 8.00044 13.1682C8.2635 13.2205 8.53618 13.1936 8.78398 13.091C9.03177 12.9884 9.24357 12.8145 9.39259 12.5915C9.5416 12.3685 9.62113 12.1063 9.62113 11.8381C9.62113 11.4784 9.47826 11.1335 9.22393 10.8792C8.96961 10.6249 8.62468 10.482 8.26501 10.482ZM27.2508 2.34521H5.55275C4.47375 2.34521 3.43895 2.77385 2.67598 3.53682C1.91301 4.29979 1.48438 5.33459 1.48438 6.41359V17.2626C1.48438 18.3416 1.91301 19.3764 2.67598 20.1394C3.43895 20.9024 4.47375 21.331 5.55275 21.331H27.2508C28.3298 21.331 29.3646 20.9024 30.1276 20.1394C30.8905 19.3764 31.3192 18.3416 31.3192 17.2626V6.41359C31.3192 5.33459 30.8905 4.29979 30.1276 3.53682C29.3646 2.77385 28.3298 2.34521 27.2508 2.34521ZM28.6069 17.2626C28.6069 17.6223 28.464 17.9672 28.2097 18.2215C27.9554 18.4759 27.6104 18.6187 27.2508 18.6187H5.55275C5.19309 18.6187 4.84815 18.4759 4.59383 18.2215C4.33951 17.9672 4.19663 17.6223 4.19663 17.2626V6.41359C4.19663 6.05393 4.33951 5.70899 4.59383 5.45467C4.84815 5.20035 5.19309 5.05747 5.55275 5.05747H27.2508C27.6104 5.05747 27.9554 5.20035 28.2097 5.45467C28.464 5.70899 28.6069 6.05393 28.6069 6.41359V17.2626ZM16.4018 7.76972C15.5971 7.76972 14.8105 8.00833 14.1415 8.45537C13.4725 8.90241 12.951 9.5378 12.6431 10.2812C12.3351 11.0246 12.2546 11.8426 12.4116 12.6318C12.5685 13.421 12.956 14.1459 13.525 14.7149C14.094 15.2839 14.8189 15.6713 15.6081 15.8283C16.3973 15.9853 17.2153 15.9047 17.9587 15.5968C18.7021 15.2889 19.3375 14.7674 19.7845 14.0984C20.2315 13.4293 20.4701 12.6428 20.4701 11.8381C20.4701 10.7591 20.0415 9.72429 19.2785 8.96132C18.5156 8.19835 17.4808 7.76972 16.4018 7.76972ZM16.4018 13.1942C16.1336 13.1942 15.8714 13.1147 15.6483 12.9657C15.4253 12.8167 15.2515 12.6049 15.1489 12.3571C15.0462 12.1093 15.0194 11.8366 15.0717 11.5735C15.124 11.3105 15.2532 11.0688 15.4428 10.8792C15.6325 10.6895 15.8741 10.5604 16.1372 10.508C16.4003 10.4557 16.6729 10.4826 16.9207 10.5852C17.1685 10.6878 17.3803 10.8617 17.5293 11.0847C17.6784 11.3077 17.7579 11.5699 17.7579 11.8381C17.7579 12.1978 17.615 12.5427 17.3607 12.797C17.1064 13.0514 16.7614 13.1942 16.4018 13.1942ZM24.5385 10.482C24.2703 10.482 24.0081 10.5615 23.7851 10.7105C23.5621 10.8595 23.3883 11.0713 23.2856 11.3191C23.183 11.5669 23.1561 11.8396 23.2085 12.1027C23.2608 12.3657 23.3899 12.6074 23.5796 12.797C23.7693 12.9867 24.0109 13.1158 24.274 13.1682C24.537 13.2205 24.8097 13.1936 25.0575 13.091C25.3053 12.9884 25.5171 12.8145 25.6661 12.5915C25.8151 12.3685 25.8947 12.1063 25.8947 11.8381C25.8947 11.4784 25.7518 11.1335 25.4975 10.8792C25.2431 10.6249 24.8982 10.482 24.5385 10.482Z" fill="#9F66DB"/>
</svg>
