<svg width="34" height="34" viewBox="0 0 34 34" fill="none" xmlns="http://www.w3.org/2000/svg">
<path d="M5.17424 24.4032C2.73189 24.4032 0.75 26.3836 0.75 28.8261C0.75 31.2685 2.73043 33.2504 5.17424 33.2504C7.61663 33.2504 9.59847 31.2699 9.59847 28.8261C9.59847 26.3822 7.61653 24.4032 5.17424 24.4032ZM5.17424 31.3581C3.77787 31.3581 2.64228 30.2226 2.64228 28.8248C2.64228 27.4272 3.77764 26.2929 5.17554 26.2929C6.57213 26.2929 7.7088 27.4285 7.7088 28.8248C7.7088 30.2213 6.57321 31.3581 5.17554 31.3581H5.17424Z" fill="#00B1BB" stroke="#00B1BB" stroke-width="0.5"/>
<path d="M5.17424 0.75C2.73189 0.75 0.75 2.73038 0.75 5.17293C0.75 7.61533 2.73043 9.59717 5.17424 9.59717C7.61663 9.59717 9.59847 7.61673 9.59847 5.17293C9.59847 2.72903 7.61653 0.75 5.17424 0.75ZM5.17424 7.70619C3.77787 7.70619 2.64228 6.57075 2.64228 5.17293C2.64228 3.77534 3.77764 2.64098 5.17554 2.64098C6.57213 2.64098 7.7088 3.77664 7.7088 5.17293C7.7088 6.56945 6.57321 7.70619 5.17554 7.70619H5.17424Z" fill="#00B1BB" stroke="#00B1BB" stroke-width="0.5"/>
<path d="M5.17424 12.5472C2.73189 12.5472 0.75 14.5276 0.75 16.9702C0.75 19.4126 2.73043 21.3944 5.17424 21.3944C7.61663 21.3944 9.59847 19.414 9.59847 16.9702C9.59847 14.5263 7.61653 12.5472 5.17424 12.5472ZM5.17424 19.5034C3.77795 19.5034 2.64228 18.3668 2.64228 16.9702C2.64228 15.5738 3.77772 14.4382 5.17554 14.4382C6.57213 14.4382 7.7088 15.5739 7.7088 16.9702C7.7088 18.3667 6.57321 19.5034 5.17554 19.5034H5.17424Z" fill="#00B1BB" stroke="#00B1BB" stroke-width="0.5"/>
<path d="M16.9994 24.4032C14.5557 24.4032 12.5752 26.3836 12.5752 28.8261C12.5752 31.2685 14.5556 33.2504 16.9994 33.2504C19.4418 33.2504 21.4237 31.2699 21.4237 28.8261C21.4237 26.3822 19.4417 24.4032 16.9994 24.4032ZM16.9994 31.3581C15.6029 31.3581 14.4662 30.2225 14.4662 28.8248C14.4662 27.4272 15.6015 26.2929 16.9994 26.2929C18.396 26.2929 19.5327 27.4285 19.5327 28.8248C19.5327 30.2213 18.3971 31.3581 16.9994 31.3581Z" fill="#00B1BB" stroke="#00B1BB" stroke-width="0.5"/>
<path d="M16.9994 0.75C14.5557 0.75 12.5752 2.73043 12.5752 5.17293C12.5752 7.61533 14.5556 9.59717 16.9994 9.59717C19.4418 9.59717 21.4237 7.61673 21.4237 5.17293C21.4237 2.72903 19.4417 0.75 16.9994 0.75ZM16.9994 7.70619C15.6029 7.70619 14.4662 6.5706 14.4662 5.17293C14.4662 3.77534 15.6015 2.64098 16.9994 2.64098C18.396 2.64098 19.5327 3.77664 19.5327 5.17293C19.5327 6.56945 18.3971 7.70619 16.9994 7.70619Z" fill="#00B1BB" stroke="#00B1BB" stroke-width="0.5"/>
<path d="M16.9994 12.5472C14.5557 12.5472 12.5752 14.5277 12.5752 16.9702C12.5752 19.4126 14.5556 21.3944 16.9994 21.3944C19.4418 21.3944 21.4237 19.414 21.4237 16.9702C21.4237 14.5263 19.4417 12.5472 16.9994 12.5472ZM16.9994 19.5034C15.603 19.5034 14.4662 18.3666 14.4662 16.9702C14.4662 15.5738 15.6016 14.4382 16.9994 14.4382C18.396 14.4382 19.5327 15.5739 19.5327 16.9702C19.5327 18.3667 18.3971 19.5034 16.9994 19.5034Z" fill="#00B1BB" stroke="#00B1BB" stroke-width="0.5"/>
<path d="M28.8256 24.4032C26.3819 24.4032 24.4014 26.3836 24.4014 28.8261C24.4014 31.2685 26.3818 33.2504 28.8256 33.2504C31.268 33.2504 33.2498 31.2699 33.2498 28.8261C33.2498 26.3822 31.2679 24.4032 28.8256 24.4032ZM28.8256 31.3581C27.4291 31.3581 26.2923 30.2225 26.2923 28.8248C26.2923 27.4272 27.4277 26.2929 28.8256 26.2929C30.2222 26.2929 31.3589 27.4285 31.3589 28.8248C31.3589 30.2213 30.2233 31.3581 28.8256 31.3581Z" fill="#00B1BB" stroke="#00B1BB" stroke-width="0.5"/>
<path d="M28.8256 9.59717C31.268 9.59717 33.2498 7.61673 33.2498 5.17293C33.2498 2.72903 31.2679 0.75 28.8256 0.75C26.3819 0.75 24.4014 2.73043 24.4014 5.17293C24.4014 7.61533 26.3818 9.59717 28.8256 9.59717ZM28.8256 2.64228C30.2222 2.64228 31.3589 3.77795 31.3589 5.17424C31.3589 6.57075 30.2233 7.70749 28.8256 7.70749C27.4291 7.70749 26.2923 6.5719 26.2923 5.17424C26.2923 3.77664 27.4277 2.64228 28.8256 2.64228Z" fill="#00B1BB" stroke="#00B1BB" stroke-width="0.5"/>
<path d="M28.8256 12.5472C26.3819 12.5472 24.4014 14.5277 24.4014 16.9702C24.4014 19.4126 26.3818 21.3944 28.8256 21.3944C31.268 21.3944 33.2498 19.414 33.2498 16.9702C33.2498 14.5263 31.2679 12.5472 28.8256 12.5472ZM28.8256 19.5034C27.4292 19.5034 26.2923 18.3666 26.2923 16.9702C26.2923 15.5738 27.4278 14.4382 28.8256 14.4382C30.2222 14.4382 31.3589 15.5739 31.3589 16.9702C31.3589 18.3667 30.2233 19.5034 28.8256 19.5034Z" fill="#00B1BB" stroke="#00B1BB" stroke-width="0.5"/>
</svg>
