<svg width="63" height="63" viewBox="0 0 63 63" fill="none" xmlns="http://www.w3.org/2000/svg">
<circle cx="31.5" cy="31.5" r="31.5" fill="#FF8833"/>
<path d="M22.1866 32.8857C22.3001 33.0673 22.458 33.217 22.6454 33.3206C22.8328 33.4242 23.0435 33.4784 23.2576 33.4779C23.4907 33.4846 23.721 33.4265 23.923 33.31C24.125 33.1936 24.2907 33.0234 24.4017 32.8183C24.5127 32.6133 24.5647 32.3815 24.5518 32.1487C24.5388 31.9159 24.4616 31.6912 24.3286 31.4997C22.68 28.8813 21.6182 25.9368 21.2164 22.8687C21.1893 22.6869 21.2023 22.5013 21.2545 22.3249C21.3068 22.1486 21.397 21.9859 21.5188 21.8481C21.6369 21.7137 21.7822 21.606 21.9452 21.5322C22.1081 21.4583 22.2849 21.42 22.4638 21.4197H26.2438C26.5386 21.4138 26.8261 21.5114 27.0563 21.6956C27.2865 21.8798 27.4449 22.1389 27.5038 22.4277C27.5038 22.7175 27.6046 22.9821 27.6676 23.2719V23.4357C27.8142 24.097 28.0122 24.7457 28.2598 25.3761L26.5084 26.2077C26.3571 26.2781 26.2212 26.3778 26.1087 26.5011C25.9963 26.6244 25.9094 26.7688 25.8532 26.9259C25.7891 27.0796 25.7561 27.2445 25.7561 27.411C25.7561 27.5776 25.7891 27.7424 25.8532 27.8961C25.9792 28.1607 26.1052 28.4253 26.2564 28.7025C26.3387 28.8469 26.4488 28.9736 26.5803 29.0753C26.7117 29.1769 26.862 29.2516 27.0225 29.2949C27.1829 29.3382 27.3504 29.3494 27.5151 29.3277C27.6799 29.3061 27.8388 29.252 27.9826 29.1687C28.1885 29.0507 28.3569 28.8769 28.4683 28.6674C28.5798 28.4578 28.6298 28.2211 28.6126 27.9843L29.3308 27.7197C29.9008 27.4572 30.3524 26.9913 30.5971 26.4134C30.8418 25.8355 30.862 25.187 30.6538 24.5949C30.4503 24.0616 30.2861 23.5142 30.1624 22.9569V22.8309C30.1624 22.5789 30.0616 22.3269 30.0238 22.1001C29.8853 21.2076 29.4318 20.3941 28.7453 19.807C28.0588 19.2199 27.1849 18.8981 26.2816 18.8997H22.5016C21.9605 18.8919 21.4239 19.0003 20.9283 19.2177C20.4327 19.435 19.9895 19.7563 19.6288 20.1597C19.2703 20.5671 19.0037 21.047 18.8471 21.5666C18.6906 22.0862 18.6478 22.6335 18.7216 23.1711C19.159 26.6222 20.3413 29.9369 22.1866 32.8857V32.8857ZM40.5952 32.6211L39.8392 32.4825H39.7384C39.1684 32.3606 38.6082 32.1964 38.0626 31.9911C37.4797 31.782 36.8401 31.7949 36.2661 32.0273C35.6921 32.2597 35.2237 32.6954 34.9504 33.2511L34.6858 33.8307C33.8263 33.3336 33.0163 32.7556 32.2666 32.1045L43.3546 21.0291C43.4721 20.9117 43.5653 20.7722 43.6289 20.6187C43.6924 20.4652 43.7252 20.3007 43.7252 20.1345C43.7252 19.9684 43.6924 19.8039 43.6289 19.6504C43.5653 19.4969 43.4721 19.3574 43.3546 19.2399C43.2371 19.1225 43.0977 19.0293 42.9442 18.9657C42.7907 18.9021 42.6261 18.8694 42.46 18.8694C42.2939 18.8694 42.1293 18.9021 41.9758 18.9657C41.8224 19.0293 41.6829 19.1225 41.5654 19.2399L18.8854 41.9199C18.7673 42.0371 18.6736 42.1764 18.6096 42.33C18.5456 42.4835 18.5127 42.6482 18.5127 42.8145C18.5127 42.9809 18.5456 43.1456 18.6096 43.2991C18.6736 43.4526 18.7673 43.592 18.8854 43.7091C19.0025 43.8272 19.1419 43.921 19.2954 43.9849C19.449 44.0489 19.6137 44.0818 19.78 44.0818C19.9463 44.0818 20.111 44.0489 20.2646 43.9849C20.4181 43.921 20.5575 43.8272 20.6746 43.7091L26.458 37.9131C30.0775 41.1655 34.5983 43.2435 39.4234 43.8729C39.5912 43.8854 39.7596 43.8854 39.9274 43.8729C40.8549 43.8778 41.7518 43.5414 42.4474 42.9279C42.846 42.5714 43.1644 42.1344 43.3816 41.6457C43.5988 41.157 43.7099 40.6277 43.7074 40.0929V36.3129C43.7007 35.4312 43.3859 34.5795 42.8176 33.9054C42.2493 33.2312 41.4631 32.7769 40.5952 32.6211V32.6211ZM41.2 40.1811C41.1998 40.36 41.1615 40.5368 41.0876 40.6998C41.0137 40.8627 40.906 41.0081 40.7716 41.1261C40.6339 41.248 40.4711 41.3382 40.2948 41.3904C40.1185 41.4426 39.9329 41.4557 39.751 41.4285C35.4706 40.8684 31.4579 39.0333 28.2346 36.1617L30.4648 33.9315C31.7494 35.0514 33.1826 35.9884 34.7236 36.7161C34.8773 36.7803 35.0422 36.8133 35.2087 36.8133C35.3752 36.8133 35.5401 36.7803 35.6938 36.7161C35.8509 36.6599 35.9953 36.5731 36.1186 36.4606C36.2419 36.3481 36.3416 36.2123 36.412 36.0609L37.1932 34.2843C37.8507 34.5283 38.5243 34.7261 39.2092 34.8765H39.3478L40.2172 35.0403C40.5014 35.1044 40.7547 35.2649 40.9339 35.4946C41.1131 35.7243 41.2071 36.0091 41.2 36.3003V40.1811Z" fill="white"/>
</svg>
