<svg width="30" height="30" viewBox="0 0 30 30" fill="none" xmlns="http://www.w3.org/2000/svg">
<path d="M14.5788 15.7873C14.2583 15.7873 13.951 15.9146 13.7244 16.1412C13.4977 16.3678 13.3704 16.6751 13.3704 16.9956V20.6206C13.3704 20.9411 13.4977 21.2484 13.7244 21.475C13.951 21.7016 14.2583 21.8289 14.5788 21.8289C14.8992 21.8289 15.2066 21.7016 15.4332 21.475C15.6598 21.2484 15.7871 20.9411 15.7871 20.6206V16.9956C15.7871 16.6751 15.6598 16.3678 15.4332 16.1412C15.2066 15.9146 14.8992 15.7873 14.5788 15.7873ZM20.6204 10.9539V8.53727C20.6204 6.93492 19.9839 5.3982 18.8509 4.26517C17.7178 3.13214 16.1811 2.49561 14.5788 2.49561C12.9764 2.49561 11.4397 3.13214 10.3067 4.26517C9.17364 5.3982 8.53711 6.93492 8.53711 8.53727V10.9539C7.5757 10.9539 6.65367 11.3359 5.97385 12.0157C5.29403 12.6955 4.91211 13.6175 4.91211 14.5789V23.0373C4.91211 23.9987 5.29403 24.9207 5.97385 25.6005C6.65367 26.2804 7.5757 26.6623 8.53711 26.6623H20.6204C21.5819 26.6623 22.5039 26.2804 23.1837 25.6005C23.8635 24.9207 24.2454 23.9987 24.2454 23.0373V14.5789C24.2454 13.6175 23.8635 12.6955 23.1837 12.0157C22.5039 11.3359 21.5819 10.9539 20.6204 10.9539ZM10.9538 8.53727C10.9538 7.57586 11.3357 6.65383 12.0155 5.97401C12.6953 5.29419 13.6174 4.91227 14.5788 4.91227C15.5402 4.91227 16.4622 5.29419 17.142 5.97401C17.8219 6.65383 18.2038 7.57586 18.2038 8.53727V10.9539H10.9538V8.53727ZM21.8288 23.0373C21.8288 23.3577 21.7015 23.6651 21.4749 23.8917C21.2483 24.1183 20.9409 24.2456 20.6204 24.2456H8.53711C8.21664 24.2456 7.9093 24.1183 7.68269 23.8917C7.45608 23.6651 7.32878 23.3577 7.32878 23.0373V14.5789C7.32878 14.2585 7.45608 13.9511 7.68269 13.7245C7.9093 13.4979 8.21664 13.3706 8.53711 13.3706H20.6204C20.9409 13.3706 21.2483 13.4979 21.4749 13.7245C21.7015 13.9511 21.8288 14.2585 21.8288 14.5789V23.0373Z" fill="white"/>
</svg>
