<svg width="65" height="80" viewBox="0 0 65 80" fill="none" xmlns="http://www.w3.org/2000/svg">
<path d="M6.81519 69.19V33.3H47.6151V36.89C49.9951 36.89 52.2752 37.25 54.4152 37.93V33.3C54.4152 29.35 51.3551 26.12 47.6151 26.12H44.2151V18.94C44.2151 9.02999 36.6051 0.98999 27.2151 0.98999C17.8251 0.98999 10.2151 9.02999 10.2151 18.94V26.12H6.81519C3.07519 26.12 0.0151367 29.35 0.0151367 33.3V69.19C0.0151367 73.14 3.07519 76.37 6.81519 76.37H28.1051C26.6751 74.22 25.5552 71.78 24.8052 69.19H6.81519ZM17.0151 18.94C17.0151 12.98 21.5751 8.16998 27.2151 8.16998C32.8551 8.16998 37.4152 12.98 37.4152 18.94V26.12H17.0151V18.94Z" fill="#3F3F3F"/>
<path d="M47.6152 44.0701C38.2352 44.0701 30.6152 52.1101 30.6152 62.0201C30.6152 71.9301 38.2352 79.9601 47.6152 79.9601C56.9952 79.9601 64.6152 71.9201 64.6152 62.0201C64.6152 52.1201 57.0052 44.0701 47.6152 44.0701ZM47.6152 51.2501C50.4352 51.2501 52.7152 53.6501 52.7152 56.6301C52.7152 59.6101 50.4352 62.0101 47.6152 62.0101C44.7952 62.0101 42.5153 59.6001 42.5153 56.6301C42.5153 53.6601 44.7952 51.2501 47.6152 51.2501ZM47.6152 72.7801C44.1152 72.7801 41.0253 70.9101 39.1853 68.0401C41.6653 66.5301 44.5252 65.6001 47.6152 65.6001C50.7052 65.6001 53.5653 66.5301 56.0453 68.0401C54.2153 70.9101 51.1152 72.7801 47.6152 72.7801Z" fill="#3F3F3F"/>
</svg>
