<svg width="89" height="92" viewBox="0 0 89 92" fill="none" xmlns="http://www.w3.org/2000/svg">
<path d="M0 10.5C0 4.97715 4.47715 0.5 10 0.5H79C84.5228 0.5 89 4.97715 89 10.5V81.5C89 87.0228 84.5228 91.5 79 91.5H10C4.47715 91.5 0 87.0228 0 81.5V10.5Z" fill="#FF8833"/>
<path d="M28.8385 30.8335H60.1719C62.326 30.8335 64.0885 32.596 64.0885 34.7502V58.2502C64.0885 60.4043 62.326 62.1668 60.1719 62.1668H28.8385C26.6844 62.1668 24.9219 60.4043 24.9219 58.2502V34.7502C24.9219 32.596 26.6844 30.8335 28.8385 30.8335Z" stroke="white" stroke-width="4.06667" stroke-linecap="round" stroke-linejoin="round"/>
<path d="M64.0885 34.75L44.5052 48.4583L24.9219 34.75" stroke="white" stroke-width="4.06667" stroke-linecap="round" stroke-linejoin="round"/>
</svg>
