<svg width="26" height="26" viewBox="0 0 26 26" fill="none" xmlns="http://www.w3.org/2000/svg">
<path d="M18.8039 5.16393C17.1529 3.51296 14.9137 2.58545 12.5789 2.58545C10.244 2.58545 8.00484 3.51296 6.35387 5.16393C4.7029 6.8149 3.77539 9.0541 3.77539 11.3889C3.77539 13.7238 4.7029 15.963 6.35387 17.6139L11.8215 23.0919C11.9179 23.1892 12.0327 23.2664 12.1591 23.319C12.2856 23.3717 12.4212 23.3988 12.5581 23.3988C12.6951 23.3988 12.8307 23.3717 12.9571 23.319C13.0835 23.2664 13.1983 23.1892 13.2947 23.0919L18.8039 17.5621C20.4479 15.918 21.3716 13.6881 21.3716 11.363C21.3716 9.0379 20.4479 6.80803 18.8039 5.16393ZM17.3202 16.0784L12.5789 20.8406L7.83749 16.0784C6.90078 15.1409 6.26306 13.9466 6.00495 12.6467C5.74684 11.3467 5.87993 9.99945 6.38739 8.77514C6.89484 7.55082 7.75389 6.50443 8.85594 5.76825C9.95798 5.03207 11.2536 4.63914 12.5789 4.63914C13.9042 4.63914 15.1998 5.03207 16.3018 5.76825C17.4038 6.50443 18.2629 7.55082 18.7704 8.77514C19.2778 9.99945 19.4109 11.3467 19.1528 12.6467C18.8947 13.9466 18.257 15.1409 17.3202 16.0784ZM9.46637 8.2038C8.62881 9.04394 8.15849 10.1819 8.15849 11.3682C8.15849 12.5545 8.62881 13.6924 9.46637 14.5326C10.0886 15.1559 10.8811 15.5815 11.7444 15.7562C12.6076 15.9308 13.5032 15.8466 14.3188 15.5142C15.1344 15.1817 15.8337 14.6158 16.3289 13.8875C16.8241 13.1591 17.0932 12.3008 17.1024 11.4201C17.107 10.832 16.9938 10.249 16.7692 9.70547C16.5447 9.16195 16.2135 8.66897 15.7951 8.25568C15.3839 7.83505 14.8936 7.4999 14.3524 7.2695C13.8112 7.0391 13.2297 6.918 12.6415 6.91318C12.0533 6.90836 11.47 7.01991 10.9251 7.24141C10.3801 7.4629 9.8844 7.78998 9.46637 8.2038ZM14.3322 13.0593C13.9391 13.4585 13.4195 13.7087 12.8622 13.7671C12.305 13.8256 11.7448 13.6887 11.2773 13.3798C10.8099 13.0709 10.4642 12.6093 10.2995 12.0738C10.1347 11.5383 10.1611 10.9621 10.3741 10.4439C10.5871 9.92571 10.9735 9.49758 11.4673 9.23273C11.961 8.96788 12.5314 8.88275 13.081 8.99191C13.6305 9.10106 14.1251 9.39772 14.4801 9.83115C14.8351 10.2646 15.0286 10.8079 15.0274 11.3682C15.0123 12.0086 14.7436 12.6168 14.2804 13.0593H14.3322Z" fill="white"/>
</svg>
