<svg width="32" height="27" viewBox="0 0 32 27" fill="none" xmlns="http://www.w3.org/2000/svg">
<path d="M23.7208 24.3697C23.7258 25.6733 22.9067 26.6655 21.7346 26.933C20.5878 27.1957 19.3628 26.6558 18.8789 25.6003C18.2967 24.3308 17.7799 23.0345 17.233 21.748C17.0465 21.3078 16.8499 20.8701 16.6785 20.4226C16.6003 20.2231 16.4894 20.1405 16.2626 20.1429C13.3312 20.1502 10.3973 20.1502 7.46599 20.1429C7.19377 20.1429 7.10555 20.2766 7.02238 20.4785C6.32923 22.1323 5.63609 23.786 4.93539 25.4373C4.45397 26.5682 3.38779 27.0619 2.42747 26.9938C1.16469 26.9038 0.272429 26.1183 0.0405413 24.9631C-0.0628 24.4402 0.0405413 23.9417 0.247224 23.448C1.49992 20.4931 2.74506 17.5334 3.99271 14.5761C5.80244 10.2836 7.6147 5.99353 9.41939 1.70106C9.81007 0.772035 10.4704 0.166468 11.5165 0.0254123C12.7036 -0.1351 13.7799 0.475332 14.2411 1.55757C14.9998 3.34022 15.7484 5.12531 16.502 6.90796C18.8108 12.3824 21.1196 17.8568 23.4309 23.3312C23.5948 23.7179 23.7435 24.107 23.7258 24.3721L23.7208 24.3697ZM11.8643 9.01407C11.7206 9.35212 11.6022 9.62207 11.4887 9.89202C10.788 11.5531 10.0848 13.2141 9.38914 14.8776C9.33621 15.0016 9.16734 15.1986 9.51265 15.1986C11.0779 15.1986 12.6431 15.1986 14.2084 15.1986C14.41 15.1986 14.4428 15.1208 14.3697 14.953C14.2462 14.6733 14.1302 14.3912 14.0118 14.1091C13.3085 12.4383 12.6053 10.7675 11.8643 9.01407Z" fill="#00B1BB"/>
<rect x="18" width="13.0909" height="4.90909" rx="2.45455" fill="#00B1BB"/>
<rect x="18" width="13.0909" height="4.90909" rx="2.45455" fill="#00B1BB"/>
</svg>
