<svg width="90" height="82" viewBox="0 0 90 82" xmlns="http://www.w3.org/2000/svg">
<path d="M85.2551 0H4.0752C2.9952 0 1.96508 0.430002 1.20508 1.19C0.445078 1.95 0.0151367 2.98 0.0151367 4.06V36.53C0.0151367 37.61 0.445078 38.64 1.20508 39.4C1.96508 40.16 2.9952 40.59 4.0752 40.59H16.2551V77.12C16.2551 78.2 16.6752 79.23 17.4452 79.99C18.2052 80.75 19.2352 81.18 20.3152 81.18H69.0151C70.0951 81.18 71.1251 80.75 71.8851 79.99C72.6551 79.23 73.0752 78.2 73.0752 77.12V40.59H85.2551C86.3351 40.59 87.3651 40.16 88.1251 39.4C88.8851 38.64 89.3152 37.61 89.3152 36.53V4.06C89.3152 2.98 88.8851 1.95 88.1251 1.19C87.3651 0.430002 86.3351 0 85.2551 0ZM24.3651 73.06V64.94C26.5251 64.94 28.5851 65.8 30.1051 67.32C31.6351 68.84 32.4851 70.91 32.4851 73.06H24.3651ZM64.9651 73.06H56.8451C56.8451 70.91 57.6951 68.84 59.2251 67.32C60.7451 65.8 62.8051 64.94 64.9651 64.94V73.06ZM64.9651 56.82C60.6551 56.82 56.5251 58.53 53.4751 61.58C50.4351 64.63 48.7251 68.75 48.7251 73.06H40.6051C40.6051 68.75 38.8951 64.62 35.8551 61.58C32.8051 58.54 28.6751 56.82 24.3651 56.82V24.35H64.9651V56.82ZM81.1952 32.47H73.0752V20.29C73.0752 19.21 72.6551 18.18 71.8851 17.42C71.1251 16.66 70.0951 16.23 69.0151 16.23H20.3152C19.2352 16.23 18.2052 16.66 17.4452 17.42C16.6752 18.18 16.2551 19.21 16.2551 20.29V32.47H8.13513V8.11H81.1952V32.47ZM44.6652 52.76C47.0752 52.76 49.4252 52.05 51.4352 50.71C53.4352 49.37 54.9952 47.47 55.9152 45.25C56.8352 43.02 57.0751 40.58 56.6051 38.21C56.1351 35.85 54.9751 33.68 53.2751 31.97C51.5751 30.26 49.4052 29.11 47.0452 28.64C44.6752 28.17 42.2351 28.41 40.0051 29.33C37.7751 30.25 35.8752 31.81 34.5352 33.82C33.2052 35.82 32.4851 38.18 32.4851 40.58C32.4851 43.81 33.7752 46.91 36.0552 49.19C38.3352 51.47 41.4352 52.76 44.6652 52.76ZM44.6652 36.52C45.4652 36.52 46.2552 36.76 46.9252 37.2C47.5852 37.65 48.1052 38.28 48.4152 39.02C48.7252 39.76 48.8051 40.58 48.6451 41.37C48.4851 42.16 48.1052 42.88 47.5352 43.45C46.9652 44.02 46.2451 44.4 45.4551 44.56C44.6651 44.72 43.8551 44.64 43.1151 44.33C42.3651 44.02 41.7352 43.5 41.2852 42.83C40.8452 42.16 40.6051 41.38 40.6051 40.58C40.6051 39.5 41.0352 38.47 41.7952 37.71C42.5552 36.95 43.5852 36.52 44.6652 36.52Z" fill="#797979"/>
</svg>
