<svg width="26" height="26" viewBox="0 0 26 26" fill="none" xmlns="http://www.w3.org/2000/svg">
<path d="M11.541 10.0793H15.691C15.9662 10.0793 16.2301 9.96999 16.4246 9.77542C16.6192 9.58085 16.7285 9.31696 16.7285 9.0418C16.7285 8.76663 16.6192 8.50274 16.4246 8.30817C16.2301 8.11361 15.9662 8.0043 15.691 8.0043H13.616V6.9668C13.616 6.69163 13.5067 6.42774 13.3121 6.23317C13.1176 6.0386 12.8537 5.9293 12.5785 5.9293C12.3034 5.9293 12.0395 6.0386 11.8449 6.23317C11.6503 6.42774 11.541 6.69163 11.541 6.9668V8.0043C10.7155 8.0043 9.92386 8.33222 9.34015 8.91593C8.75644 9.49963 8.42852 10.2913 8.42852 11.1168C8.42852 11.9423 8.75644 12.734 9.34015 13.3177C9.92386 13.9014 10.7155 14.2293 11.541 14.2293H13.616C13.8912 14.2293 14.1551 14.3386 14.3496 14.5332C14.5442 14.7277 14.6535 14.9916 14.6535 15.2668C14.6535 15.542 14.5442 15.8059 14.3496 16.0004C14.1551 16.195 13.8912 16.3043 13.616 16.3043H9.46602C9.19086 16.3043 8.92697 16.4136 8.7324 16.6082C8.53783 16.8027 8.42852 17.0666 8.42852 17.3418C8.42852 17.617 8.53783 17.8809 8.7324 18.0754C8.92697 18.27 9.19086 18.3793 9.46602 18.3793H11.541V19.4168C11.541 19.692 11.6503 19.9559 11.8449 20.1504C12.0395 20.345 12.3034 20.4543 12.5785 20.4543C12.8537 20.4543 13.1176 20.345 13.3121 20.1504C13.5067 19.9559 13.616 19.692 13.616 19.4168V18.3793C14.4415 18.3793 15.2332 18.0514 15.8169 17.4677C16.4006 16.884 16.7285 16.0923 16.7285 15.2668C16.7285 14.4413 16.4006 13.6496 15.8169 13.0659C15.2332 12.4822 14.4415 12.1543 13.616 12.1543H11.541C11.2659 12.1543 11.002 12.045 10.8074 11.8504C10.6128 11.6559 10.5035 11.392 10.5035 11.1168C10.5035 10.8416 10.6128 10.5777 10.8074 10.3832C11.002 10.1886 11.2659 10.0793 11.541 10.0793ZM12.5785 1.7793C10.3213 1.7793 8.11485 2.44863 6.23808 3.70265C4.3613 4.95667 2.89853 6.73906 2.03475 8.82442C1.17096 10.9098 0.944955 13.2045 1.38531 15.4183C1.82566 17.6321 2.9126 19.6656 4.50866 21.2617C6.10473 22.8577 8.13824 23.9447 10.3521 24.385C12.5659 24.8254 14.8605 24.5994 16.9459 23.7356C19.0313 22.8718 20.8136 21.409 22.0677 19.5322C23.3217 17.6555 23.991 15.449 23.991 13.1918C23.991 10.165 22.7886 7.2622 20.6484 5.12194C18.5081 2.98168 15.6053 1.7793 12.5785 1.7793ZM12.5785 22.5293C10.7317 22.5293 8.92643 21.9817 7.39088 20.9556C5.85534 19.9296 4.65853 18.4713 3.9518 16.7651C3.24506 15.0589 3.06015 13.1814 3.42044 11.3701C3.78073 9.55884 4.67004 7.89506 5.97591 6.58919C7.28178 5.28331 8.94557 4.394 10.7569 4.03371C12.5682 3.67342 14.4456 3.85834 16.1518 4.56507C17.858 5.27181 19.3164 6.46862 20.3424 8.00416C21.3684 9.5397 21.916 11.345 21.916 13.1918C21.916 15.6683 20.9323 18.0433 19.1811 19.7944C17.43 21.5455 15.055 22.5293 12.5785 22.5293Z" fill="white"/>
</svg>
