<svg width="29" height="29" viewBox="0 0 29 29" fill="none" xmlns="http://www.w3.org/2000/svg">
<path d="M12.6874 4.50706C12.9019 4.24871 13.1678 4.03787 13.4682 3.888C13.7687 3.73813 14.0971 3.6525 14.4324 3.63659C14.7678 3.62067 15.1028 3.67481 15.4161 3.79556C15.7294 3.91631 16.0141 4.10101 16.252 4.33789C16.6882 4.79683 16.9268 5.40859 16.9166 6.04164V10.1621C16.9166 10.4825 17.0439 10.7899 17.2705 11.0165C17.4971 11.2431 17.8045 11.3704 18.1249 11.3704C18.4454 11.3704 18.7528 11.2431 18.9794 11.0165C19.206 10.7899 19.3333 10.4825 19.3333 10.1621V6.04164C19.3056 5.07176 18.9867 4.13265 18.4181 3.3465C17.8494 2.56034 17.0573 1.96354 16.1448 1.63373C15.2323 1.30393 14.2417 1.2564 13.3018 1.49732C12.3619 1.73824 11.5163 2.25646 10.8749 2.98456C10.7343 3.09582 10.6202 3.23699 10.5409 3.39783C10.4615 3.55867 10.419 3.73515 10.4164 3.91447C10.4138 4.09378 10.4511 4.27144 10.5256 4.43454C10.6002 4.59765 10.7101 4.74211 10.8474 4.85746C10.9847 4.97281 11.146 5.05614 11.3195 5.10142C11.493 5.1467 11.6745 5.15279 11.8506 5.11924C12.0268 5.08569 12.1933 5.01335 12.338 4.90746C12.4828 4.80158 12.6021 4.6648 12.6874 4.50706ZM22.6199 16.0346H22.8616C23.146 16.0397 23.4231 15.9444 23.6441 15.7654C23.8652 15.5863 24.0159 15.3351 24.0699 15.0558C24.1566 14.472 24.1889 13.8814 24.1666 13.2916C24.1666 12.9712 24.0393 12.6638 23.8127 12.4372C23.5861 12.2106 23.2787 12.0833 22.9583 12.0833C22.6378 12.0833 22.3305 12.2106 22.1039 12.4372C21.8772 12.6638 21.7499 12.9712 21.7499 13.2916C21.7501 13.738 21.7055 14.1833 21.617 14.6208C21.5876 14.7797 21.5904 14.9429 21.6252 15.1008C21.6601 15.2586 21.7262 15.4078 21.8197 15.5397C21.9132 15.6715 22.0322 15.7832 22.1697 15.8682C22.3071 15.9532 22.4602 16.0098 22.6199 16.0346ZM26.2449 23.3571L4.49494 1.60706C4.38261 1.4938 4.24897 1.40391 4.10172 1.34256C3.95448 1.28122 3.79654 1.24963 3.63703 1.24963C3.47751 1.24963 3.31958 1.28122 3.17233 1.34256C3.02508 1.40391 2.89144 1.4938 2.77911 1.60706C2.55406 1.83345 2.42773 2.13971 2.42773 2.45893C2.42773 2.77816 2.55406 3.08441 2.77911 3.31081L9.66661 10.2466V13.2916C9.66748 14.1396 9.89144 14.9725 10.316 15.7066C10.7406 16.4406 11.3508 17.0501 12.0854 17.4737C12.82 17.8973 13.6532 18.1202 14.5012 18.12C15.3492 18.1198 16.1822 17.8965 16.9166 17.4725L18.6808 19.2366C17.5938 20.0039 16.3166 20.4573 14.9891 20.547C13.6617 20.6368 12.3351 20.3596 11.1547 19.7457C9.97427 19.1318 8.98556 18.2048 8.29683 17.0665C7.6081 15.9281 7.24592 14.6221 7.24994 13.2916C7.24994 12.9712 7.12264 12.6638 6.89603 12.4372C6.66942 12.2106 6.36208 12.0833 6.04161 12.0833C5.72114 12.0833 5.41379 12.2106 5.18719 12.4372C4.96058 12.6638 4.83328 12.9712 4.83328 13.2916C4.83541 15.6446 5.69569 17.916 7.25284 19.6801C8.80999 21.4441 10.9571 22.5796 13.2916 22.8737V25.375H10.8749C10.5545 25.375 10.2471 25.5023 10.0205 25.7289C9.79392 25.9555 9.66661 26.2628 9.66661 26.5833C9.66661 26.9038 9.79392 27.2111 10.0205 27.4377C10.2471 27.6643 10.5545 27.7916 10.8749 27.7916H18.1249C18.4454 27.7916 18.7528 27.6643 18.9794 27.4377C19.206 27.2111 19.3333 26.9038 19.3333 26.5833C19.3333 26.2628 19.206 25.9555 18.9794 25.7289C18.7528 25.5023 18.4454 25.375 18.1249 25.375H15.7083V22.8737C17.4034 22.6628 19.0104 21.9991 20.3604 20.9525L24.4687 25.0608C24.6946 25.2883 25.0017 25.4168 25.3223 25.4179C25.643 25.4191 25.951 25.2928 26.1785 25.0669C26.406 24.8409 26.5345 24.5339 26.5356 24.2132C26.5367 23.8926 26.4105 23.5846 26.1845 23.3571H26.2449ZM14.4999 15.7083C13.859 15.7083 13.2443 15.4537 12.7911 15.0005C12.3379 14.5473 12.0833 13.9326 12.0833 13.2916V12.6633L15.0437 15.6358C14.8664 15.6836 14.6836 15.708 14.4999 15.7083Z" fill="#00A2AF"/>
</svg>
