<svg width="80" height="81" viewBox="0 0 80 81" fill="none" xmlns="http://www.w3.org/2000/svg">
<path d="M7.98511 0.599976C6.32511 0.599976 4.98511 1.93998 4.98511 3.59998V8.04997C4.98511 9.41997 3.86512 10.53 2.49512 10.53C1.12512 10.53 0.0151367 11.64 0.0151367 13.01V77.06C0.0151367 78.72 1.35514 80.06 3.01514 80.06H76.4751C78.1351 80.06 79.4751 78.72 79.4751 77.06V13.02C79.4751 11.65 78.3651 10.54 76.9951 10.54C75.6251 10.54 74.5151 9.42997 74.5151 8.05997V3.60998C74.5151 1.94998 73.1651 0.609976 71.5151 0.609976H7.98511V0.599976ZM9.94519 8.04997C9.94519 6.67997 11.0552 5.56997 12.4352 5.56997H67.0652C68.4352 5.56997 69.5452 6.67997 69.5452 8.04997C69.5452 9.41997 68.4352 10.53 67.0652 10.53H12.4352C11.0552 10.53 9.94519 9.41997 9.94519 8.04997ZM4.98511 18.5C4.98511 16.84 6.32511 15.5 7.98511 15.5H71.5151C73.1651 15.5 74.5151 16.84 74.5151 18.5V72.1C74.5151 73.76 73.1651 75.1 71.5151 75.1H7.98511C6.32511 75.1 4.98511 73.76 4.98511 72.1V18.5ZM12.9452 20.47C11.2952 20.47 9.94519 21.81 9.94519 23.47V37.34C9.94519 39 11.2952 40.34 12.9452 40.34H26.8152C28.4752 40.34 29.8152 39 29.8152 37.34V23.47C29.8152 21.81 28.4752 20.47 26.8152 20.47H12.9452ZM42.2251 20.47C40.8551 20.47 39.7451 21.58 39.7451 22.95C39.7451 24.32 40.8551 25.43 42.2251 25.43H67.0652C68.4352 25.43 69.5452 24.32 69.5452 22.95C69.5452 21.58 68.4352 20.47 67.0652 20.47H42.2251ZM42.2251 35.37C40.8551 35.37 39.7451 36.48 39.7451 37.85C39.7451 39.22 40.8551 40.33 42.2251 40.33H67.0652C68.4352 40.33 69.5452 39.22 69.5452 37.85C69.5452 36.48 68.4352 35.37 67.0652 35.37H42.2251ZM12.9452 45.3C11.2952 45.3 9.94519 46.64 9.94519 48.3V67.13C9.94519 68.79 11.2952 70.13 12.9452 70.13H66.5452C68.2052 70.13 69.5452 68.79 69.5452 67.13V48.3C69.5452 46.64 68.2052 45.3 66.5452 45.3H12.9452Z" fill="#797979"/>
</svg>
