<svg width="110" height="93" viewBox="0 0 110 93" fill="none" xmlns="http://www.w3.org/2000/svg">
<path d="M28.375 73.09C18.805 66.3 11.235 57.4601 6.95499 51.8801C5.75499 50.3401 5.10498 48.4401 5.10498 46.4901C5.10498 44.5401 5.75499 42.6401 6.95499 41.1001C14.695 30.9901 33.275 10.1801 54.965 10.1801C64.695 10.1801 73.795 14.3701 81.565 19.9001" stroke="#797979" stroke-width="9" stroke-linecap="round" stroke-linejoin="round"/>
<path d="M44.595 81.26C47.965 82.26 51.455 82.78 54.965 82.8C76.655 82.8 95.235 61.99 102.975 51.88C104.175 50.34 104.825 48.44 104.815 46.49C104.815 44.54 104.165 42.64 102.965 41.1C100.245 37.55 97.325 34.16 94.225 30.94M66.015 35.54C64.575 34.08 62.855 32.91 60.965 32.11C59.075 31.31 57.045 30.9 54.985 30.89C52.935 30.89 50.895 31.28 48.995 32.06C47.095 32.84 45.375 33.99 43.915 35.44C42.465 36.89 41.315 38.62 40.525 40.52C39.745 42.42 39.345 44.45 39.355 46.51C39.355 48.56 39.775 50.6 40.575 52.49C41.375 54.38 42.535 56.1 44.005 57.54L66.005 35.54H66.015ZM13.485 87.99L96.455 5L13.475 87.98L13.485 87.99Z" stroke="#797979" stroke-width="9" stroke-linecap="round" stroke-linejoin="round"/>
</svg>
