<svg width="26" height="26" viewBox="0 0 26 26" fill="none" xmlns="http://www.w3.org/2000/svg">
<path d="M7.30848 6.61975L3.97811 3.279C3.88137 3.18226 3.76653 3.10553 3.64014 3.05318C3.51375 3.00082 3.37829 2.97388 3.24148 2.97388C3.10468 2.97388 2.96921 3.00082 2.84282 3.05318C2.71643 3.10553 2.60159 3.18226 2.50486 3.279C2.30949 3.47436 2.19974 3.73933 2.19974 4.01562C2.19974 4.29191 2.30949 4.55688 2.50486 4.75225L4.85998 7.12812C3.66371 7.80818 2.56153 8.6418 1.58148 9.60775C1.38825 9.80214 1.27979 10.0651 1.27979 10.3392C1.27979 10.6133 1.38825 10.8762 1.58148 11.0706C1.67757 11.1687 1.79216 11.2466 1.9186 11.3001C2.04505 11.3535 2.18084 11.3813 2.31811 11.3819C2.59029 11.3807 2.85111 11.2727 3.04436 11.081C4.03303 10.1005 5.16683 9.27817 6.40586 8.64287L7.95173 10.2406C6.66599 10.8026 5.49749 11.6016 4.50723 12.5957C4.39934 12.6895 4.312 12.8046 4.25068 12.9338C4.18936 13.0629 4.1554 13.2033 4.15092 13.3462C4.14644 13.4891 4.17153 13.6314 4.22464 13.7641C4.27774 13.8969 4.3577 14.0172 4.45951 14.1176C4.56131 14.2179 4.68276 14.2962 4.81623 14.3474C4.9497 14.3986 5.09232 14.4217 5.23514 14.4152C5.37795 14.4087 5.51788 14.3727 5.64614 14.3096C5.7744 14.2464 5.88823 14.1575 5.98048 14.0482C6.98641 13.0468 8.21198 12.2937 9.55986 11.8487L11.2406 13.5191C9.80229 13.7959 8.47976 14.4969 7.44336 15.5319C7.33547 15.6257 7.24812 15.7407 7.1868 15.8699C7.12549 15.999 7.09152 16.1395 7.08704 16.2823C7.08256 16.4252 7.10766 16.5675 7.16076 16.7002C7.21387 16.833 7.29383 16.9533 7.39563 17.0537C7.49743 17.154 7.61888 17.2323 7.75236 17.2835C7.88583 17.3347 8.02845 17.3578 8.17126 17.3513C8.31407 17.3448 8.454 17.3088 8.58226 17.2457C8.71053 17.1826 8.82435 17.0936 8.91661 16.9844C9.39459 16.4967 9.96416 16.1082 10.5926 15.8411C11.2211 15.5741 11.8961 15.4337 12.579 15.4281C12.7979 15.4287 13.0164 15.446 13.2326 15.48L21.1799 23.4272C21.2763 23.5245 21.3911 23.6017 21.5175 23.6543C21.6439 23.707 21.7795 23.7341 21.9165 23.7341C22.0534 23.7341 22.1891 23.707 22.3155 23.6543C22.4419 23.6017 22.5567 23.5245 22.6531 23.4272C22.7504 23.3308 22.8275 23.216 22.8802 23.0896C22.9329 22.9632 22.96 22.8276 22.96 22.6906C22.96 22.5537 22.9329 22.4181 22.8802 22.2916C22.8275 22.1652 22.7504 22.0504 22.6531 21.954L7.30848 6.61975ZM12.579 17.5031C11.9634 17.5031 11.3616 17.6857 10.8498 18.0277C10.3379 18.3697 9.93899 18.8558 9.70341 19.4245C9.46783 19.9933 9.40619 20.6191 9.52629 21.2228C9.64638 21.8266 9.94282 22.3812 10.3781 22.8165C10.8134 23.2518 11.368 23.5482 11.9718 23.6683C12.5755 23.7884 13.2014 23.7268 13.7701 23.4912C14.3388 23.2556 14.8249 22.8567 15.1669 22.3448C15.5089 21.833 15.6915 21.2312 15.6915 20.6156C15.6915 19.7901 15.3636 18.9985 14.7799 18.4148C14.1961 17.831 13.4045 17.5031 12.579 17.5031V17.5031ZM12.579 21.6531C12.3738 21.6531 12.1732 21.5923 12.0026 21.4783C11.832 21.3643 11.699 21.2022 11.6205 21.0127C11.5419 20.8231 11.5214 20.6145 11.5614 20.4132C11.6015 20.212 11.7003 20.0271 11.8454 19.882C11.9905 19.7369 12.1753 19.6381 12.3766 19.5981C12.5778 19.558 12.7864 19.5786 12.976 19.6571C13.1656 19.7356 13.3276 19.8686 13.4416 20.0392C13.5556 20.2098 13.6165 20.4104 13.6165 20.6156C13.6165 20.8908 13.5072 21.1547 13.3126 21.3492C13.118 21.5438 12.8541 21.6531 12.579 21.6531ZM23.5869 9.60775C21.9289 7.9513 19.9183 6.69068 17.7051 5.91999C15.4918 5.1493 13.133 4.88844 10.8049 5.15687C10.6686 5.17186 10.5367 5.21354 10.4165 5.27952C10.2964 5.34551 10.1904 5.43451 10.1047 5.54145C9.93149 5.75742 9.85121 6.03334 9.88148 6.3085C9.91175 6.58366 10.0501 6.83553 10.2661 7.00869C10.482 7.18186 10.7579 7.26214 11.0331 7.23187C13.052 7.00145 15.097 7.22773 17.0167 7.89397C18.9364 8.56022 20.6819 9.6494 22.124 11.081C22.3193 11.275 22.5838 11.3834 22.8591 11.3824C23.1344 11.3815 23.3981 11.2712 23.592 11.0758C23.786 10.8804 23.8945 10.616 23.8935 10.3407C23.8925 10.0654 23.7822 9.80174 23.5869 9.60775ZM19.1775 14.0067C19.3747 14.1782 19.6294 14.2689 19.8907 14.2607C20.1519 14.2525 20.4004 14.1461 20.5866 13.9626C20.7727 13.7791 20.8827 13.5321 20.8946 13.271C20.9065 13.0099 20.8194 12.7539 20.6507 12.5542C19.2649 11.1524 17.5322 10.1428 15.6292 9.6285C15.4937 9.57613 15.3486 9.55283 15.2034 9.56011C15.0583 9.5674 14.9163 9.6051 14.7866 9.67077C14.6569 9.73645 14.5425 9.82863 14.4508 9.94135C14.359 10.0541 14.292 10.1848 14.254 10.3251C14.216 10.4654 14.2079 10.6121 14.2302 10.7557C14.2526 10.8993 14.3048 11.0366 14.3836 11.1588C14.4624 11.2809 14.566 11.3851 14.6876 11.4646C14.8093 11.5442 14.9463 11.5973 15.0897 11.6205C16.6358 12.049 18.0442 12.8712 19.1775 14.0067V14.0067Z" fill="white"/>
</svg>
