<svg width="79" height="103" viewBox="0 0 79 103" fill="none" xmlns="http://www.w3.org/2000/svg">
<path d="M35.1263 20.456V74.6C35.1263 76.328 36.5663 77.768 38.2943 77.768C40.0223 77.768 41.4623 76.328 41.4623 74.6V14.792C41.4623 13.064 40.0223 11.624 38.2943 11.624C37.6223 11.624 37.0463 11.816 36.3743 12.296L21.3023 22.76C20.4383 23.336 19.9583 24.392 19.9583 25.352C19.9583 26.984 21.3983 28.424 23.0303 28.424C23.7023 28.424 24.2783 28.232 24.8543 27.848L35.1263 20.456Z" fill="#9F66DB"/>
<path d="M53.8988 77.768C56.6828 77.768 58.4108 76.424 58.4108 73.256C58.4108 70.088 56.6828 68.648 53.8988 68.648C51.1147 68.648 49.3868 70.088 49.3868 73.256C49.3868 76.424 51.1147 77.768 53.8988 77.768Z" fill="#9F66DB"/>
<path fill-rule="evenodd" clip-rule="evenodd" d="M26.4238 32.6702L26.409 32.6801C25.6874 33.1611 24.921 33.424 24.0303 33.424C21.846 33.424 19.9583 31.5363 19.9583 29.352C19.9583 28.1037 20.5684 26.7188 21.7391 25.9336L36.7986 15.4783C37.6109 14.8994 38.3847 14.624 39.2943 14.624C41.5745 14.624 43.4623 16.5117 43.4623 18.792V78.6C43.4623 80.8803 41.5745 82.768 39.2943 82.768C37.014 82.768 35.1263 80.8803 35.1263 78.6V26.4077L26.4238 32.6702ZM25.8543 31.848C25.2783 32.232 24.7023 32.424 24.0303 32.424C22.3983 32.424 20.9583 30.984 20.9583 29.352C20.9583 28.392 21.4383 27.336 22.3023 26.76L37.3743 16.296C38.0463 15.816 38.6223 15.624 39.2943 15.624C41.0223 15.624 42.4623 17.064 42.4623 18.792V78.6C42.4623 80.328 41.0223 81.768 39.2943 81.768C37.5663 81.768 36.1263 80.328 36.1263 78.6V24.456L25.8543 31.848ZM58.8831 81.4292C57.8512 82.3976 56.4362 82.768 54.8988 82.768C53.3613 82.768 51.9463 82.3976 50.9144 81.4292C49.8708 80.4498 49.3868 79.0175 49.3868 77.256C49.3868 75.4948 49.8703 74.0467 50.9028 73.046C51.9294 72.0509 53.3448 71.648 54.8988 71.648C56.4527 71.648 57.8681 72.0509 58.8947 73.046C59.9272 74.0467 60.4108 75.4948 60.4108 77.256C60.4108 79.0175 59.9267 80.4498 58.8831 81.4292ZM59.4108 77.256C59.4108 80.424 57.6828 81.768 54.8988 81.768C52.1147 81.768 50.3868 80.424 50.3868 77.256C50.3868 74.088 52.1147 72.648 54.8988 72.648C57.6828 72.648 59.4108 74.088 59.4108 77.256Z" fill="#9F66DB"/>
</svg>
