<svg width="115" height="110" viewBox="0 0 115 110" fill="none" xmlns="http://www.w3.org/2000/svg">
<path d="M58.9339 56.0083C61.4906 53.8914 63.5414 51.2732 64.9469 48.3313C66.3524 45.3894 67.0798 42.1928 67.0798 38.9583C67.0798 32.8804 64.5556 27.0515 60.0625 22.7538C55.5695 18.4561 49.4756 16.0416 43.1214 16.0416C36.7673 16.0416 30.6734 18.4561 26.1803 22.7538C21.6873 27.0515 19.1631 32.8804 19.1631 38.9583C19.163 42.1928 19.8905 45.3894 21.296 48.3313C22.7015 51.2732 24.7522 53.8914 27.3089 56.0083C20.6013 58.9136 14.9103 63.6053 10.9165 69.5225C6.92275 75.4396 4.79514 82.3318 4.78809 89.375C4.78809 90.5905 5.29292 91.7563 6.19153 92.6159C7.09014 93.4754 8.30892 93.9583 9.57975 93.9583C10.8506 93.9583 12.0694 93.4754 12.968 92.6159C13.8666 91.7563 14.3714 90.5905 14.3714 89.375C14.3714 82.0815 17.4004 75.0868 22.7921 69.9295C28.1838 64.7723 35.4964 61.875 43.1214 61.875C50.7464 61.875 58.0591 64.7723 63.4507 69.9295C68.8424 75.0868 71.8714 82.0815 71.8714 89.375C71.8714 90.5905 72.3763 91.7563 73.2749 92.6159C74.1735 93.4754 75.3923 93.9583 76.6631 93.9583C77.9339 93.9583 79.1527 93.4754 80.0513 92.6159C80.9499 91.7563 81.4548 90.5905 81.4548 89.375C81.4477 82.3318 79.3201 75.4396 75.3263 69.5225C71.3325 63.6053 65.6416 58.9136 58.9339 56.0083V56.0083ZM43.1214 52.7083C40.2783 52.7083 37.4991 51.9019 35.1351 50.391C32.7711 48.8801 30.9287 46.7327 29.8407 44.2202C28.7526 41.7077 28.468 38.943 29.0226 36.2758C29.5773 33.6086 30.9464 31.1585 32.9568 29.2356C34.9671 27.3126 37.5285 26.003 40.317 25.4725C43.1055 24.942 45.9958 25.2142 48.6225 26.255C51.2492 27.2957 53.4943 29.058 55.0738 31.3192C56.6533 33.5804 57.4964 36.2388 57.4964 38.9583C57.4964 42.605 55.9819 46.1024 53.2861 48.681C50.5902 51.2596 46.9339 52.7083 43.1214 52.7083ZM89.7923 54.175C92.8588 50.8719 94.8619 46.7915 95.5605 42.4248C96.2591 38.0582 95.6234 33.5915 93.7299 29.5625C91.8364 25.5334 88.7659 22.1136 84.8878 19.7148C81.0098 17.316 76.4897 16.0404 71.8714 16.0416C70.6006 16.0416 69.3818 16.5245 68.4832 17.3841C67.5846 18.2436 67.0798 19.4094 67.0798 20.625C67.0798 21.8405 67.5846 23.0063 68.4832 23.8659C69.3818 24.7254 70.6006 25.2083 71.8714 25.2083C75.6839 25.2083 79.3403 26.657 82.0361 29.2356C84.7319 31.8142 86.2464 35.3116 86.2464 38.9583C86.2396 41.3656 85.5722 43.7291 84.3109 45.8123C83.0496 47.8955 81.2385 49.6255 79.0589 50.8291C78.3485 51.2211 77.7552 51.7809 77.3357 52.455C76.9162 53.1291 76.6846 53.8949 76.6631 54.6791C76.643 55.4572 76.8305 56.2274 77.2077 56.917C77.585 57.6066 78.1396 58.193 78.8193 58.6208L80.6881 59.8125L81.311 60.1333C87.0869 62.7537 91.9596 66.8983 95.3553 72.0789C98.751 77.2596 100.528 83.2605 100.478 89.375C100.478 90.5905 100.983 91.7563 101.881 92.6159C102.78 93.4754 103.999 93.9583 105.269 93.9583C106.54 93.9583 107.759 93.4754 108.658 92.6159C109.556 91.7563 110.061 90.5905 110.061 89.375C110.1 82.3415 108.258 75.4153 104.711 69.2544C101.163 63.0935 96.0279 57.9026 89.7923 54.175V54.175Z" fill="#5F259F"/>
</svg>
