<svg width="50" height="60" viewBox="0 0 50 60" fill="none" xmlns="http://www.w3.org/2000/svg">
<path fill-rule="evenodd" clip-rule="evenodd" d="M49.8246 20.6128C49.9113 20.8705 49.9704 21.1367 50.0011 21.4069V21.5833V50.9944C50.0011 53.3345 49.0715 55.5787 47.4168 57.2334C45.7621 58.8881 43.5178 59.8177 41.1777 59.8177H11.7667C9.42659 59.8177 7.18234 58.8881 5.52765 57.2334C3.87296 55.5787 2.94336 53.3345 2.94336 50.9944V9.81892C2.94336 7.47883 3.87296 5.23459 5.52765 3.5799C7.18234 1.9252 9.42659 0.995605 11.7667 0.995605H29.5604C29.9022 1.03779 30.2322 1.14778 30.5309 1.31913C30.6187 1.30666 30.7078 1.30666 30.7956 1.31913C31.098 1.46054 31.376 1.64917 31.6191 1.87794L49.2658 19.5246C49.4946 19.7677 49.6832 20.0457 49.8246 20.3481V20.6128ZM39.9719 18.6422L32.3544 11.0248V15.7011C32.3544 16.4812 32.6643 17.2292 33.2159 17.7808C33.7674 18.3324 34.5155 18.6422 35.2955 18.6422H39.9719ZM43.2574 53.0741C43.809 52.5225 44.1188 51.7744 44.1188 50.9944V24.5245H35.2955C32.9554 24.5245 30.7112 23.5949 29.0565 21.9402C27.4018 20.2855 26.4722 18.0412 26.4722 15.7011V6.87782H11.7667C10.9866 6.87782 10.2386 7.18768 9.687 7.73925C9.13544 8.29081 8.82557 9.03889 8.82557 9.81892V50.9944C8.82557 51.7744 9.13544 52.5225 9.687 53.0741C10.2386 53.6257 10.9866 53.9355 11.7667 53.9355H41.1777C41.9578 53.9355 42.7059 53.6257 43.2574 53.0741Z" fill="white"/>
<rect y="30.4102" width="29.4111" height="17.6466" rx="2.94111" fill="white"/>
<path d="M7.63039 33.89H9.18039C9.98039 33.89 10.5004 34.34 10.5004 35.22C10.5004 36.09 9.99039 36.56 9.18039 36.56H7.63039V33.89ZM7.63039 37.18H9.28039C10.3704 37.18 11.1904 36.53 11.1904 35.22C11.1904 33.89 10.3504 33.27 9.28039 33.27H7.29039C7.10039 33.27 6.95039 33.42 6.95039 33.61V39.74C6.95039 39.93 7.10039 40.08 7.29039 40.08C7.48039 40.08 7.63039 39.93 7.63039 39.74V37.18ZM13.0698 33.89H14.1398C15.6298 33.89 16.5398 34.58 16.5398 36.64C16.5398 38.72 15.6298 39.38 14.1398 39.38H13.0698V33.89ZM12.7298 33.27C12.5398 33.27 12.3898 33.42 12.3898 33.61V39.66C12.3898 39.85 12.5398 40 12.7298 40H14.1398C16.0498 40 17.2298 39.11 17.2298 36.64C17.2298 34.17 16.0498 33.27 14.1398 33.27H12.7298ZM19.1538 37H21.3538C21.5238 37 21.6638 36.86 21.6638 36.69C21.6638 36.52 21.5238 36.38 21.3538 36.38H19.1538V33.89H22.0238C22.1938 33.89 22.3338 33.75 22.3338 33.58C22.3338 33.41 22.1938 33.27 22.0238 33.27H18.8138C18.6238 33.27 18.4738 33.42 18.4738 33.61V39.74C18.4738 39.93 18.6238 40.08 18.8138 40.08C19.0038 40.08 19.1538 39.93 19.1538 39.74V37Z" fill="#FFA666"/>
</svg>
