<svg width="50" height="59" viewBox="0 0 50 59" fill="none" xmlns="http://www.w3.org/2000/svg">
<path fill-rule="evenodd" clip-rule="evenodd" d="M49.8202 19.6172C49.9069 19.8749 49.9661 20.1411 49.9967 20.4113V20.5877V49.9988C49.9967 52.3389 49.0671 54.5831 47.4124 56.2378C45.7577 57.8925 43.5135 58.8221 41.1734 58.8221H11.7623C9.42224 58.8221 7.17799 57.8925 5.5233 56.2378C3.8686 54.5831 2.93901 52.3389 2.93901 49.9988V47.0575C1.31564 47.0564 0 45.74 0 44.1164V32.352C0 30.7283 1.31564 29.412 2.93901 29.4109V8.82332C2.93901 6.48323 3.8686 4.23898 5.5233 2.58429C7.17799 0.929597 9.42224 0 11.7623 0H29.556C29.8978 0.0421878 30.2278 0.152177 30.5266 0.323521C30.6144 0.311052 30.7035 0.311052 30.7913 0.323521C31.0937 0.464933 31.3717 0.653561 31.6148 0.882332L49.2614 18.529C49.4902 18.7721 49.6788 19.0501 49.8202 19.3525V19.6172ZM8.82122 49.9988V47.0575H26.47C28.0943 47.0575 29.4111 45.7407 29.4111 44.1164V32.352C29.4111 30.7276 28.0943 29.4109 26.47 29.4109H8.82122V8.82332C8.82122 8.04329 9.13109 7.29521 9.68265 6.74364C10.2342 6.19208 10.9823 5.88221 11.7623 5.88221H26.4679V14.7055C26.4679 17.0456 27.3975 19.2899 29.0521 20.9446C30.7068 22.5993 32.9511 23.5289 35.2912 23.5289H44.1145V49.9988C44.1145 50.7788 43.8046 51.5269 43.2531 52.0785C42.7015 52.6301 41.9534 52.9399 41.1734 52.9399H11.7623C10.9823 52.9399 10.2342 52.6301 9.68265 52.0785C9.13109 51.5269 8.82122 50.7788 8.82122 49.9988ZM39.9675 17.6466L32.3501 10.0292V14.7055C32.3501 15.4856 32.6599 16.2336 33.2115 16.7852C33.7631 17.3368 34.5111 17.6466 35.2912 17.6466H39.9675ZM6.66797 41.502V35.8477C6.66797 35.6882 6.72331 35.5531 6.83398 35.4424C6.94792 35.3284 7.08626 35.2715 7.24902 35.2715H9.1582C9.77669 35.2715 10.2812 35.4456 10.6719 35.7939C11.0625 36.1423 11.2578 36.6517 11.2578 37.3223C11.2578 37.9896 11.0625 38.499 10.6719 38.8506C10.2845 39.2021 9.77995 39.3779 9.1582 39.3779H7.8252V41.502C7.8252 41.6647 7.76986 41.8014 7.65918 41.9121C7.5485 42.0228 7.41178 42.0781 7.24902 42.0781C7.08626 42.0781 6.94792 42.0228 6.83398 41.9121C6.72331 41.7982 6.66797 41.6615 6.66797 41.502ZM7.8252 38.3379H9.06543C9.37793 38.3379 9.62044 38.25 9.79297 38.0742C9.96875 37.8952 10.0566 37.6445 10.0566 37.3223C10.0566 36.9967 9.96875 36.7477 9.79297 36.5752C9.61719 36.3994 9.37467 36.3115 9.06543 36.3115H7.8252V38.3379ZM12.1855 41.4189V35.8477C12.1855 35.6882 12.2409 35.5531 12.3516 35.4424C12.4655 35.3284 12.6038 35.2715 12.7666 35.2715H14.1143C14.6253 35.2715 15.0745 35.3317 15.4619 35.4521C15.8525 35.5726 16.1927 35.7646 16.4824 36.0283C16.7721 36.2887 16.9919 36.6387 17.1416 37.0781C17.2913 37.5143 17.3662 38.0352 17.3662 38.6406C17.3662 39.2461 17.2913 39.7686 17.1416 40.208C16.9919 40.6442 16.7721 40.9925 16.4824 41.2529C16.1927 41.5101 15.8525 41.6989 15.4619 41.8193C15.0745 41.9398 14.6253 42 14.1143 42H12.7666C12.6038 42 12.4655 41.943 12.3516 41.8291C12.2409 41.7152 12.1855 41.5784 12.1855 41.4189ZM13.3428 40.96H14.1143C14.4463 40.96 14.7344 40.9209 14.9785 40.8428C15.2227 40.7614 15.4359 40.6328 15.6182 40.457C15.8005 40.278 15.9372 40.0371 16.0283 39.7344C16.1195 39.4316 16.165 39.0671 16.165 38.6406C16.165 37.8073 15.9909 37.2116 15.6426 36.8535C15.2975 36.4922 14.7881 36.3115 14.1143 36.3115H13.3428V40.96ZM18.2988 35.8477V41.502C18.2988 41.6615 18.3542 41.7982 18.4648 41.9121C18.5788 42.0228 18.7171 42.0781 18.8799 42.0781C19.0426 42.0781 19.1794 42.0228 19.29 41.9121C19.4007 41.8014 19.4561 41.6647 19.4561 41.502V39.1777H21.3506C21.4906 39.1777 21.6094 39.1289 21.707 39.0312C21.8079 38.9303 21.8584 38.8099 21.8584 38.6699C21.8584 38.5299 21.8079 38.4111 21.707 38.3135C21.6094 38.2126 21.4906 38.1621 21.3506 38.1621H19.4561V36.3115H22C22.1432 36.3115 22.2653 36.2611 22.3662 36.1602C22.4671 36.056 22.5176 35.9323 22.5176 35.7891C22.5176 35.6458 22.4671 35.5238 22.3662 35.4229C22.2653 35.3219 22.1432 35.2715 22 35.2715H18.8799C18.7171 35.2715 18.5788 35.3284 18.4648 35.4424C18.3542 35.5531 18.2988 35.6882 18.2988 35.8477Z" fill="white"/>
</svg>
