<svg width="26" height="26" viewBox="0 0 26 26" fill="none" xmlns="http://www.w3.org/2000/svg">
<path d="M20.2984 14.0034C20.0701 14.0034 19.8315 13.9308 19.6033 13.8789C19.141 13.7771 18.6868 13.6418 18.2441 13.4743C17.7628 13.2992 17.2338 13.3083 16.7588 13.4998C16.2838 13.6913 15.8964 14.0518 15.6711 14.5118L15.4429 14.9787C14.4324 14.4165 13.5038 13.7183 12.6831 12.9037C11.8685 12.083 11.1703 11.1544 10.6081 10.1439L11.0439 9.85341C11.5039 9.62818 11.8643 9.2408 12.0559 8.76579C12.2474 8.29078 12.2565 7.76172 12.0814 7.28041C11.9167 6.8368 11.7815 6.38276 11.6768 5.92128C11.6249 5.69303 11.5834 5.45441 11.5523 5.21578C11.4263 4.48499 11.0435 3.82319 10.4729 3.34957C9.90225 2.87595 9.18127 2.62163 8.43977 2.63241H5.32727C4.88014 2.62821 4.43735 2.7204 4.02906 2.90271C3.62076 3.08502 3.25653 3.35316 2.96118 3.68888C2.66582 4.0246 2.44627 4.42002 2.31747 4.84821C2.18867 5.27641 2.15364 5.72733 2.21477 6.17028C2.76749 10.5168 4.75253 14.5552 7.85633 17.6478C10.9601 20.7403 15.0058 22.7106 19.3543 23.2475H19.7485C20.5136 23.2487 21.2523 22.968 21.8235 22.459C22.1517 22.1655 22.4139 21.8056 22.5928 21.4032C22.7716 21.0008 22.8631 20.565 22.861 20.1247V17.0122C22.8483 16.2915 22.5859 15.5976 22.1185 15.0489C21.6512 14.5001 21.0079 14.1306 20.2984 14.0034V14.0034ZM20.8171 20.2284C20.817 20.3757 20.7854 20.5213 20.7246 20.6555C20.6638 20.7896 20.5751 20.9093 20.4644 21.0065C20.3488 21.1072 20.2133 21.1823 20.0667 21.227C19.9201 21.2717 19.7657 21.285 19.6136 21.2659C15.7281 20.7677 12.119 18.9901 9.35559 16.2136C6.59219 13.437 4.83177 9.81952 4.35202 5.93166C4.33551 5.77968 4.34998 5.62594 4.39456 5.47971C4.43914 5.33349 4.51291 5.19782 4.6114 5.08091C4.70862 4.97024 4.8283 4.88154 4.96246 4.82072C5.09663 4.7599 5.24221 4.72835 5.38952 4.72816H8.50202C8.74329 4.72279 8.97888 4.8017 9.16824 4.95129C9.35761 5.10089 9.4889 5.31183 9.53952 5.54778C9.58102 5.83137 9.6329 6.11149 9.69515 6.38816C9.815 6.93507 9.9745 7.47253 10.1724 7.99628L8.7199 8.67066C8.5957 8.72764 8.48399 8.80859 8.39117 8.90886C8.29835 9.00914 8.22625 9.12676 8.17902 9.25497C8.13178 9.38319 8.11033 9.51947 8.11591 9.65599C8.12149 9.79252 8.15398 9.9266 8.21152 10.0505C9.70469 13.2489 12.2757 15.8199 15.474 17.313C15.7266 17.4168 16.0099 17.4168 16.2625 17.313C16.3919 17.2668 16.5108 17.1952 16.6123 17.1026C16.7139 17.01 16.796 16.8981 16.8539 16.7735L17.4971 15.321C18.0335 15.5128 18.5809 15.6722 19.1364 15.7983C19.4131 15.8605 19.6932 15.9124 19.9768 15.9539C20.2127 16.0045 20.4237 16.1358 20.5733 16.3252C20.7229 16.5145 20.8018 16.7501 20.7964 16.9914L20.8171 20.2284Z" fill="white"/>
</svg>
