<svg width="41" height="34" viewBox="0 0 41 34" fill="none" xmlns="http://www.w3.org/2000/svg">
<path d="M7.63143 18.5598C7.63143 21.2895 8.85524 23.762 10.8362 25.5579C11.0273 25.731 11.1228 25.8176 11.1792 25.9009C11.233 25.9803 11.2643 26.0487 11.2884 26.1393C11.3135 26.234 11.3135 26.342 11.3135 26.5578V30.4828C11.3135 30.9465 11.3135 31.1783 11.4139 31.3555C11.5021 31.5113 11.6429 31.638 11.8162 31.7173C12.0131 31.8076 12.2708 31.8076 12.7864 31.8076H16.2844C16.7999 31.8076 17.0578 31.8076 17.2546 31.7173C17.4278 31.638 17.5687 31.5113 17.6568 31.3555C17.7572 31.1783 17.7572 30.9465 17.7572 30.4828V29.8204C17.7572 29.3567 17.7572 29.1249 17.8575 28.9477C17.9459 28.7919 18.0867 28.6652 18.2598 28.5859C18.4568 28.4956 18.7145 28.4956 19.23 28.4956H21.8075C22.3232 28.4956 22.5809 28.4956 22.7777 28.5859C22.951 28.6652 23.0918 28.7919 23.18 28.9477C23.2803 29.1249 23.2803 29.3567 23.2803 29.8204V30.4828C23.2803 30.9465 23.2803 31.1783 23.3807 31.3555C23.4691 31.5113 23.6099 31.638 23.783 31.7173C23.9799 31.8076 24.2377 31.8076 24.7532 31.8076H28.2514C28.7669 31.8076 29.0246 31.8076 29.2216 31.7173C29.3949 31.638 29.5357 31.5113 29.6239 31.3555C29.7242 31.1783 29.7242 30.9465 29.7242 30.4828V28.867C29.7242 28.5325 29.7242 28.3651 29.7772 28.2308C29.8279 28.1021 29.8919 28.0121 30.0004 27.9163C30.1134 27.8167 30.3051 27.7367 30.6884 27.5765C32.4967 26.8214 34.0397 25.6392 35.1574 24.1738C35.354 23.9162 35.4521 23.7873 35.5572 23.7112C35.6576 23.6383 35.7476 23.5957 35.871 23.5625C36.0002 23.5277 36.1536 23.5277 36.4601 23.5277H37.4567C37.9722 23.5277 38.2299 23.5277 38.4269 23.4374C38.6001 23.3581 38.741 23.2314 38.8292 23.0756C38.9295 22.8984 38.9295 22.6666 38.9295 22.2029V16.5489C38.9295 16.1076 38.9295 15.8868 38.8384 15.7164C38.7478 15.5475 38.5963 15.4112 38.4085 15.3298C38.219 15.2478 37.9736 15.2478 37.483 15.2478C37.1277 15.2478 36.95 15.2478 36.8069 15.2044C36.6527 15.1577 36.5444 15.0955 36.4325 14.9891C36.3288 14.8904 36.244 14.7255 36.0746 14.3958C35.5305 13.3372 34.7857 12.3793 33.8837 11.5617C33.6926 11.3885 33.5971 11.3019 33.5407 11.2186C33.4868 11.1391 33.4555 11.0708 33.4316 10.9803C33.4063 10.8854 33.4063 10.7775 33.4063 10.5617V8.72422C33.4063 8.12799 33.4063 7.82988 33.2683 7.6295C33.1473 7.45397 32.9579 7.32542 32.7371 7.26905C32.4849 7.20471 32.1662 7.28662 31.5288 7.45041L27.1609 8.57293C27.0865 8.59201 27.0495 8.60155 27.0118 8.60824C26.9783 8.6142 26.9444 8.61845 26.9104 8.62102C26.8721 8.6239 26.8334 8.6239 26.7563 8.6239H25.9666M7.63143 18.5598C7.63143 14.7442 10.0224 11.4311 13.5302 9.76636M7.63143 18.5598H5.79051C3.75693 18.5598 2.1084 17.077 2.1084 15.2478C2.1084 14.0219 2.84887 12.9516 3.94945 12.3789M26.0421 7.79591C26.0421 10.9969 23.1572 13.5918 19.5984 13.5918C16.0397 13.5918 13.1547 10.9969 13.1547 7.79591C13.1547 4.59491 16.0397 2 19.5984 2C23.1572 2 26.0421 4.59491 26.0421 7.79591Z" stroke="#FFA666" stroke-width="3.50677" stroke-linecap="round" stroke-linejoin="round"/>
</svg>
