<svg width="31" height="29" viewBox="0 0 31 29" fill="none" xmlns="http://www.w3.org/2000/svg">
<path d="M22.8359 26.5466C22.8407 27.7625 22.0521 28.688 20.9238 28.9375C19.8198 29.1825 18.6405 28.6789 18.1746 27.6944C17.6141 26.5103 17.1166 25.3012 16.5901 24.1012C16.4105 23.6906 16.2213 23.2823 16.0563 22.8649C15.9811 22.6789 15.8743 22.6018 15.6559 22.604C12.8339 22.6109 10.0095 22.6109 7.18746 22.604C6.9254 22.604 6.84047 22.7288 6.7604 22.9171C6.09312 24.4596 5.42583 26.0022 4.75127 27.5424C4.28781 28.5973 3.2614 29.0578 2.33691 28.9942C1.12124 28.9103 0.262266 28.1776 0.0390288 27.1001C-0.0604572 26.6124 0.0390288 26.1474 0.238001 25.6869C1.44397 22.9307 2.64265 20.17 3.84376 17.4116C5.58598 13.4078 7.33062 9.40625 9.06799 5.40246C9.44409 4.53591 10.0798 3.97107 11.0868 3.8395C12.2297 3.68978 13.2658 4.25916 13.7099 5.26862C14.4402 6.93138 15.1609 8.59642 15.8864 10.2592C18.1091 15.3655 20.3317 20.4717 22.5568 25.578C22.7146 25.9387 22.8577 26.3016 22.8407 26.5489L22.8359 26.5466ZM11.4217 12.2237C11.2834 12.539 11.1693 12.7908 11.0601 13.0426C10.3856 14.5919 9.70858 16.1413 9.03887 17.6929C8.98791 17.8086 8.82534 17.9923 9.15777 17.9923C10.6646 17.9923 12.1715 17.9923 13.6783 17.9923C13.8724 17.9923 13.904 17.9197 13.8336 17.7632C13.7147 17.5023 13.6031 17.2392 13.489 16.976C12.8121 15.4176 12.1351 13.8592 11.4217 12.2237Z" fill="#00B1BB"/>
<path d="M20.9966 3.75524C21.2025 3.75524 21.4109 3.74131 21.6168 3.75988C21.8996 3.78542 21.9715 3.66935 21.9641 3.4233C21.9517 2.96834 21.9244 2.50874 21.9889 2.06074C22.1849 0.721392 23.3757 -0.0422927 24.5739 0.00181071C25.9582 0.055199 26.9679 1.06726 27.0101 2.37411C27.02 2.70372 27.0101 3.03334 27.0126 3.36063C27.0126 3.7506 27.0126 3.74363 27.4194 3.75524C27.9454 3.76917 28.4738 3.70417 28.9973 3.80631C30.2526 4.05236 31.0563 5.05049 30.9968 6.28538C30.9447 7.37868 29.9896 8.30253 28.7765 8.4418C28.2902 8.49751 27.8065 8.47198 27.3202 8.4743C27.0945 8.4743 27.0101 8.5509 27.0076 8.76445C27.0027 9.23799 27.0399 9.71152 26.9679 10.185C26.7819 11.413 25.6531 12.2742 24.2961 12.2068C23.0482 12.1465 21.9988 11.1275 21.9616 9.92971C21.9492 9.55367 21.9467 9.17531 21.9616 8.79695C21.9715 8.56019 21.8872 8.46966 21.6267 8.4743C21.1405 8.47894 20.6567 8.49287 20.1705 8.4418C18.9226 8.30949 17.9253 7.26726 17.9476 6.09968C17.9724 4.84158 19.0342 3.80166 20.3441 3.75756C20.5599 3.7506 20.7783 3.75756 20.9966 3.75756V3.75524Z" fill="#00B1BB"/>
</svg>
