<svg width="38" height="38" viewBox="0 0 38 38" fill="none" xmlns="http://www.w3.org/2000/svg">
<path d="M32.085 26.5805L28.3589 22.8544C28.2157 22.71 28.0454 22.5955 27.8578 22.5173C27.6702 22.4392 27.4689 22.3989 27.2657 22.3989C27.0624 22.3989 26.8611 22.4392 26.6735 22.5173C26.4859 22.5955 26.3156 22.71 26.1724 22.8544L20.6602 28.3666C20.5175 28.5105 20.4046 28.6811 20.328 28.8687C20.2514 29.0563 20.2125 29.2572 20.2137 29.4598V33.1859C20.2137 33.5943 20.3759 33.9859 20.6647 34.2747C20.9534 34.5634 21.3451 34.7257 21.7534 34.7257H25.4796C25.6822 34.7268 25.8831 34.688 26.0707 34.6114C26.2583 34.5347 26.4289 34.4218 26.5728 34.2791L32.085 28.7669C32.2293 28.6238 32.3439 28.4535 32.422 28.2659C32.5002 28.0782 32.5405 27.877 32.5405 27.6737C32.5405 27.4704 32.5002 27.2692 32.422 27.0816C32.3439 26.8939 32.2293 26.7236 32.085 26.5805V26.5805ZM24.8329 31.6462H23.2932V30.1065L27.2657 26.134L28.8054 27.6737L24.8329 31.6462ZM15.5945 31.6462H9.43559C9.02723 31.6462 8.6356 31.484 8.34684 31.1952C8.05809 30.9065 7.89586 30.5148 7.89586 30.1065V8.55028C7.89586 8.14192 8.05809 7.75028 8.34684 7.46152C8.6356 7.17277 9.02723 7.01055 9.43559 7.01055H17.1342V11.6297C17.1342 12.8548 17.6209 14.0297 18.4872 14.896C19.3534 15.7623 20.5283 16.2489 21.7534 16.2489H26.3726V17.7886C26.3726 18.197 26.5348 18.5886 26.8236 18.8774C27.1123 19.1662 27.504 19.3284 27.9123 19.3284C28.3207 19.3284 28.7123 19.1662 29.0011 18.8774C29.2898 18.5886 29.4521 18.197 29.4521 17.7886V14.7092C29.4521 14.7092 29.4521 14.7092 29.4521 14.6168C29.436 14.4754 29.4051 14.336 29.3597 14.2011V14.0625C29.2857 13.9042 29.1869 13.7587 29.0671 13.6314L19.8288 4.39301C19.7015 4.27324 19.556 4.17449 19.3976 4.10046C19.3517 4.09393 19.305 4.09393 19.2591 4.10046L18.7663 3.93109H9.43559C8.21051 3.93109 7.0356 4.41775 6.16933 5.28402C5.30307 6.15029 4.81641 7.32519 4.81641 8.55028V30.1065C4.81641 31.3316 5.30307 32.5065 6.16933 33.3727C7.0356 34.239 8.21051 34.7257 9.43559 34.7257H15.5945C16.0029 34.7257 16.3945 34.5634 16.6833 34.2747C16.972 33.9859 17.1342 33.5943 17.1342 33.1859C17.1342 32.7776 16.972 32.3859 16.6833 32.0972C16.3945 31.8084 16.0029 31.6462 15.5945 31.6462ZM20.2137 9.18157L24.2016 13.1695H21.7534C21.3451 13.1695 20.9534 13.0072 20.6647 12.7185C20.3759 12.4297 20.2137 12.0381 20.2137 11.6297V9.18157ZM12.5151 22.4078H21.7534C22.1618 22.4078 22.5534 22.2456 22.8422 21.9569C23.1309 21.6681 23.2932 21.2765 23.2932 20.8681C23.2932 20.4597 23.1309 20.0681 22.8422 19.7794C22.5534 19.4906 22.1618 19.3284 21.7534 19.3284H12.5151C12.1067 19.3284 11.7151 19.4906 11.4263 19.7794C11.1375 20.0681 10.9753 20.4597 10.9753 20.8681C10.9753 21.2765 11.1375 21.6681 11.4263 21.9569C11.7151 22.2456 12.1067 22.4078 12.5151 22.4078ZM12.5151 16.2489H14.0548C14.4631 16.2489 14.8548 16.0867 15.1435 15.7979C15.4323 15.5092 15.5945 15.1176 15.5945 14.7092C15.5945 14.3008 15.4323 13.9092 15.1435 13.6204C14.8548 13.3317 14.4631 13.1695 14.0548 13.1695H12.5151C12.1067 13.1695 11.7151 13.3317 11.4263 13.6204C11.1375 13.9092 10.9753 14.3008 10.9753 14.7092C10.9753 15.1176 11.1375 15.5092 11.4263 15.7979C11.7151 16.0867 12.1067 16.2489 12.5151 16.2489ZM15.5945 25.4873H12.5151C12.1067 25.4873 11.7151 25.6495 11.4263 25.9383C11.1375 26.227 10.9753 26.6187 10.9753 27.027C10.9753 27.4354 11.1375 27.827 11.4263 28.1158C11.7151 28.4045 12.1067 28.5667 12.5151 28.5667H15.5945C16.0029 28.5667 16.3945 28.4045 16.6833 28.1158C16.972 27.827 17.1342 27.4354 17.1342 27.027C17.1342 26.6187 16.972 26.227 16.6833 25.9383C16.3945 25.6495 16.0029 25.4873 15.5945 25.4873Z" fill="#FF8833" stroke="white" stroke-width="0.791861"/>
</svg>
