<svg width="78" height="78" viewBox="0 0 78 78" fill="none" xmlns="http://www.w3.org/2000/svg">
<path d="M4.58502 0.119995C3.40502 0.119995 2.27501 0.589995 1.44501 1.42C0.615007 2.25 0.14502 3.38999 0.14502 4.55999V22.35H22.385V0.119995H4.59503H4.58502ZM16.815 16.8H5.69501V5.68H16.815V16.8Z" fill="#797979"/>
<path d="M0.13501 73.5C0.13501 74.68 0.604998 75.81 1.435 76.64C2.265 77.47 3.39501 77.94 4.57501 77.94H22.365V55.7H0.125V73.49L0.13501 73.5ZM5.69501 61.27H16.815V72.39H5.69501V61.27Z" fill="#797979"/>
<path d="M55.7251 77.95H73.5151C74.6951 77.95 75.8251 77.48 76.6551 76.65C77.4951 75.82 77.9651 74.68 77.9651 73.51V55.72H55.7251V77.96V77.95ZM61.2851 61.27H72.4051V72.39H61.2851V61.27Z" fill="#797979"/>
<path d="M73.5151 0.119995H55.7251V22.36H77.9651V4.56999C77.9651 3.38999 77.4951 2.26 76.6551 1.43C75.8251 0.599996 74.6951 0.129995 73.5151 0.129995V0.119995ZM72.4051 16.8H61.2851V5.68H72.4051V16.8Z" fill="#797979"/>
<path d="M44.6049 16.8V11.24H33.4849V22.36H39.0449V16.8H44.6049Z" fill="#797979"/>
<path d="M22.3652 22.36H27.9252V27.92H22.3652V22.36Z" fill="#797979"/>
<path d="M27.9248 27.91H39.0449V33.47H27.9248V27.91Z" fill="#797979"/>
<path d="M44.6049 5.68V11.24H50.1649V0.119995H27.9248V11.24H33.4848V5.68H44.6049Z" fill="#797979"/>
<path d="M0.135254 27.91H5.69525V39.03H0.135254V27.91Z" fill="#797979"/>
<path d="M22.365 33.47V39.03H16.805V27.91H11.245V39.03H5.685V44.59H0.125V50.15H11.245V44.59H16.805V50.15H22.365V44.59H27.925V33.47H22.365Z" fill="#797979"/>
<path d="M44.6049 33.47H50.1649V39.03H55.7249V33.47H61.2849V27.91H50.1649V16.79H44.6049V22.35H39.0449V27.91H44.6049V33.47Z" fill="#797979"/>
<path d="M39.0449 72.39H27.9248V77.95H50.1649V72.39H44.6049V66.83H39.0449V72.39Z" fill="#797979"/>
<path d="M50.1649 44.59V39.03H44.6049V33.47H39.0449V39.03H33.4849V44.59H39.0449V50.15H44.6049V44.59H50.1649Z" fill="#797979"/>
<path d="M72.4053 44.59H77.9653V50.15H72.4053V44.59Z" fill="#797979"/>
<path d="M50.165 44.59H66.845V50.15H50.165V44.59Z" fill="#797979"/>
<path d="M72.4052 27.91H66.8452V33.47H61.2852V39.03H66.8452V44.59H72.4052V39.03H77.9551V33.47H72.4052V27.91Z" fill="#797979"/>
<path d="M44.605 50.15H50.165V66.83H44.605V50.15Z" fill="#797979"/>
<path d="M27.9248 66.83H33.4848V61.27H39.0449V55.71H33.4848V44.59H27.9248V66.83Z" fill="#797979"/>
</svg>
