<svg width="33" height="33" viewBox="0 0 33 33" fill="none" xmlns="http://www.w3.org/2000/svg">
<path d="M29.0999 16.5381C29.775 15.7955 30.1517 14.8295 30.1577 13.8259C30.1577 12.7469 29.7291 11.7121 28.9661 10.9491C28.2031 10.1861 27.1683 9.75751 26.0893 9.75751H19.0646C19.2812 9.14479 19.3479 8.48907 19.2591 7.84528C19.1702 7.20148 18.9285 6.58833 18.554 6.05716C18.1795 5.526 17.6832 5.09227 17.1067 4.7923C16.5302 4.49232 15.8902 4.33483 15.2403 4.33301H7.10354C6.02453 4.33301 4.98973 4.76164 4.22676 5.52461C3.46379 6.28758 3.03516 7.32239 3.03516 8.40139C3.04114 9.405 3.41787 10.371 4.09293 11.1136C3.42578 11.8595 3.05695 12.8252 3.05695 13.8259C3.05695 14.8266 3.42578 15.7922 4.09293 16.5381C3.42578 17.284 3.05695 18.2497 3.05695 19.2504C3.05695 20.2511 3.42578 21.2168 4.09293 21.9627C3.41787 22.7053 3.04114 23.6713 3.03516 24.6749C3.03516 25.7539 3.46379 26.7887 4.22676 27.5517C4.98973 28.3147 6.02453 28.7433 7.10354 28.7433H26.0893C26.8728 28.7391 27.6385 28.5088 28.2942 28.0799C28.95 27.6511 29.468 27.042 29.7859 26.3259C30.1039 25.6098 30.2083 24.8171 30.0866 24.0431C29.9649 23.2691 29.6223 22.5467 29.0999 21.9627C29.7671 21.2168 30.1359 20.2511 30.1359 19.2504C30.1359 18.2497 29.7671 17.284 29.0999 16.5381ZM15.2403 26.031H7.10354C6.74387 26.031 6.39893 25.8882 6.14461 25.6338C5.89029 25.3795 5.74741 25.0346 5.74741 24.6749C5.74741 24.3152 5.89029 23.9703 6.14461 23.716C6.39893 23.4617 6.74387 23.3188 7.10354 23.3188H15.2403C15.6 23.3188 15.9449 23.4617 16.1992 23.716C16.4535 23.9703 16.5964 24.3152 16.5964 24.6749C16.5964 25.0346 16.4535 25.3795 16.1992 25.6338C15.9449 25.8882 15.6 26.031 15.2403 26.031ZM15.2403 20.6065H7.10354C6.74387 20.6065 6.39893 20.4636 6.14461 20.2093C5.89029 19.955 5.74741 19.6101 5.74741 19.2504C5.74741 18.8907 5.89029 18.5458 6.14461 18.2915C6.39893 18.0372 6.74387 17.8943 7.10354 17.8943H15.2403C15.6 17.8943 15.9449 18.0372 16.1992 18.2915C16.4535 18.5458 16.5964 18.8907 16.5964 19.2504C16.5964 19.6101 16.4535 19.955 16.1992 20.2093C15.9449 20.4636 15.6 20.6065 15.2403 20.6065ZM15.2403 15.182H7.10354C6.74387 15.182 6.39893 15.0391 6.14461 14.7848C5.89029 14.5305 5.74741 14.1856 5.74741 13.8259C5.74741 13.4662 5.89029 13.1213 6.14461 12.867C6.39893 12.6126 6.74387 12.4698 7.10354 12.4698H15.2403C15.6 12.4698 15.9449 12.6126 16.1992 12.867C16.4535 13.1213 16.5964 13.4662 16.5964 13.8259C16.5964 14.1856 16.4535 14.5305 16.1992 14.7848C15.9449 15.0391 15.6 15.182 15.2403 15.182ZM15.2403 9.75751H7.10354C6.74387 9.75751 6.39893 9.61464 6.14461 9.36031C5.89029 9.10599 5.74741 8.76105 5.74741 8.40139C5.74741 8.04172 5.89029 7.69678 6.14461 7.44246C6.39893 7.18814 6.74387 7.04526 7.10354 7.04526H15.2403C15.6 7.04526 15.9449 7.18814 16.1992 7.44246C16.4535 7.69678 16.5964 8.04172 16.5964 8.40139C16.5964 8.76105 16.4535 9.10599 16.1992 9.36031C15.9449 9.61464 15.6 9.75751 15.2403 9.75751ZM27.025 25.6378C26.9048 25.7646 26.7596 25.865 26.5985 25.9327C26.4374 26.0004 26.264 26.0339 26.0893 26.031H19.0646C19.3898 25.1562 19.3898 24.1936 19.0646 23.3188H26.0893C26.449 23.3188 26.7939 23.4617 27.0482 23.716C27.3026 23.9703 27.4454 24.3152 27.4454 24.6749C27.4429 24.8553 27.4045 25.0334 27.3323 25.1987C27.2601 25.364 27.1556 25.5133 27.025 25.6378ZM27.025 20.2133C26.9048 20.34 26.7596 20.4405 26.5985 20.5082C26.4374 20.5759 26.264 20.6094 26.0893 20.6065H19.0646C19.3898 19.7317 19.3898 18.7691 19.0646 17.8943H26.0893C26.449 17.8943 26.7939 18.0372 27.0482 18.2915C27.3026 18.5458 27.4454 18.8907 27.4454 19.2504C27.4429 19.4308 27.4045 19.6089 27.3323 19.7742C27.2601 19.9395 27.1556 20.0888 27.025 20.2133ZM27.025 14.7887C26.9048 14.9155 26.7596 15.016 26.5985 15.0837C26.4374 15.1514 26.264 15.1849 26.0893 15.182H19.0646C19.3898 14.3072 19.3898 13.3446 19.0646 12.4698H26.0893C26.449 12.4698 26.7939 12.6126 27.0482 12.867C27.3026 13.1213 27.4454 13.4662 27.4454 13.8259C27.4429 14.0063 27.4045 14.1844 27.3323 14.3497C27.2601 14.515 27.1556 14.6643 27.025 14.7887Z" fill="#9F66DB"/>
</svg>
