<svg width="70" height="71" viewBox="0 0 70 71" fill="none" xmlns="http://www.w3.org/2000/svg">
<path fill-rule="evenodd" clip-rule="evenodd" d="M49.4347 45.27L67.9948 64.1C68.6448 64.76 69.0148 65.66 69.0148 66.6C69.0148 67.54 68.6448 68.43 67.9948 69.1C67.3448 69.76 66.4548 70.13 65.5348 70.13C64.6148 70.13 63.7249 69.76 63.0749 69.1L44.5148 50.27C38.9648 54.63 31.9848 56.68 25.0048 56.01C18.0148 55.34 11.5447 51.99 6.90469 46.65C2.26469 41.31 -0.195189 34.37 0.0248106 27.26C0.254811 20.14 3.13488 13.38 8.09488 8.35003C13.0649 3.32003 19.7248 0.390034 26.7448 0.160034C33.7548 -0.0599658 40.5949 2.43003 45.8549 7.14003C51.1249 11.85 54.4249 18.41 55.0849 25.5C55.7549 32.59 53.7347 39.67 49.4347 45.3V45.27ZM27.6149 49.12C33.1049 49.12 38.3748 46.91 42.2548 42.97C46.1348 39.03 48.3148 33.69 48.3148 28.12C48.3148 22.55 46.1348 17.21 42.2548 13.27C38.3748 9.33003 33.1049 7.12004 27.6149 7.12004C22.1249 7.12004 16.8648 9.33003 12.9748 13.27C9.09476 17.21 6.9147 22.55 6.9147 28.12C6.9147 33.69 9.09476 39.03 12.9748 42.97C16.8648 46.91 22.1249 49.12 27.6149 49.12Z" fill="#797979"/>
</svg>
