<svg width="30" height="30" viewBox="0 0 30 30" fill="none" xmlns="http://www.w3.org/2000/svg">
<path d="M5.86719 12.7664H3.45052C3.13005 12.7664 2.82271 12.8937 2.5961 13.1203C2.36949 13.3469 2.24219 13.6543 2.24219 13.9747C2.24219 14.2952 2.36949 14.6026 2.5961 14.8292C2.82271 15.0558 3.13005 15.1831 3.45052 15.1831H5.86719C6.18766 15.1831 6.495 15.0558 6.72161 14.8292C6.94821 14.6026 7.07552 14.2952 7.07552 13.9747C7.07552 13.6543 6.94821 13.3469 6.72161 13.1203C6.495 12.8937 6.18766 12.7664 5.86719 12.7664ZM26.143 9.33475V9.26225C25.7968 8.83908 25.3594 8.4997 24.8634 8.26952C24.3675 8.03934 23.8259 7.92433 23.2793 7.93308H13.6972C12.8093 7.92511 11.9494 8.24328 11.2805 8.82725C10.6558 9.37768 10.2451 10.1307 10.1205 10.9539L9.05719 16.9956C8.96575 17.5173 8.98977 18.0528 9.12755 18.5643C9.26533 19.0757 9.51354 19.5508 9.85469 19.956C10.1941 20.3599 10.6175 20.6848 11.0954 20.9081C11.5733 21.1314 12.0942 21.2477 12.6218 21.2489H22.2159C23.0778 21.2619 23.9161 20.9675 24.5804 20.4183C25.2447 19.8691 25.6916 19.1012 25.8409 18.2522L26.9043 12.2106C26.988 11.7047 26.9635 11.1867 26.8322 10.691C26.701 10.1952 26.4661 9.73299 26.143 9.33475ZM22.8322 10.3497L18.7239 13.6847C18.4809 13.8805 18.1717 13.9748 17.8609 13.9477C17.5501 13.9207 17.2618 13.7745 17.0564 13.5397L14.2409 10.3497H22.8322ZM23.4122 17.8052C23.3633 18.0889 23.2147 18.3458 22.9931 18.5297C22.7716 18.7135 22.4917 18.8123 22.2039 18.8081H12.6218C12.4463 18.8066 12.2732 18.7669 12.1147 18.6918C11.9561 18.6167 11.8157 18.5079 11.7034 18.3731C11.5908 18.239 11.5088 18.0819 11.4629 17.9129C11.417 17.7439 11.4083 17.567 11.4376 17.3943L12.4043 11.9206L15.2439 15.1347C15.8619 15.8372 16.7277 16.2735 17.66 16.3523C18.5924 16.4312 19.5191 16.1464 20.2464 15.5577L24.403 12.1622L23.4122 17.8052ZM7.07552 7.93308H3.45052C3.13005 7.93308 2.82271 8.06039 2.5961 8.287C2.36949 8.5136 2.24219 8.82095 2.24219 9.14142C2.24219 9.46189 2.36949 9.76923 2.5961 9.99584C2.82271 10.2224 3.13005 10.3497 3.45052 10.3497H7.07552C7.39599 10.3497 7.70333 10.2224 7.92994 9.99584C8.15655 9.76923 8.28385 9.46189 8.28385 9.14142C8.28385 8.82095 8.15655 8.5136 7.92994 8.287C7.70333 8.06039 7.39599 7.93308 7.07552 7.93308Z" fill="white"/>
</svg>
