<svg width="77" height="77" viewBox="0 0 77 77" fill="none" xmlns="http://www.w3.org/2000/svg">
<path d="M75.755 37.1L2.05503 0.149962C1.75503 -3.80278e-05 1.41494 -0.0300367 1.08494 0.0399633C0.334938 0.219963 -0.124969 0.979962 0.0550306 1.73996L7.65501 32.77C7.76501 33.24 8.10504 33.62 8.56504 33.77L21.5751 38.24L8.57505 42.71C8.11505 42.87 7.77502 43.24 7.66502 43.71L0.0550306 74.78C-0.0249694 75.11 0.015016 75.45 0.165016 75.74C0.505016 76.44 1.35503 76.72 2.05503 76.37L75.755 39.63C76.025 39.5 76.245 39.27 76.385 39C76.735 38.3 76.445 37.45 75.755 37.1ZM8.74497 65.94L13.175 47.83L39.185 38.91C39.385 38.84 39.555 38.68 39.625 38.47C39.745 38.1 39.555 37.7 39.185 37.57L13.175 28.65L8.76499 10.61L64.0849 38.35L8.74497 65.94Z" fill="#797979"/>
</svg>
