<svg width="60" height="72" viewBox="0 0 60 72" fill="none" xmlns="http://www.w3.org/2000/svg">
<path d="M22.0315 25.8321L39.9835 5.28809C40.5595 4.61609 40.7515 3.94409 40.7515 3.27209C40.7515 1.64009 39.5035 0.39209 37.8715 0.39209H6.57549C4.94348 0.39209 3.69548 1.64009 3.69548 3.27209C3.69548 4.90409 4.94348 6.15209 6.57549 6.15209H31.3435L13.6795 26.6961C13.1995 27.2721 12.9115 27.8481 12.9115 28.7121C12.9115 30.3441 14.1595 31.5921 15.7915 31.5921H22.5115C33.4555 31.5921 37.0075 37.8321 37.0075 46.5681C37.0075 55.4961 31.8235 60.5841 21.1675 60.5841C13.3915 60.5841 8.49549 57.4161 5.51949 52.5201C4.75149 51.2721 3.79149 50.9841 2.92749 50.9841C1.29549 50.9841 0.0474854 52.2321 0.0474854 53.8641C0.0474854 54.5361 0.239485 55.0161 0.527485 55.4961C4.27148 61.7361 10.8955 66.3441 21.1675 66.3441C35.7595 66.3441 43.3435 59.1441 43.3435 46.5681C43.3435 35.8161 38.6395 25.8321 22.9915 25.8321H22.0315Z" fill="#9F66DB"/>
<path d="M51.6175 65.7681C54.4015 65.7681 56.1295 64.4241 56.1295 61.2561C56.1295 58.0881 54.4015 56.6481 51.6175 56.6481C48.8335 56.6481 47.1055 58.0881 47.1055 61.2561C47.1055 64.4241 48.8335 65.7681 51.6175 65.7681Z" fill="#9F66DB"/>
<path fill-rule="evenodd" clip-rule="evenodd" d="M41.9835 9.28809L24.0315 29.8321H24.9915C25.1143 29.8321 25.2364 29.8327 25.3579 29.8339C40.713 29.9888 45.3435 39.9005 45.3435 50.5681C45.3435 63.1441 37.7595 70.3441 23.1675 70.3441C12.8955 70.3441 6.27148 65.7361 2.52748 59.4961C2.23949 59.0161 2.04749 58.5361 2.04749 57.8641C2.04749 56.2321 3.29549 54.9841 4.92749 54.9841C5.79148 54.9841 6.75148 55.2721 7.51949 56.5201C10.4955 61.4161 15.3915 64.5841 23.1675 64.5841C33.8235 64.5841 39.0075 59.4961 39.0075 50.5681C39.0075 41.8321 35.4555 35.5921 24.5115 35.5921H17.7915C16.1595 35.5921 14.9115 34.3441 14.9115 32.7121C14.9115 31.8481 15.1995 31.2721 15.6795 30.6961L33.3435 10.1521H8.57549C6.94349 10.1521 5.69548 8.90409 5.69548 7.27209C5.69548 5.64009 6.94349 4.39209 8.57549 4.39209H39.8715C41.5035 4.39209 42.7515 5.64009 42.7515 7.27209C42.7515 7.94409 42.5595 8.61609 41.9835 9.28809ZM31.1649 11.1521L14.9162 30.05L14.9113 30.0559C14.3193 30.7662 13.9115 31.5612 13.9115 32.7121C13.9115 34.8964 15.6072 36.5921 17.7915 36.5921H24.5115C29.7925 36.5921 33.0933 38.091 35.1018 40.452C37.1374 42.845 38.0075 46.3093 38.0075 50.5681C38.0075 54.8377 36.7734 58.0373 34.411 60.184C32.0322 62.3455 28.3518 63.5841 23.1675 63.5841C15.7222 63.5841 11.1592 60.5828 8.37402 56.0007L8.37114 55.996C7.90401 55.2369 7.34299 54.7163 6.71629 54.3945C6.09442 54.0752 5.47146 53.9841 4.92749 53.9841C2.7432 53.9841 1.04749 55.6798 1.04749 57.8641C1.04749 58.7661 1.31751 59.4231 1.66999 60.0106C5.59429 66.5511 12.5434 71.3441 23.1675 71.3441C30.615 71.3441 36.4342 69.5069 40.3991 65.913C44.3795 62.305 46.3435 57.0608 46.3435 50.5681C46.3435 45.0689 45.1437 39.6229 41.8104 35.536C38.6199 31.6243 33.5942 29.1021 26.2155 28.8525L42.7365 9.94613L42.7427 9.93888C43.4844 9.07364 43.7515 8.16651 43.7515 7.27209C43.7515 5.08781 42.0558 3.39209 39.8715 3.39209H8.57549C6.3912 3.39209 4.69548 5.08781 4.69548 7.27209C4.69548 9.45637 6.3912 11.1521 8.57549 11.1521H31.1649ZM57.6018 69.4293C56.5699 70.3976 55.1549 70.7681 53.6175 70.7681C52.0801 70.7681 50.665 70.3976 49.6332 69.4293C48.5896 68.4499 48.1055 67.0176 48.1055 65.2561C48.1055 63.4949 48.589 62.0468 49.6215 61.046C50.6482 60.051 52.0635 59.6481 53.6175 59.6481C55.1714 59.6481 56.5868 60.051 57.6135 61.046C58.646 62.0468 59.1295 63.4949 59.1295 65.2561C59.1295 67.0176 58.6454 68.4499 57.6018 69.4293ZM58.1295 65.2561C58.1295 68.4241 56.4015 69.7681 53.6175 69.7681C50.8335 69.7681 49.1055 68.4241 49.1055 65.2561C49.1055 62.0881 50.8335 60.6481 53.6175 60.6481C56.4015 60.6481 58.1295 62.0881 58.1295 65.2561Z" fill="#9F66DB"/>
</svg>
