<svg width="34" height="33" viewBox="0 0 34 33" fill="none" xmlns="http://www.w3.org/2000/svg">
<path d="M30.4308 16.5128C30.4301 16.2623 30.36 16.017 30.2283 15.804C30.0967 15.5909 29.9086 15.4185 29.685 15.3058L21.3855 11.1561V5.73156C21.3855 4.62378 20.9454 3.56138 20.1621 2.77806C19.3788 1.99475 18.3164 1.55469 17.2086 1.55469C16.1008 1.55469 15.0384 1.99475 14.2551 2.77806C13.4718 3.56138 13.0317 4.62378 13.0317 5.73156V11.1561L4.73224 15.3058C4.5086 15.4185 4.32053 15.5909 4.18888 15.804C4.05722 16.017 3.98713 16.2623 3.98638 16.5128V21.0287C3.98453 21.2496 4.0367 21.4676 4.13833 21.6638C4.23996 21.86 4.38798 22.0283 4.56951 22.1543C4.75001 22.2779 4.95775 22.3561 5.17501 22.3821C5.39226 22.408 5.61258 22.3811 5.81715 22.3034L13.0317 19.5912V24.6495L10.5636 25.4632C10.2942 25.5542 10.0603 25.7275 9.8948 25.9587C9.72933 26.1899 9.64069 26.4672 9.64142 26.7515V30.074C9.64217 30.2535 9.67851 30.431 9.74835 30.5962C9.81818 30.7615 9.92012 30.9113 10.0483 31.0369C10.3009 31.2874 10.6418 31.4287 10.9976 31.4302H23.4332C23.7929 31.4302 24.1378 31.2873 24.3922 31.033C24.6465 30.7786 24.7894 30.4337 24.7894 30.074V26.6837C24.7901 26.3994 24.7015 26.1221 24.536 25.8909C24.3705 25.6597 24.1365 25.4864 23.8672 25.3954L21.3855 24.6495V19.6047L28.6001 22.317C28.8046 22.3946 29.025 22.4216 29.2422 22.3956C29.4595 22.3696 29.6672 22.2915 29.8477 22.1678C30.0292 22.0419 30.1773 21.8735 30.2789 21.6774C30.3805 21.4812 30.4327 21.2632 30.4308 21.0422V16.5128ZM20.5176 16.3772C20.3111 16.2972 20.0883 16.269 19.8684 16.295C19.6486 16.321 19.4384 16.4004 19.2564 16.5263C19.0767 16.6509 18.9299 16.8172 18.8283 17.0108C18.7268 17.2044 18.6736 17.4197 18.6732 17.6383V25.5581C18.6734 25.8441 18.764 26.1227 18.9321 26.3541C19.1002 26.5855 19.3371 26.7578 19.609 26.8465L22.0635 27.6601V28.7179H12.3401V27.6601L14.7947 26.8465C15.0666 26.7578 15.3035 26.5855 15.4716 26.3541C15.6396 26.1227 15.7302 25.8441 15.7304 25.5581V17.6383C15.7301 17.4197 15.6769 17.2044 15.5753 17.0108C15.4738 16.8172 15.3269 16.6509 15.1473 16.5263C14.9652 16.4004 14.7551 16.321 14.5352 16.295C14.3154 16.269 14.0925 16.2972 13.8861 16.3772L6.68507 19.0894V17.3536L14.971 13.2038C15.1972 13.093 15.388 12.9214 15.5222 12.7082C15.6563 12.495 15.7284 12.2487 15.7304 11.9969V5.77224C15.7304 5.3838 15.8847 5.01127 16.1594 4.7366C16.4341 4.46193 16.8066 4.30762 17.195 4.30762C17.5835 4.30762 17.956 4.46193 18.2307 4.7366C18.5054 5.01127 18.6597 5.3838 18.6597 5.77224V11.9969C18.6617 12.2487 18.7338 12.495 18.8679 12.7082C19.0021 12.9214 19.1929 13.093 19.4191 13.2038L27.705 17.3536V19.0758L20.5176 16.3772Z" fill="#9F66DB"/>
</svg>
