<svg width="30" height="30" viewBox="0 0 30 30" fill="none" xmlns="http://www.w3.org/2000/svg">
<path d="M22.9081 10.9897L11.2216 4.2875C10.5892 3.92234 9.87147 3.73104 9.14124 3.73305C8.41101 3.73505 7.69432 3.93029 7.06396 4.29892C6.4336 4.66755 5.91203 5.19644 5.55223 5.83188C5.19243 6.46732 5.00722 7.18667 5.0154 7.91686V21.3697C5.0154 22.467 5.45131 23.5194 6.22723 24.2953C7.00316 25.0712 8.05554 25.5072 9.15287 25.5072C9.87927 25.5059 10.5926 25.314 11.2216 24.9507L22.9081 18.2484C23.5361 17.885 24.0574 17.3628 24.4199 16.7343C24.7823 16.1058 24.9731 15.393 24.9731 14.6675C24.9731 13.9419 24.7823 13.2292 24.4199 12.6006C24.0574 11.9721 23.5361 11.4499 22.9081 11.0865V10.9897ZM21.6984 16.0587L10.0118 22.8577C9.74988 23.0062 9.45394 23.0842 9.15287 23.0842C8.85179 23.0842 8.55585 23.0062 8.29392 22.8577C8.03272 22.7069 7.81583 22.49 7.66505 22.2288C7.51427 21.9676 7.43492 21.6713 7.43497 21.3697V7.86847C7.43492 7.56686 7.51427 7.27056 7.66505 7.00935C7.81583 6.74814 8.03272 6.53123 8.29392 6.38043C8.55693 6.23423 8.85199 6.15528 9.15287 6.15057C9.45354 6.15674 9.74825 6.23561 10.0118 6.38043L21.6984 13.131C21.9597 13.2818 22.1766 13.4987 22.3275 13.7599C22.4784 14.0211 22.5578 14.3174 22.5578 14.6191C22.5578 14.9207 22.4784 15.2171 22.3275 15.4783C22.1766 15.7395 21.9597 15.9564 21.6984 16.1071V16.0587Z" fill="#FF8833"/>
</svg>
