<svg width="64" height="72" viewBox="0 0 64 72" fill="none" xmlns="http://www.w3.org/2000/svg">
<path d="M3.19761 12.5279C3.00561 13.1039 3.00561 13.4879 3.00561 13.5839C3.00561 15.2159 4.34961 16.5599 5.98161 16.5599C7.22961 16.5599 8.18961 15.8879 8.76561 14.6399C10.9736 9.83985 14.4296 5.80785 22.3976 5.80785C31.5176 5.80785 36.5096 11.3759 36.5096 18.7679C36.5096 39.5999 0.797607 41.9039 0.797607 63.0239C0.797607 64.6559 2.1416 65.9999 3.77361 65.9999H40.8296C42.4616 65.9999 43.8056 64.6559 43.8056 63.0239C43.8056 61.3919 42.4616 60.0479 40.8296 60.0479H7.32561C7.32561 48.5279 42.9416 41.8079 42.9416 18.7679C42.9416 7.53585 35.2616 0.0478516 22.3976 0.0478516C12.5096 0.0478516 5.78961 4.75185 3.19761 12.5279Z" fill="#9F66DB"/>
<path d="M55.5394 66.7679C58.3234 66.7679 60.0514 65.4239 60.0514 62.2559C60.0514 59.0879 58.3234 57.6479 55.5394 57.6479C52.7554 57.6479 51.0274 59.0879 51.0274 62.2559C51.0274 65.4239 52.7554 66.7679 55.5394 66.7679Z" fill="#9F66DB"/>
<path fill-rule="evenodd" clip-rule="evenodd" d="M11.6741 19.0578L11.6736 19.0589C10.9589 20.6073 9.67555 21.5599 7.98161 21.5599C5.79732 21.5599 4.00561 19.7681 4.00561 17.5839C4.00561 17.422 4.01189 16.9227 4.24892 16.2116C6.9968 7.968 14.1451 3.04785 24.3976 3.04785C31.0215 3.04785 36.4211 4.97813 40.1741 8.46306C43.9342 11.9547 45.9416 16.9151 45.9416 22.7679C45.9416 34.8644 36.5756 42.5712 27.6924 48.5571C26.123 49.6147 24.5745 50.615 23.0833 51.5782C20.2728 53.3937 17.666 55.0777 15.5065 56.7657C12.6384 59.0076 10.8768 61.0291 10.4353 63.0479H42.8296C45.0139 63.0479 46.8056 64.8396 46.8056 67.0239C46.8056 69.2081 45.0139 70.9999 42.8296 70.9999H5.77361C3.58932 70.9999 1.79761 69.2081 1.79761 67.0239C1.79761 61.4196 4.18113 57.0806 7.65385 53.4383C11.097 49.827 15.6659 46.8455 20.1075 43.9501L20.1404 43.9287C24.6175 41.0102 28.9636 38.1771 32.2094 34.8076C35.4334 31.4608 37.5096 27.6469 37.5096 22.7679C37.5096 19.301 36.3434 16.3344 34.1774 14.2337C32.0113 12.1329 28.7514 10.8079 24.3976 10.8079C20.5935 10.8079 17.9582 11.766 16.023 13.2228C14.0721 14.6914 12.7431 16.7339 11.6741 19.0578ZM9.41541 63.0479C10.1947 58.7146 15.9424 55.001 22.5955 50.7023C32.7201 44.1608 44.9416 36.2644 44.9416 22.7679C44.9416 11.5359 37.2616 4.04785 24.3976 4.04785C14.5096 4.04785 7.78961 8.75185 5.19761 16.5279C5.00561 17.1039 5.00561 17.4879 5.00561 17.5839C5.00561 19.2159 6.34961 20.5599 7.98161 20.5599C9.22961 20.5599 10.1896 19.8879 10.7656 18.6399C12.9736 13.8399 16.4296 9.80785 24.3976 9.80785C33.5176 9.80785 38.5096 15.3759 38.5096 22.7679C38.5096 33.1481 29.6428 38.9281 20.7455 44.7279C11.787 50.5677 2.79761 56.4276 2.79761 67.0239C2.79761 68.6559 4.14161 69.9999 5.77361 69.9999H42.8296C44.4616 69.9999 45.8056 68.6559 45.8056 67.0239C45.8056 65.3919 44.4616 64.0479 42.8296 64.0479H9.32561C9.32561 63.7106 9.35614 63.3774 9.41541 63.0479ZM61.5237 70.429C60.4918 71.3974 59.0768 71.7679 57.5394 71.7679C56.0019 71.7679 54.5869 71.3974 53.555 70.429C52.5114 69.4496 52.0274 68.0173 52.0274 66.2559C52.0274 64.4946 52.5109 63.0465 53.5434 62.0458C54.57 61.0507 55.9854 60.6479 57.5394 60.6479C59.0933 60.6479 60.5087 61.0507 61.5353 62.0458C62.5678 63.0465 63.0514 64.4946 63.0514 66.2559C63.0514 68.0173 62.5673 69.4496 61.5237 70.429ZM62.0514 66.2559C62.0514 69.4239 60.3234 70.7679 57.5394 70.7679C54.7554 70.7679 53.0274 69.4239 53.0274 66.2559C53.0274 63.0879 54.7554 61.6479 57.5394 61.6479C60.3234 61.6479 62.0514 63.0879 62.0514 66.2559Z" fill="#9F66DB"/>
</svg>
