<svg width="40" height="40" viewBox="0 0 40 40" fill="none" xmlns="http://www.w3.org/2000/svg">
<path d="M20.0013 3.33325C16.4651 3.33325 13.0737 4.73801 10.5732 7.2385C8.07273 9.73898 6.66797 13.1304 6.66797 16.6666C6.66797 25.6666 18.418 35.8333 18.918 36.2666C19.2199 36.5248 19.604 36.6667 20.0013 36.6667C20.3986 36.6667 20.7827 36.5248 21.0846 36.2666C21.668 35.8333 33.3346 25.6666 33.3346 16.6666C33.3346 13.1304 31.9299 9.73898 29.4294 7.2385C26.9289 4.73801 23.5375 3.33325 20.0013 3.33325ZM20.0013 32.7499C16.4513 29.4166 10.0013 22.2333 10.0013 16.6666C10.0013 14.0144 11.0549 11.4709 12.9302 9.59552C14.8056 7.72015 17.3491 6.66659 20.0013 6.66659C22.6535 6.66659 25.197 7.72015 27.0724 9.59552C28.9477 11.4709 30.0013 14.0144 30.0013 16.6666C30.0013 22.2333 23.5513 29.4333 20.0013 32.7499ZM20.0013 9.99992C18.6828 9.99992 17.3938 10.3909 16.2975 11.1235C15.2012 11.856 14.3467 12.8972 13.8421 14.1154C13.3375 15.3335 13.2055 16.674 13.4627 17.9672C13.72 19.2604 14.3549 20.4483 15.2873 21.3806C16.2196 22.313 17.4075 22.9479 18.7007 23.2052C19.9939 23.4624 21.3344 23.3304 22.5525 22.8258C23.7707 22.3212 24.8119 21.4667 25.5444 20.3704C26.277 19.2741 26.668 17.9851 26.668 16.6666C26.668 14.8985 25.9656 13.2028 24.7153 11.9525C23.4651 10.7023 21.7694 9.99992 20.0013 9.99992ZM20.0013 19.9999C19.342 19.9999 18.6976 19.8044 18.1494 19.4382C17.6012 19.0719 17.174 18.5513 16.9217 17.9422C16.6694 17.3331 16.6034 16.6629 16.732 16.0163C16.8606 15.3697 17.1781 14.7757 17.6443 14.3096C18.1105 13.8434 18.7044 13.5259 19.351 13.3973C19.9976 13.2687 20.6678 13.3347 21.2769 13.587C21.886 13.8393 22.4066 14.2665 22.7729 14.8147C23.1391 15.3628 23.3346 16.0073 23.3346 16.6666C23.3346 17.5506 22.9834 18.3985 22.3583 19.0236C21.7332 19.6487 20.8854 19.9999 20.0013 19.9999Z" fill="#FF8833"/>
</svg>
