<svg width="89" height="92" viewBox="0 0 89 92" fill="none" xmlns="http://www.w3.org/2000/svg">
<path d="M0 10.5C0 4.97715 4.47715 0.5 10 0.5H79C84.5229 0.5 89 4.97715 89 10.5V81.5C89 87.0229 84.5229 91.5 79 91.5H10C4.47715 91.5 0 87.0229 0 81.5V10.5Z" fill="#FF8833"/>
<path d="M44.5054 47.9639C50.9863 47.9639 56.2373 42.7129 56.2373 36.2319C56.2373 29.751 50.9814 24.5 44.5054 24.5C38.0293 24.5 32.7734 29.751 32.7734 36.2319C32.7734 42.7129 38.0244 47.9639 44.5054 47.9639Z" stroke="white" stroke-width="4.44578"/>
<path d="M56.2344 52.6568H57.0593C58.7734 52.6568 60.4332 53.2841 61.7175 54.4203C63.0019 55.5564 63.8317 57.1223 64.0442 58.8216L64.963 66.1522C65.0469 66.8141 64.9876 67.481 64.7901 68.1182C64.5925 68.7555 64.2664 69.3384 63.8219 69.8422C63.3822 70.3411 62.8389 70.7413 62.2313 71.0129C61.6237 71.2846 60.9667 71.4279 60.2998 71.4279H28.7002C28.0333 71.4279 27.3763 71.2846 26.7687 71.0129C26.1611 70.7413 25.6227 70.3411 25.1781 69.8422C24.7385 69.3433 24.4075 68.7555 24.2099 68.1182C24.0123 67.481 23.9531 66.8141 24.037 66.1522L24.9509 58.8216C25.1633 57.1174 25.9932 55.5515 27.2775 54.4153C28.5619 53.2792 30.2216 52.6519 31.9357 52.6519H32.7607" stroke="white" stroke-width="4.44578" stroke-linecap="round" stroke-linejoin="round"/>
</svg>
