<svg width="93" height="105" viewBox="0 0 93 105" fill="none" xmlns="http://www.w3.org/2000/svg">
<path d="M46.505 52.5C59.625 52.5 70.255 41.87 70.255 28.75C70.255 15.63 59.615 5 46.505 5C33.395 5 22.755 15.63 22.755 28.75C22.755 41.87 33.385 52.5 46.505 52.5Z" stroke="#797979" stroke-width="9"/>
<path d="M70.255 62H71.925C75.395 62 78.755 63.27 81.355 65.57C83.955 67.87 85.635 71.04 86.065 74.48L87.925 89.32C88.095 90.66 87.975 92.01 87.575 93.3C87.175 94.59 86.515 95.77 85.615 96.79C84.725 97.8 83.625 98.61 82.395 99.16C81.165 99.71 79.835 100 78.485 100H14.515C13.165 100 11.835 99.71 10.605 99.16C9.375 98.61 8.28499 97.8 7.38499 96.79C6.49499 95.78 5.825 94.59 5.425 93.3C5.025 92.01 4.905 90.66 5.075 89.32L6.925 74.48C7.355 71.03 9.035 67.86 11.635 65.56C14.235 63.26 17.595 61.99 21.065 61.99H22.735" stroke="#797979" stroke-width="9" stroke-linecap="round" stroke-linejoin="round"/>
</svg>
