<svg width="110" height="83" viewBox="0 0 110 83" fill="none" xmlns="http://www.w3.org/2000/svg">
<path d="M102.705 36.4C105.165 39.62 105.165 43.96 102.705 47.17C94.9651 57.28 76.3851 78.09 54.6951 78.09C33.0051 78.09 14.4351 57.28 6.68507 47.17C5.48507 45.63 4.83508 43.74 4.83508 41.79C4.83508 39.84 5.48507 37.95 6.68507 36.41C14.4251 26.3 33.0051 5.48999 54.6951 5.48999C76.3851 5.48999 94.9551 26.3 102.705 36.41V36.4Z" stroke="#797979" stroke-width="9" stroke-linecap="round" stroke-linejoin="round"/>
<path d="M54.695 57.34C63.285 57.34 70.255 50.37 70.255 41.78C70.255 33.19 63.285 26.22 54.695 26.22C46.105 26.22 39.135 33.19 39.135 41.78C39.135 50.37 46.105 57.34 54.695 57.34Z" stroke="#797979" stroke-width="9" stroke-linecap="round" stroke-linejoin="round"/>
</svg>
