<svg width="28" height="28" viewBox="0 0 28 28" fill="none" xmlns="http://www.w3.org/2000/svg">
<path d="M20.9492 9.56706C20.4869 9.7662 20.0008 9.90488 19.5031 9.97965C19.7358 9.93972 20.0782 9.52048 20.2145 9.35078C20.4216 9.09482 20.5794 8.80261 20.6799 8.489C20.6799 8.46571 20.7032 8.43244 20.6799 8.4158C20.6682 8.4094 20.6551 8.40604 20.6417 8.40604C20.6283 8.40604 20.6152 8.4094 20.6035 8.4158C20.063 8.70875 19.4878 8.93233 18.8914 9.08127C18.8706 9.08762 18.8485 9.0882 18.8274 9.08292C18.8063 9.07764 18.7871 9.06672 18.7717 9.05132C18.7253 8.996 18.6753 8.94376 18.6221 8.89494C18.3789 8.67681 18.1029 8.49829 17.8043 8.36589C17.4013 8.20038 16.9659 8.1287 16.5311 8.15627C16.1092 8.18294 15.6973 8.2962 15.321 8.489C14.9505 8.69228 14.6248 8.96843 14.3636 9.30087C14.0888 9.64304 13.8905 10.0401 13.7818 10.4654C13.6923 10.87 13.6821 11.2881 13.7519 11.6966C13.7519 11.7664 13.7519 11.7764 13.6921 11.7664C11.3218 11.4171 9.37703 10.5752 7.78798 8.7685C7.71816 8.68864 7.6816 8.68864 7.62508 8.7685C6.93361 9.81994 7.26937 11.4836 8.13371 12.3055C8.25007 12.4153 8.36974 12.5217 8.49607 12.6216C8.09978 12.5934 7.71316 12.4859 7.35913 12.3055C7.29264 12.2622 7.25607 12.2855 7.25275 12.3654C7.24333 12.4761 7.24333 12.5874 7.25275 12.6981C7.32212 13.2287 7.53103 13.7313 7.85812 14.1545C8.18521 14.5778 8.61875 14.9065 9.1144 15.1071C9.23523 15.1589 9.36113 15.1979 9.49006 15.2235C9.12319 15.2958 8.74692 15.3071 8.37639 15.2568C8.29661 15.2402 8.26669 15.2834 8.29661 15.36C8.78529 16.6909 9.84577 17.0968 10.6237 17.3231C10.7301 17.3397 10.8364 17.3397 10.9561 17.3663C10.9561 17.3663 10.9561 17.3663 10.9362 17.3863C10.7068 17.8055 9.77928 18.0884 9.35376 18.2348C8.57708 18.514 7.74899 18.6207 6.92696 18.5475C6.79731 18.5276 6.76739 18.5309 6.73415 18.5475C6.7009 18.5642 6.73415 18.6008 6.77071 18.6341C6.93693 18.7439 7.10315 18.8404 7.27602 18.9335C7.79065 19.2145 8.33472 19.4376 8.89832 19.599C11.8171 20.4042 15.1016 19.8119 17.2924 17.6325C19.0144 15.9223 19.6195 13.5632 19.6195 11.2008C19.6195 11.1109 19.7292 11.0577 19.7923 11.0111C20.228 10.6714 20.6121 10.2701 20.9326 9.81994C20.9881 9.75283 21.0165 9.66739 21.0124 9.58037C21.0124 9.53046 21.0124 9.54044 20.9492 9.56706Z" fill="#FFA666"/>
</svg>
