<svg width="28" height="28" viewBox="0 0 28 28" fill="none" xmlns="http://www.w3.org/2000/svg">
<path d="M21.7878 10.1488C21.605 9.46148 21.0642 8.9193 20.3761 8.73348C19.132 8.40002 14.1404 8.40002 14.1404 8.40002C14.1404 8.40002 9.15131 8.40002 7.90468 8.73348C7.21915 8.91675 6.67835 9.45893 6.49301 10.1488C6.1604 11.396 6.1604 14 6.1604 14C6.1604 14 6.1604 16.604 6.49301 17.8513C6.67581 18.5386 7.21661 19.0808 7.90468 19.2666C9.15131 19.6 14.1404 19.6 14.1404 19.6C14.1404 19.6 19.132 19.6 20.3761 19.2666C21.0616 19.0833 21.6025 18.5411 21.7878 17.8513C22.1204 16.604 22.1204 14 22.1204 14C22.1204 14 22.1204 11.396 21.7878 10.1488Z" fill="#FFA666"/>
<path d="M12.5459 16.4004L16.6921 14L12.5459 11.5997V16.4004Z" fill="#EFEFEF"/>
</svg>
