<svg width="24" height="24" viewBox="0 0 24 24" fill="none" xmlns="http://www.w3.org/2000/svg">
<path d="M21.9995 9.66966C21.9363 9.48674 21.8215 9.32608 21.6688 9.20716C21.5162 9.08823 21.3323 9.01615 21.1395 8.99966L15.4495 8.16966L12.8995 2.99966C12.8176 2.83059 12.6898 2.688 12.5306 2.58823C12.3714 2.48846 12.1873 2.43555 11.9995 2.43555C11.8116 2.43555 11.6276 2.48846 11.4684 2.58823C11.3092 2.688 11.1814 2.83059 11.0995 2.99966L8.54949 8.15966L2.85949 8.99966C2.67441 9.02596 2.50041 9.10362 2.35724 9.22381C2.21407 9.34401 2.10745 9.50193 2.04949 9.67966C1.99643 9.85333 1.99167 10.0382 2.03572 10.2143C2.07976 10.3905 2.17095 10.5514 2.29949 10.6797L6.42949 14.6797L5.42949 20.3597C5.39379 20.5471 5.41248 20.7409 5.48336 20.9181C5.55424 21.0953 5.67434 21.2485 5.82949 21.3597C5.98071 21.4678 6.15906 21.5316 6.34454 21.5439C6.53001 21.5563 6.71526 21.5167 6.87949 21.4297L11.9995 18.7597L17.0995 21.4397C17.2398 21.5188 17.3983 21.5602 17.5595 21.5597C17.7713 21.5604 17.9779 21.4939 18.1495 21.3697C18.3046 21.2585 18.4247 21.1053 18.4956 20.9281C18.5665 20.7509 18.5852 20.5571 18.5495 20.3697L17.5495 14.6897L21.6795 10.6897C21.8239 10.5673 21.9306 10.4066 21.9872 10.226C22.0439 10.0455 22.0481 9.85253 21.9995 9.66966ZM15.8495 13.6697C15.7322 13.7831 15.6445 13.9235 15.5939 14.0786C15.5434 14.2338 15.5316 14.3989 15.5595 14.5597L16.2795 18.7497L12.5195 16.7497C12.3748 16.6726 12.2134 16.6323 12.0495 16.6323C11.8856 16.6323 11.7242 16.6726 11.5795 16.7497L7.81949 18.7497L8.53949 14.5597C8.56742 14.3989 8.5556 14.2338 8.50505 14.0786C8.45451 13.9235 8.36677 13.7831 8.24949 13.6697L5.24949 10.6697L9.45949 10.0597C9.62149 10.0371 9.77549 9.9752 9.90799 9.87931C10.0405 9.78342 10.1474 9.65649 10.2195 9.50966L11.9995 5.69966L13.8795 9.51966C13.9515 9.66649 14.0585 9.79342 14.191 9.88931C14.3235 9.9852 14.4775 10.0471 14.6395 10.0697L18.8495 10.6797L15.8495 13.6697Z" fill="#00B1BB"/>
</svg>
