<svg width="18" height="19" viewBox="0 0 18 19" fill="none" xmlns="http://www.w3.org/2000/svg">
<path d="M13.2933 10.3691V8.08026C13.2923 7.06047 12.9304 6.07394 12.2717 5.29539C11.613 4.51684 10.7001 3.99651 9.69455 3.82654V3.04202C9.69455 2.85113 9.61871 2.66805 9.48374 2.53308C9.34876 2.3981 9.16569 2.32227 8.9748 2.32227C8.78391 2.32227 8.60084 2.3981 8.46586 2.53308C8.33088 2.66805 8.25505 2.85113 8.25505 3.04202V3.82654C7.24951 3.99651 6.33657 4.51684 5.6779 5.29539C5.01923 6.07394 4.65733 7.06047 4.6563 8.08026V10.3691C4.23629 10.5176 3.87249 10.7923 3.61477 11.1557C3.35706 11.5191 3.21805 11.9533 3.2168 12.3988V13.8383C3.2168 14.0292 3.29263 14.2122 3.42761 14.3472C3.56259 14.4822 3.74566 14.558 3.93655 14.558H6.19656C6.36231 15.1679 6.72414 15.7063 7.22623 16.0902C7.72833 16.474 8.34278 16.682 8.9748 16.682C9.60681 16.682 10.2213 16.474 10.7234 16.0902C11.2255 15.7063 11.5873 15.1679 11.753 14.558H14.013C14.2039 14.558 14.387 14.4822 14.522 14.3472C14.657 14.2122 14.7328 14.0292 14.7328 13.8383V12.3988C14.7315 11.9533 14.5925 11.5191 14.3348 11.1557C14.0771 10.7923 13.7133 10.5176 13.2933 10.3691V10.3691ZM6.0958 8.08026C6.0958 7.31671 6.39912 6.58442 6.93904 6.0445C7.47895 5.50459 8.21124 5.20126 8.9748 5.20126C9.73835 5.20126 10.4706 5.50459 11.0106 6.0445C11.5505 6.58442 11.8538 7.31671 11.8538 8.08026V10.2395H6.0958V8.08026ZM8.9748 15.2778C8.72358 15.2762 8.47714 15.209 8.25996 15.0827C8.04278 14.9565 7.86243 14.7756 7.73683 14.558H10.2128C10.0872 14.7756 9.90681 14.9565 9.68963 15.0827C9.47245 15.209 9.22601 15.2762 8.9748 15.2778ZM13.2933 13.1185H4.6563V12.3988C4.6563 12.2079 4.73213 12.0248 4.86711 11.8898C5.00209 11.7548 5.18516 11.679 5.37605 11.679H12.5735C12.7644 11.679 12.9475 11.7548 13.0825 11.8898C13.2175 12.0248 13.2933 12.2079 13.2933 12.3988V13.1185Z" fill="#00B1BB"/>
<circle cx="12.8144" cy="4.72207" r="1.91933" fill="#FF8833"/>
</svg>
